G04 start of page 10 for group -3984 idx -3984
G04 Title: (unknown), fab *
G04 Creator: pcb-bin 20060822 *
G04 CreationDate: Wed Jun  4 23:35:37 2008 UTC *
G04 For: pete *
G04 Format: Gerber/RS-274X *
G04 PCB-Dimensions: 1125000 272500 *
G04 PCB-Coordinate-Origin: lower left *
%MOIN*%
%FSLAX24Y24*%
%LNFAB*%
%ADD11R,0.0080X0.0080*%
%ADD12C,0.0100*%
G54D11*X8510Y7490D02*X8990Y7010D01*
X8510D02*X8990Y7490D01*
X8590Y7410D02*X8910D01*
X8590D02*Y7090D01*
X8910D01*
Y7410D02*Y7090D01*
X102010Y7490D02*X102490Y7010D01*
X102010D02*X102490Y7490D01*
X102090Y7410D02*X102410D01*
X102090D02*Y7090D01*
X102410D01*
Y7410D02*Y7090D01*
X1260Y28615D02*X1740Y28135D01*
X1260D02*X1740Y28615D01*
X1340Y28535D02*X1660D01*
X1340D02*Y28215D01*
X1660D01*
Y28535D02*Y28215D01*
G54D12*X13500Y28600D02*Y28525D01*
X13650Y28375D01*
X13800Y28525D01*
Y28600D02*Y28525D01*
X13650Y28375D02*Y28000D01*
X13980Y28300D02*X14205D01*
X13980Y28000D02*X14280D01*
X13980Y28600D02*Y28000D01*
Y28600D02*X14280D01*
X14760D02*X14835Y28525D01*
X14535Y28600D02*X14760D01*
X14460Y28525D02*X14535Y28600D01*
X14460Y28525D02*Y28375D01*
X14535Y28300D01*
X14760D01*
X14835Y28225D01*
Y28075D01*
X14760Y28000D02*X14835Y28075D01*
X14535Y28000D02*X14760D01*
X14460Y28075D02*X14535Y28000D01*
X13500Y27674D02*X15015D01*
X9800Y28525D02*X9875Y28600D01*
X10100D01*
X10175Y28525D01*
Y28375D01*
X9800Y28000D02*X10175Y28375D01*
X9800Y28000D02*X10175D01*
X9800Y27674D02*X10355D01*
X4500Y28075D02*X4575Y28000D01*
X4500Y28525D02*Y28075D01*
Y28525D02*X4575Y28600D01*
X4725D01*
X4800Y28525D01*
Y28075D01*
X4725Y28000D02*X4800Y28075D01*
X4575Y28000D02*X4725D01*
X4500Y28150D02*X4800Y28450D01*
X4980Y28000D02*X5055D01*
X5310D02*X5460D01*
X5385Y28600D02*Y28000D01*
X5235Y28450D02*X5385Y28600D01*
X5640Y28525D02*X5715Y28600D01*
X5940D01*
X6015Y28525D01*
Y28375D01*
X5640Y28000D02*X6015Y28375D01*
X5640Y28000D02*X6015D01*
X6195Y28600D02*X6495D01*
X6195D02*Y28300D01*
X6270Y28375D01*
X6420D01*
X6495Y28300D01*
Y28075D01*
X6420Y28000D02*X6495Y28075D01*
X6270Y28000D02*X6420D01*
X6195Y28075D02*X6270Y28000D01*
X4500Y27674D02*X6675D01*
X39387Y12820D02*Y12180D01*
X39067Y12500D02*X39707D01*
X39227Y12660D02*X39547D01*
X39227D02*Y12340D01*
X39547D01*
Y12660D02*Y12340D01*
X47261Y12820D02*Y12180D01*
X46941Y12500D02*X47581D01*
X47101Y12660D02*X47421D01*
X47101D02*Y12340D01*
X47421D01*
Y12660D02*Y12340D01*
X1500Y30195D02*Y29555D01*
X1180Y29875D02*X1820D01*
X1340Y30035D02*X1660D01*
X1340D02*Y29715D01*
X1660D01*
Y30035D02*Y29715D01*
X13500Y30100D02*Y30025D01*
X13650Y29875D01*
X13800Y30025D01*
Y30100D02*Y30025D01*
X13650Y29875D02*Y29500D01*
X13980Y29800D02*X14205D01*
X13980Y29500D02*X14280D01*
X13980Y30100D02*Y29500D01*
Y30100D02*X14280D01*
X14760D02*X14835Y30025D01*
X14535Y30100D02*X14760D01*
X14460Y30025D02*X14535Y30100D01*
X14460Y30025D02*Y29875D01*
X14535Y29800D01*
X14760D01*
X14835Y29725D01*
Y29575D01*
X14760Y29500D02*X14835Y29575D01*
X14535Y29500D02*X14760D01*
X14460Y29575D02*X14535Y29500D01*
X13500Y29174D02*X15015D01*
X9800Y30025D02*X9875Y30100D01*
X10100D01*
X10175Y30025D01*
Y29875D01*
X9800Y29500D02*X10175Y29875D01*
X9800Y29500D02*X10175D01*
X9800Y29174D02*X10355D01*
X4500Y29575D02*X4575Y29500D01*
X4500Y30025D02*Y29575D01*
Y30025D02*X4575Y30100D01*
X4725D01*
X4800Y30025D01*
Y29575D01*
X4725Y29500D02*X4800Y29575D01*
X4575Y29500D02*X4725D01*
X4500Y29650D02*X4800Y29950D01*
X4980Y29500D02*X5055D01*
X5235Y29575D02*X5310Y29500D01*
X5235Y30025D02*Y29575D01*
Y30025D02*X5310Y30100D01*
X5460D01*
X5535Y30025D01*
Y29575D01*
X5460Y29500D02*X5535Y29575D01*
X5310Y29500D02*X5460D01*
X5235Y29650D02*X5535Y29950D01*
X5715Y29575D02*X5790Y29500D01*
X5715Y29725D02*Y29575D01*
Y29725D02*X5790Y29800D01*
X5940D01*
X6015Y29725D01*
Y29575D01*
X5940Y29500D02*X6015Y29575D01*
X5790Y29500D02*X5940D01*
X5715Y29875D02*X5790Y29800D01*
X5715Y30025D02*Y29875D01*
Y30025D02*X5790Y30100D01*
X5940D01*
X6015Y30025D01*
Y29875D01*
X5940Y29800D02*X6015Y29875D01*
X6420Y30100D02*X6495Y30025D01*
X6270Y30100D02*X6420D01*
X6195Y30025D02*X6270Y30100D01*
X6195Y30025D02*Y29575D01*
X6270Y29500D01*
X6420Y29800D02*X6495Y29725D01*
X6195Y29800D02*X6420D01*
X6270Y29500D02*X6420D01*
X6495Y29575D01*
Y29725D02*Y29575D01*
X4500Y29174D02*X6675D01*
X17250Y23750D02*Y23430D01*
Y23750D02*X17527Y23910D01*
X17250Y23750D02*X16972Y23910D01*
X17090Y23750D02*G75*G03X17410Y23750I160J0D01*G01*
G75*G03X17090Y23750I-160J0D01*G01*
X20005D02*Y23430D01*
Y23750D02*X20283Y23910D01*
X20005Y23750D02*X19728Y23910D01*
X19845Y23750D02*G75*G03X20165Y23750I160J0D01*G01*
G75*G03X19845Y23750I-160J0D01*G01*
X55000D02*Y23430D01*
Y23750D02*X55277Y23910D01*
X55000Y23750D02*X54722Y23910D01*
X54840Y23750D02*G75*G03X55160Y23750I160J0D01*G01*
G75*G03X54840Y23750I-160J0D01*G01*
X57755D02*Y23430D01*
Y23750D02*X58033Y23910D01*
X57755Y23750D02*X57478Y23910D01*
X57595Y23750D02*G75*G03X57915Y23750I160J0D01*G01*
G75*G03X57595Y23750I-160J0D01*G01*
X92250D02*Y23430D01*
Y23750D02*X92527Y23910D01*
X92250Y23750D02*X91972Y23910D01*
X92090Y23750D02*G75*G03X92410Y23750I160J0D01*G01*
G75*G03X92090Y23750I-160J0D01*G01*
X95005D02*Y23430D01*
Y23750D02*X95283Y23910D01*
X95005Y23750D02*X94728Y23910D01*
X94845Y23750D02*G75*G03X95165Y23750I160J0D01*G01*
G75*G03X94845Y23750I-160J0D01*G01*
X1500Y31375D02*Y31055D01*
Y31375D02*X1777Y31535D01*
X1500Y31375D02*X1222Y31535D01*
X1340Y31375D02*G75*G03X1660Y31375I160J0D01*G01*
G75*G03X1340Y31375I-160J0D01*G01*
X13500Y31600D02*Y31525D01*
X13650Y31375D01*
X13800Y31525D01*
Y31600D02*Y31525D01*
X13650Y31375D02*Y31000D01*
X13980Y31300D02*X14205D01*
X13980Y31000D02*X14280D01*
X13980Y31600D02*Y31000D01*
Y31600D02*X14280D01*
X14760D02*X14835Y31525D01*
X14535Y31600D02*X14760D01*
X14460Y31525D02*X14535Y31600D01*
X14460Y31525D02*Y31375D01*
X14535Y31300D01*
X14760D01*
X14835Y31225D01*
Y31075D01*
X14760Y31000D02*X14835Y31075D01*
X14535Y31000D02*X14760D01*
X14460Y31075D02*X14535Y31000D01*
X13500Y30674D02*X15015D01*
X10025Y31600D02*X10100Y31525D01*
X9875Y31600D02*X10025D01*
X9800Y31525D02*X9875Y31600D01*
X9800Y31525D02*Y31075D01*
X9875Y31000D01*
X10025Y31300D02*X10100Y31225D01*
X9800Y31300D02*X10025D01*
X9875Y31000D02*X10025D01*
X10100Y31075D01*
Y31225D02*Y31075D01*
X9800Y30674D02*X10280D01*
X4500Y31075D02*X4575Y31000D01*
X4500Y31525D02*Y31075D01*
Y31525D02*X4575Y31600D01*
X4725D01*
X4800Y31525D01*
Y31075D01*
X4725Y31000D02*X4800Y31075D01*
X4575Y31000D02*X4725D01*
X4500Y31150D02*X4800Y31450D01*
X4980Y31000D02*X5055D01*
X5235Y31075D02*X5310Y31000D01*
X5235Y31525D02*Y31075D01*
Y31525D02*X5310Y31600D01*
X5460D01*
X5535Y31525D01*
Y31075D01*
X5460Y31000D02*X5535Y31075D01*
X5310Y31000D02*X5460D01*
X5235Y31150D02*X5535Y31450D01*
X5715Y31600D02*X6015D01*
X5715D02*Y31300D01*
X5790Y31375D01*
X5940D01*
X6015Y31300D01*
Y31075D01*
X5940Y31000D02*X6015Y31075D01*
X5790Y31000D02*X5940D01*
X5715Y31075D02*X5790Y31000D01*
X6195Y31525D02*X6270Y31600D01*
X6495D01*
X6570Y31525D01*
Y31375D01*
X6195Y31000D02*X6570Y31375D01*
X6195Y31000D02*X6570D01*
X4500Y30674D02*X6750D01*
X106840Y14410D02*X107160D01*
X106840D02*Y14090D01*
X107160D01*
Y14410D02*Y14090D01*
X106840Y9410D02*X107160D01*
X106840D02*Y9090D01*
X107160D01*
Y9410D02*Y9090D01*
X44340Y3660D02*X44660D01*
X44340D02*Y3340D01*
X44660D01*
Y3660D02*Y3340D01*
X14340Y14160D02*X14660D01*
X14340D02*Y13840D01*
X14660D01*
Y14160D02*Y13840D01*
X14340Y13160D02*X14660D01*
X14340D02*Y12840D01*
X14660D01*
Y13160D02*Y12840D01*
X14340Y12160D02*X14660D01*
X14340D02*Y11840D01*
X14660D01*
Y12160D02*Y11840D01*
X102840Y11410D02*X103160D01*
X102840D02*Y11090D01*
X103160D01*
Y11410D02*Y11090D01*
X60840Y11910D02*X61160D01*
X60840D02*Y11590D01*
X61160D01*
Y11910D02*Y11590D01*
X25340Y13660D02*X25660D01*
X25340D02*Y13340D01*
X25660D01*
Y13660D02*Y13340D01*
X34840Y17160D02*X35160D01*
X34840D02*Y16840D01*
X35160D01*
Y17160D02*Y16840D01*
X78090Y7660D02*X78410D01*
X78090D02*Y7340D01*
X78410D01*
Y7660D02*Y7340D01*
X82295Y1890D02*X82615D01*
X82295D02*Y1570D01*
X82615D01*
Y1890D02*Y1570D01*
X84295Y1890D02*X84615D01*
X84295D02*Y1570D01*
X84615D01*
Y1890D02*Y1570D01*
X83295Y1890D02*X83615D01*
X83295D02*Y1570D01*
X83615D01*
Y1890D02*Y1570D01*
X86295Y1890D02*X86615D01*
X86295D02*Y1570D01*
X86615D01*
Y1890D02*Y1570D01*
X86295Y25560D02*X86615D01*
X86295D02*Y25240D01*
X86615D01*
Y25560D02*Y25240D01*
X85295Y25560D02*X85615D01*
X85295D02*Y25240D01*
X85615D01*
Y25560D02*Y25240D01*
X84295Y25560D02*X84615D01*
X84295D02*Y25240D01*
X84615D01*
Y25560D02*Y25240D01*
X83295Y25560D02*X83615D01*
X83295D02*Y25240D01*
X83615D01*
Y25560D02*Y25240D01*
X82295Y25560D02*X82615D01*
X82295D02*Y25240D01*
X82615D01*
Y25560D02*Y25240D01*
X85295Y1890D02*X85615D01*
X85295D02*Y1570D01*
X85615D01*
Y1890D02*Y1570D01*
X64090Y14660D02*X64410D01*
X64090D02*Y14340D01*
X64410D01*
Y14660D02*Y14340D01*
X64090Y13410D02*X64410D01*
X64090D02*Y13090D01*
X64410D01*
Y13410D02*Y13090D01*
X19353Y24894D02*X19673D01*
X19353D02*Y24574D01*
X19673D01*
Y24894D02*Y24574D01*
X17582Y24894D02*X17902D01*
X17582D02*Y24574D01*
X17902D01*
Y24894D02*Y24574D01*
X64090Y12160D02*X64410D01*
X64090D02*Y11840D01*
X64410D01*
Y12160D02*Y11840D01*
X57103Y24894D02*X57423D01*
X57103D02*Y24574D01*
X57423D01*
Y24894D02*Y24574D01*
X55332Y24894D02*X55652D01*
X55332D02*Y24574D01*
X55652D01*
Y24894D02*Y24574D01*
X72840Y4410D02*X73160D01*
X72840D02*Y4090D01*
X73160D01*
Y4410D02*Y4090D01*
X94353Y24894D02*X94673D01*
X94353D02*Y24574D01*
X94673D01*
Y24894D02*Y24574D01*
X92582Y24894D02*X92902D01*
X92582D02*Y24574D01*
X92902D01*
Y24894D02*Y24574D01*
X72840Y6660D02*X73160D01*
X72840D02*Y6340D01*
X73160D01*
Y6660D02*Y6340D01*
X80090Y7910D02*X80410D01*
X80090D02*Y7590D01*
X80410D01*
Y7910D02*Y7590D01*
X21840Y24910D02*X22160D01*
X21840D02*Y24590D01*
X22160D01*
Y24910D02*Y24590D01*
X105340Y7910D02*X105660D01*
X105340D02*Y7590D01*
X105660D01*
Y7910D02*Y7590D01*
X59590Y24910D02*X59910D01*
X59590D02*Y24590D01*
X59910D01*
Y24910D02*Y24590D01*
X105840Y5410D02*X106160D01*
X105840D02*Y5090D01*
X106160D01*
Y5410D02*Y5090D01*
X97090Y24910D02*X97410D01*
X97090D02*Y24590D01*
X97410D01*
Y24910D02*Y24590D01*
X23090Y12660D02*X23410D01*
X23090D02*Y12340D01*
X23410D01*
Y12660D02*Y12340D01*
X39340Y3660D02*X39660D01*
X39340D02*Y3340D01*
X39660D01*
Y3660D02*Y3340D01*
X44755Y1890D02*X45075D01*
X44755D02*Y1570D01*
X45075D01*
Y1890D02*Y1570D01*
X46755Y1890D02*X47075D01*
X46755D02*Y1570D01*
X47075D01*
Y1890D02*Y1570D01*
X45755Y1890D02*X46075D01*
X45755D02*Y1570D01*
X46075D01*
Y1890D02*Y1570D01*
X48755Y1890D02*X49075D01*
X48755D02*Y1570D01*
X49075D01*
Y1890D02*Y1570D01*
X48755Y25560D02*X49075D01*
X48755D02*Y25240D01*
X49075D01*
Y25560D02*Y25240D01*
X47755Y25560D02*X48075D01*
X47755D02*Y25240D01*
X48075D01*
Y25560D02*Y25240D01*
X46755Y25560D02*X47075D01*
X46755D02*Y25240D01*
X47075D01*
Y25560D02*Y25240D01*
X45755Y25560D02*X46075D01*
X45755D02*Y25240D01*
X46075D01*
Y25560D02*Y25240D01*
X44755Y25560D02*X45075D01*
X44755D02*Y25240D01*
X45075D01*
Y25560D02*Y25240D01*
X47755Y1890D02*X48075D01*
X47755D02*Y1570D01*
X48075D01*
Y1890D02*Y1570D01*
X67525Y25560D02*X67845D01*
X67525D02*Y25240D01*
X67845D01*
Y25560D02*Y25240D01*
X65525Y25560D02*X65845D01*
X65525D02*Y25240D01*
X65845D01*
Y25560D02*Y25240D01*
X66525Y25560D02*X66845D01*
X66525D02*Y25240D01*
X66845D01*
Y25560D02*Y25240D01*
X63525Y25560D02*X63845D01*
X63525D02*Y25240D01*
X63845D01*
Y25560D02*Y25240D01*
X63525Y1890D02*X63845D01*
X63525D02*Y1570D01*
X63845D01*
Y1890D02*Y1570D01*
X64525Y1890D02*X64845D01*
X64525D02*Y1570D01*
X64845D01*
Y1890D02*Y1570D01*
X65525Y1890D02*X65845D01*
X65525D02*Y1570D01*
X65845D01*
Y1890D02*Y1570D01*
X66525Y1890D02*X66845D01*
X66525D02*Y1570D01*
X66845D01*
Y1890D02*Y1570D01*
X67525Y1890D02*X67845D01*
X67525D02*Y1570D01*
X67845D01*
Y1890D02*Y1570D01*
X64525Y25560D02*X64845D01*
X64525D02*Y25240D01*
X64845D01*
Y25560D02*Y25240D01*
X101065Y1890D02*X101385D01*
X101065D02*Y1570D01*
X101385D01*
Y1890D02*Y1570D01*
X103065Y1890D02*X103385D01*
X103065D02*Y1570D01*
X103385D01*
Y1890D02*Y1570D01*
X102065Y1890D02*X102385D01*
X102065D02*Y1570D01*
X102385D01*
Y1890D02*Y1570D01*
X105065Y1890D02*X105385D01*
X105065D02*Y1570D01*
X105385D01*
Y1890D02*Y1570D01*
X105065Y25560D02*X105385D01*
X105065D02*Y25240D01*
X105385D01*
Y25560D02*Y25240D01*
X104065Y25560D02*X104385D01*
X104065D02*Y25240D01*
X104385D01*
Y25560D02*Y25240D01*
X103065Y25560D02*X103385D01*
X103065D02*Y25240D01*
X103385D01*
Y25560D02*Y25240D01*
X102065Y25560D02*X102385D01*
X102065D02*Y25240D01*
X102385D01*
Y25560D02*Y25240D01*
X101065Y25560D02*X101385D01*
X101065D02*Y25240D01*
X101385D01*
Y25560D02*Y25240D01*
X104065Y1890D02*X104385D01*
X104065D02*Y1570D01*
X104385D01*
Y1890D02*Y1570D01*
X11215Y25560D02*X11535D01*
X11215D02*Y25240D01*
X11535D01*
Y25560D02*Y25240D01*
X9215Y25560D02*X9535D01*
X9215D02*Y25240D01*
X9535D01*
Y25560D02*Y25240D01*
X10215Y25560D02*X10535D01*
X10215D02*Y25240D01*
X10535D01*
Y25560D02*Y25240D01*
X7215Y25560D02*X7535D01*
X7215D02*Y25240D01*
X7535D01*
Y25560D02*Y25240D01*
X7215Y1890D02*X7535D01*
X7215D02*Y1570D01*
X7535D01*
Y1890D02*Y1570D01*
X8215Y1890D02*X8535D01*
X8215D02*Y1570D01*
X8535D01*
Y1890D02*Y1570D01*
X9215Y1890D02*X9535D01*
X9215D02*Y1570D01*
X9535D01*
Y1890D02*Y1570D01*
X10215Y1890D02*X10535D01*
X10215D02*Y1570D01*
X10535D01*
Y1890D02*Y1570D01*
X11215Y1890D02*X11535D01*
X11215D02*Y1570D01*
X11535D01*
Y1890D02*Y1570D01*
X8215Y25560D02*X8535D01*
X8215D02*Y25240D01*
X8535D01*
Y25560D02*Y25240D01*
X29985Y25560D02*X30305D01*
X29985D02*Y25240D01*
X30305D01*
Y25560D02*Y25240D01*
X27985Y25560D02*X28305D01*
X27985D02*Y25240D01*
X28305D01*
Y25560D02*Y25240D01*
X28985Y25560D02*X29305D01*
X28985D02*Y25240D01*
X29305D01*
Y25560D02*Y25240D01*
X25985Y25560D02*X26305D01*
X25985D02*Y25240D01*
X26305D01*
Y25560D02*Y25240D01*
X25985Y1890D02*X26305D01*
X25985D02*Y1570D01*
X26305D01*
Y1890D02*Y1570D01*
X26985Y1890D02*X27305D01*
X26985D02*Y1570D01*
X27305D01*
Y1890D02*Y1570D01*
X27985Y1890D02*X28305D01*
X27985D02*Y1570D01*
X28305D01*
Y1890D02*Y1570D01*
X28985Y1890D02*X29305D01*
X28985D02*Y1570D01*
X29305D01*
Y1890D02*Y1570D01*
X29985Y1890D02*X30305D01*
X29985D02*Y1570D01*
X30305D01*
Y1890D02*Y1570D01*
X26985Y25560D02*X27305D01*
X26985D02*Y25240D01*
X27305D01*
Y25560D02*Y25240D01*
X1340Y33035D02*X1660D01*
X1340D02*Y32715D01*
X1660D01*
Y33035D02*Y32715D01*
X13500Y33100D02*Y33025D01*
X13650Y32875D01*
X13800Y33025D01*
Y33100D02*Y33025D01*
X13650Y32875D02*Y32500D01*
X13980Y32800D02*X14205D01*
X13980Y32500D02*X14280D01*
X13980Y33100D02*Y32500D01*
Y33100D02*X14280D01*
X14760D02*X14835Y33025D01*
X14535Y33100D02*X14760D01*
X14460Y33025D02*X14535Y33100D01*
X14460Y33025D02*Y32875D01*
X14535Y32800D01*
X14760D01*
X14835Y32725D01*
Y32575D01*
X14760Y32500D02*X14835Y32575D01*
X14535Y32500D02*X14760D01*
X14460Y32575D02*X14535Y32500D01*
X13500Y32174D02*X15015D01*
X9800Y32500D02*X10100Y32800D01*
Y33025D02*Y32800D01*
X10025Y33100D02*X10100Y33025D01*
X9875Y33100D02*X10025D01*
X9800Y33025D02*X9875Y33100D01*
X9800Y33025D02*Y32875D01*
X9875Y32800D01*
X10100D01*
X10280Y32575D02*X10355Y32500D01*
X10280Y33025D02*Y32575D01*
Y33025D02*X10355Y33100D01*
X10505D01*
X10580Y33025D01*
Y32575D01*
X10505Y32500D02*X10580Y32575D01*
X10355Y32500D02*X10505D01*
X10280Y32650D02*X10580Y32950D01*
X9800Y32174D02*X10760D01*
X4500Y32575D02*X4575Y32500D01*
X4500Y33025D02*Y32575D01*
Y33025D02*X4575Y33100D01*
X4725D01*
X4800Y33025D01*
Y32575D01*
X4725Y32500D02*X4800Y32575D01*
X4575Y32500D02*X4725D01*
X4500Y32650D02*X4800Y32950D01*
X4980Y32500D02*X5055D01*
X5235Y32575D02*X5310Y32500D01*
X5235Y33025D02*Y32575D01*
Y33025D02*X5310Y33100D01*
X5460D01*
X5535Y33025D01*
Y32575D01*
X5460Y32500D02*X5535Y32575D01*
X5310Y32500D02*X5460D01*
X5235Y32650D02*X5535Y32950D01*
X5715Y32800D02*X6015Y33100D01*
X5715Y32800D02*X6090D01*
X6015Y33100D02*Y32500D01*
X6270Y33025D02*X6345Y33100D01*
X6570D01*
X6645Y33025D01*
Y32875D01*
X6270Y32500D02*X6645Y32875D01*
X6270Y32500D02*X6645D01*
X4500Y32174D02*X6825D01*
X83670Y11500D02*G75*G03X83830Y11500I80J0D01*G01*
G75*G03X83670Y11500I-80J0D01*G01*
Y12500D02*G75*G03X83830Y12500I80J0D01*G01*
G75*G03X83670Y12500I-80J0D01*G01*
Y13500D02*G75*G03X83830Y13500I80J0D01*G01*
G75*G03X83670Y13500I-80J0D01*G01*
Y14500D02*G75*G03X83830Y14500I80J0D01*G01*
G75*G03X83670Y14500I-80J0D01*G01*
Y15500D02*G75*G03X83830Y15500I80J0D01*G01*
G75*G03X83670Y15500I-80J0D01*G01*
Y16500D02*G75*G03X83830Y16500I80J0D01*G01*
G75*G03X83670Y16500I-80J0D01*G01*
X1420Y34375D02*G75*G03X1580Y34375I80J0D01*G01*
G75*G03X1420Y34375I-80J0D01*G01*
X13500Y34600D02*Y34525D01*
X13650Y34375D01*
X13800Y34525D01*
Y34600D02*Y34525D01*
X13650Y34375D02*Y34000D01*
X13980Y34300D02*X14205D01*
X13980Y34000D02*X14280D01*
X13980Y34600D02*Y34000D01*
Y34600D02*X14280D01*
X14760D02*X14835Y34525D01*
X14535Y34600D02*X14760D01*
X14460Y34525D02*X14535Y34600D01*
X14460Y34525D02*Y34375D01*
X14535Y34300D01*
X14760D01*
X14835Y34225D01*
Y34075D01*
X14760Y34000D02*X14835Y34075D01*
X14535Y34000D02*X14760D01*
X14460Y34075D02*X14535Y34000D01*
X13500Y33674D02*X15015D01*
X10025Y34600D02*X10100Y34525D01*
X9875Y34600D02*X10025D01*
X9800Y34525D02*X9875Y34600D01*
X9800Y34525D02*Y34075D01*
X9875Y34000D01*
X10025Y34300D02*X10100Y34225D01*
X9800Y34300D02*X10025D01*
X9875Y34000D02*X10025D01*
X10100Y34075D01*
Y34225D02*Y34075D01*
X9800Y33674D02*X10280D01*
X4500Y34075D02*X4575Y34000D01*
X4500Y34525D02*Y34075D01*
Y34525D02*X4575Y34600D01*
X4725D01*
X4800Y34525D01*
Y34075D01*
X4725Y34000D02*X4800Y34075D01*
X4575Y34000D02*X4725D01*
X4500Y34150D02*X4800Y34450D01*
X4980Y34000D02*X5055D01*
X5235Y34075D02*X5310Y34000D01*
X5235Y34525D02*Y34075D01*
Y34525D02*X5310Y34600D01*
X5460D01*
X5535Y34525D01*
Y34075D01*
X5460Y34000D02*X5535Y34075D01*
X5310Y34000D02*X5460D01*
X5235Y34150D02*X5535Y34450D01*
X5715Y34525D02*X5790Y34600D01*
X5940D01*
X6015Y34525D01*
Y34075D01*
X5940Y34000D02*X6015Y34075D01*
X5790Y34000D02*X5940D01*
X5715Y34075D02*X5790Y34000D01*
Y34300D02*X6015D01*
X6195Y34075D02*X6270Y34000D01*
X6195Y34225D02*Y34075D01*
Y34225D02*X6270Y34300D01*
X6420D01*
X6495Y34225D01*
Y34075D01*
X6420Y34000D02*X6495Y34075D01*
X6270Y34000D02*X6420D01*
X6195Y34375D02*X6270Y34300D01*
X6195Y34525D02*Y34375D01*
Y34525D02*X6270Y34600D01*
X6420D01*
X6495Y34525D01*
Y34375D01*
X6420Y34300D02*X6495Y34375D01*
X4500Y33674D02*X6675D01*
X34880Y14120D02*X35120Y13880D01*
X34880D02*X35120Y14120D01*
X34880Y12120D02*X35120Y11880D01*
X34880D02*X35120Y12120D01*
X30880Y13120D02*X31120Y12880D01*
X30880D02*X31120Y13120D01*
X86130Y11120D02*X86370Y10880D01*
X86130D02*X86370Y11120D01*
X47130Y9370D02*X47370Y9130D01*
X47130D02*X47370Y9370D01*
X100880Y21870D02*X101120Y21630D01*
X100880D02*X101120Y21870D01*
X91880Y9370D02*X92120Y9130D01*
X91880D02*X92120Y9370D01*
X53130D02*X53370Y9130D01*
X53130D02*X53370Y9370D01*
X15630D02*X15870Y9130D01*
X15630D02*X15870Y9370D01*
X19880D02*X20120Y9130D01*
X19880D02*X20120Y9370D01*
X55880D02*X56120Y9130D01*
X55880D02*X56120Y9370D01*
X95130D02*X95370Y9130D01*
X95130D02*X95370Y9370D01*
X86380Y18120D02*X86620Y17880D01*
X86380D02*X86620Y18120D01*
X86380Y22870D02*X86620Y22630D01*
X86380D02*X86620Y22870D01*
X68130Y9370D02*X68370Y9130D01*
X68130D02*X68370Y9370D01*
X48880Y23120D02*X49120Y22880D01*
X48880D02*X49120Y23120D01*
X104880Y10370D02*X105120Y10130D01*
X104880D02*X105120Y10370D01*
X111630Y17120D02*X111870Y16880D01*
X111630D02*X111870Y17120D01*
X1380Y35995D02*X1620Y35755D01*
X1380D02*X1620Y35995D01*
X13500Y36100D02*Y36025D01*
X13650Y35875D01*
X13800Y36025D01*
Y36100D02*Y36025D01*
X13650Y35875D02*Y35500D01*
X13980Y35800D02*X14205D01*
X13980Y35500D02*X14280D01*
X13980Y36100D02*Y35500D01*
Y36100D02*X14280D01*
X14760D02*X14835Y36025D01*
X14535Y36100D02*X14760D01*
X14460Y36025D02*X14535Y36100D01*
X14460Y36025D02*Y35875D01*
X14535Y35800D01*
X14760D01*
X14835Y35725D01*
Y35575D01*
X14760Y35500D02*X14835Y35575D01*
X14535Y35500D02*X14760D01*
X14460Y35575D02*X14535Y35500D01*
X13500Y35174D02*X15015D01*
X9875Y35500D02*X10025D01*
X9950Y36100D02*Y35500D01*
X9800Y35950D02*X9950Y36100D01*
X10205Y35575D02*X10280Y35500D01*
X10205Y35725D02*Y35575D01*
Y35725D02*X10280Y35800D01*
X10430D01*
X10505Y35725D01*
Y35575D01*
X10430Y35500D02*X10505Y35575D01*
X10280Y35500D02*X10430D01*
X10205Y35875D02*X10280Y35800D01*
X10205Y36025D02*Y35875D01*
Y36025D02*X10280Y36100D01*
X10430D01*
X10505Y36025D01*
Y35875D01*
X10430Y35800D02*X10505Y35875D01*
X9800Y35174D02*X10685D01*
X4500Y35575D02*X4575Y35500D01*
X4500Y36025D02*Y35575D01*
Y36025D02*X4575Y36100D01*
X4725D01*
X4800Y36025D01*
Y35575D01*
X4725Y35500D02*X4800Y35575D01*
X4575Y35500D02*X4725D01*
X4500Y35650D02*X4800Y35950D01*
X4980Y35500D02*X5055D01*
X5235Y35575D02*X5310Y35500D01*
X5235Y36025D02*Y35575D01*
Y36025D02*X5310Y36100D01*
X5460D01*
X5535Y36025D01*
Y35575D01*
X5460Y35500D02*X5535Y35575D01*
X5310Y35500D02*X5460D01*
X5235Y35650D02*X5535Y35950D01*
X5715Y36025D02*X5790Y36100D01*
X5940D01*
X6015Y36025D01*
Y35575D01*
X5940Y35500D02*X6015Y35575D01*
X5790Y35500D02*X5940D01*
X5715Y35575D02*X5790Y35500D01*
Y35800D02*X6015D01*
X6195Y36100D02*X6495D01*
X6195D02*Y35800D01*
X6270Y35875D01*
X6420D01*
X6495Y35800D01*
Y35575D01*
X6420Y35500D02*X6495Y35575D01*
X6270Y35500D02*X6420D01*
X6195Y35575D02*X6270Y35500D01*
X4500Y35174D02*X6675D01*
X109250Y11660D02*Y11340D01*
X109090Y11500D02*X109410D01*
X110250Y11660D02*Y11340D01*
X110090Y11500D02*X110410D01*
X1500Y37535D02*Y37215D01*
X1340Y37375D02*X1660D01*
X13500Y37600D02*Y37525D01*
X13650Y37375D01*
X13800Y37525D01*
Y37600D02*Y37525D01*
X13650Y37375D02*Y37000D01*
X13980Y37300D02*X14205D01*
X13980Y37000D02*X14280D01*
X13980Y37600D02*Y37000D01*
Y37600D02*X14280D01*
X14760D02*X14835Y37525D01*
X14535Y37600D02*X14760D01*
X14460Y37525D02*X14535Y37600D01*
X14460Y37525D02*Y37375D01*
X14535Y37300D01*
X14760D01*
X14835Y37225D01*
Y37075D01*
X14760Y37000D02*X14835Y37075D01*
X14535Y37000D02*X14760D01*
X14460Y37075D02*X14535Y37000D01*
X13500Y36674D02*X15015D01*
X9800Y37525D02*X9875Y37600D01*
X10100D01*
X10175Y37525D01*
Y37375D01*
X9800Y37000D02*X10175Y37375D01*
X9800Y37000D02*X10175D01*
X9800Y36674D02*X10355D01*
X4500Y37075D02*X4575Y37000D01*
X4500Y37525D02*Y37075D01*
Y37525D02*X4575Y37600D01*
X4725D01*
X4800Y37525D01*
Y37075D01*
X4725Y37000D02*X4800Y37075D01*
X4575Y37000D02*X4725D01*
X4500Y37150D02*X4800Y37450D01*
X4980Y37000D02*X5055D01*
X5235Y37075D02*X5310Y37000D01*
X5235Y37525D02*Y37075D01*
Y37525D02*X5310Y37600D01*
X5460D01*
X5535Y37525D01*
Y37075D01*
X5460Y37000D02*X5535Y37075D01*
X5310Y37000D02*X5460D01*
X5235Y37150D02*X5535Y37450D01*
X5715Y37525D02*X5790Y37600D01*
X5940D01*
X6015Y37525D01*
Y37075D01*
X5940Y37000D02*X6015Y37075D01*
X5790Y37000D02*X5940D01*
X5715Y37075D02*X5790Y37000D01*
Y37300D02*X6015D01*
X6195Y37075D02*X6270Y37000D01*
X6195Y37525D02*Y37075D01*
Y37525D02*X6270Y37600D01*
X6420D01*
X6495Y37525D01*
Y37075D01*
X6420Y37000D02*X6495Y37075D01*
X6270Y37000D02*X6420D01*
X6195Y37150D02*X6495Y37450D01*
X4500Y36674D02*X6675D01*
X109250Y20250D02*Y20090D01*
Y20250D02*X109388Y20330D01*
X109250Y20250D02*X109111Y20330D01*
X109250Y19250D02*Y19090D01*
Y19250D02*X109388Y19330D01*
X109250Y19250D02*X109111Y19330D01*
X72500Y14000D02*Y13840D01*
Y14000D02*X72638Y14080D01*
X72500Y14000D02*X72361Y14080D01*
X78100Y10250D02*Y10090D01*
Y10250D02*X78238Y10330D01*
X78100Y10250D02*X77961Y10330D01*
X91000Y11750D02*Y11590D01*
Y11750D02*X91138Y11830D01*
X91000Y11750D02*X90861Y11830D01*
X95250Y19000D02*Y18840D01*
Y19000D02*X95388Y19080D01*
X95250Y19000D02*X95111Y19080D01*
X101750Y21000D02*Y20840D01*
Y21000D02*X101888Y21080D01*
X101750Y21000D02*X101611Y21080D01*
X45750Y18250D02*Y18090D01*
Y18250D02*X45888Y18330D01*
X45750Y18250D02*X45611Y18330D01*
X92500Y21250D02*Y21090D01*
Y21250D02*X92638Y21330D01*
X92500Y21250D02*X92361Y21330D01*
X91500Y12250D02*Y12090D01*
Y12250D02*X91638Y12330D01*
X91500Y12250D02*X91361Y12330D01*
X92500Y18000D02*Y17840D01*
Y18000D02*X92638Y18080D01*
X92500Y18000D02*X92361Y18080D01*
X63750Y20250D02*Y20090D01*
Y20250D02*X63888Y20330D01*
X63750Y20250D02*X63611Y20330D01*
X97750Y12750D02*Y12590D01*
Y12750D02*X97888Y12830D01*
X97750Y12750D02*X97611Y12830D01*
X74500Y16500D02*Y16340D01*
Y16500D02*X74638Y16580D01*
X74500Y16500D02*X74361Y16580D01*
X74500Y21750D02*Y21590D01*
Y21750D02*X74638Y21830D01*
X74500Y21750D02*X74361Y21830D01*
X72500Y16500D02*Y16340D01*
Y16500D02*X72638Y16580D01*
X72500Y16500D02*X72361Y16580D01*
X76900Y9250D02*Y9090D01*
Y9250D02*X77038Y9330D01*
X76900Y9250D02*X76761Y9330D01*
X80250Y11000D02*Y10840D01*
Y11000D02*X80388Y11080D01*
X80250Y11000D02*X80111Y11080D01*
X108750Y20250D02*Y20090D01*
Y20250D02*X108888Y20330D01*
X108750Y20250D02*X108611Y20330D01*
X108750Y19750D02*Y19590D01*
Y19750D02*X108888Y19830D01*
X108750Y19750D02*X108611Y19830D01*
X69250Y8000D02*Y7840D01*
Y8000D02*X69388Y8080D01*
X69250Y8000D02*X69111Y8080D01*
X92000Y12750D02*Y12590D01*
Y12750D02*X92138Y12830D01*
X92000Y12750D02*X91861Y12830D01*
X101750Y14750D02*Y14590D01*
Y14750D02*X101888Y14830D01*
X101750Y14750D02*X101611Y14830D01*
X92000Y20750D02*Y20590D01*
Y20750D02*X92138Y20830D01*
X92000Y20750D02*X91861Y20830D01*
X27500Y6250D02*Y6090D01*
Y6250D02*X27638Y6330D01*
X27500Y6250D02*X27361Y6330D01*
X108750Y19250D02*Y19090D01*
Y19250D02*X108888Y19330D01*
X108750Y19250D02*X108611Y19330D01*
X109250Y19750D02*Y19590D01*
Y19750D02*X109388Y19830D01*
X109250Y19750D02*X109111Y19830D01*
X92000Y17500D02*Y17340D01*
Y17500D02*X92138Y17580D01*
X92000Y17500D02*X91861Y17580D01*
X87000Y11250D02*Y11090D01*
Y11250D02*X87138Y11330D01*
X87000Y11250D02*X86861Y11330D01*
X98000Y10250D02*Y10090D01*
Y10250D02*X98138Y10330D01*
X98000Y10250D02*X97861Y10330D01*
X59000Y10250D02*Y10090D01*
Y10250D02*X59138Y10330D01*
X59000Y10250D02*X58861Y10330D01*
X21500Y10250D02*Y10090D01*
Y10250D02*X21638Y10330D01*
X21500Y10250D02*X21361Y10330D01*
X14750Y15750D02*Y15590D01*
Y15750D02*X14888Y15830D01*
X14750Y15750D02*X14611Y15830D01*
X14750Y16250D02*Y16090D01*
Y16250D02*X14888Y16330D01*
X14750Y16250D02*X14611Y16330D01*
X14750Y16750D02*Y16590D01*
Y16750D02*X14888Y16830D01*
X14750Y16750D02*X14611Y16830D01*
X16000Y23500D02*Y23340D01*
Y23500D02*X16138Y23580D01*
X16000Y23500D02*X15861Y23580D01*
X15500Y22500D02*Y22340D01*
Y22500D02*X15638Y22580D01*
X15500Y22500D02*X15361Y22580D01*
X15000Y23250D02*Y23090D01*
Y23250D02*X15138Y23330D01*
X15000Y23250D02*X14861Y23330D01*
X25000Y25500D02*Y25340D01*
Y25500D02*X25138Y25580D01*
X25000Y25500D02*X24861Y25580D01*
X23000Y15000D02*Y14840D01*
Y15000D02*X23138Y15080D01*
X23000Y15000D02*X22861Y15080D01*
X22250Y14500D02*Y14340D01*
Y14500D02*X22388Y14580D01*
X22250Y14500D02*X22111Y14580D01*
X23750Y14000D02*Y13840D01*
Y14000D02*X23888Y14080D01*
X23750Y14000D02*X23611Y14080D01*
X22250Y17000D02*Y16840D01*
Y17000D02*X22388Y17080D01*
X22250Y17000D02*X22111Y17080D01*
X23000Y17000D02*Y16840D01*
Y17000D02*X23138Y17080D01*
X23000Y17000D02*X22861Y17080D01*
X23750Y17000D02*Y16840D01*
Y17000D02*X23888Y17080D01*
X23750Y17000D02*X23611Y17080D01*
X50000Y6250D02*Y6090D01*
Y6250D02*X50138Y6330D01*
X50000Y6250D02*X49861Y6330D01*
X53500Y15000D02*Y14840D01*
Y15000D02*X53638Y15080D01*
X53500Y15000D02*X53361Y15080D01*
X53000Y14500D02*Y14340D01*
Y14500D02*X53138Y14580D01*
X53000Y14500D02*X52861Y14580D01*
X52500Y14000D02*Y13840D01*
Y14000D02*X52638Y14080D01*
X52500Y14000D02*X52361Y14080D01*
X53500Y17000D02*Y16840D01*
Y17000D02*X53638Y17080D01*
X53500Y17000D02*X53361Y17080D01*
X53000Y17000D02*Y16840D01*
Y17000D02*X53138Y17080D01*
X53000Y17000D02*X52861Y17080D01*
X52500Y17000D02*Y16840D01*
Y17000D02*X52638Y17080D01*
X52500Y17000D02*X52361Y17080D01*
X99500Y6250D02*Y6090D01*
Y6250D02*X99638Y6330D01*
X99500Y6250D02*X99361Y6330D01*
X98500Y6250D02*Y6090D01*
Y6250D02*X98638Y6330D01*
X98500Y6250D02*X98361Y6330D01*
X99000Y6500D02*Y6340D01*
Y6500D02*X99138Y6580D01*
X99000Y6500D02*X98861Y6580D01*
X98750Y16750D02*Y16590D01*
Y16750D02*X98888Y16830D01*
X98750Y16750D02*X98611Y16830D01*
X98250Y16250D02*Y16090D01*
Y16250D02*X98388Y16330D01*
X98250Y16250D02*X98111Y16330D01*
X99000Y12750D02*Y12590D01*
Y12750D02*X99138Y12830D01*
X99000Y12750D02*X98861Y12830D01*
X98500Y12750D02*Y12590D01*
Y12750D02*X98638Y12830D01*
X98500Y12750D02*X98361Y12830D01*
X90500Y16000D02*Y15840D01*
Y16000D02*X90638Y16080D01*
X90500Y16000D02*X90361Y16080D01*
X90750Y16750D02*Y16590D01*
Y16750D02*X90888Y16830D01*
X90750Y16750D02*X90611Y16830D01*
X91000Y16250D02*Y16090D01*
Y16250D02*X91138Y16330D01*
X91000Y16250D02*X90861Y16330D01*
X88000Y11250D02*Y11090D01*
Y11250D02*X88138Y11330D01*
X88000Y11250D02*X87861Y11330D01*
X87500Y11000D02*Y10840D01*
Y11000D02*X87638Y11080D01*
X87500Y11000D02*X87361Y11080D01*
X28000Y6500D02*Y6340D01*
Y6500D02*X28138Y6580D01*
X28000Y6500D02*X27861Y6580D01*
X25000Y9250D02*Y9090D01*
Y9250D02*X25138Y9330D01*
X25000Y9250D02*X24861Y9330D01*
X62500Y25750D02*Y25590D01*
Y25750D02*X62638Y25830D01*
X62500Y25750D02*X62361Y25830D01*
X61750Y14000D02*Y13840D01*
Y14000D02*X61888Y14080D01*
X61750Y14000D02*X61611Y14080D01*
X61250Y13500D02*Y13340D01*
Y13500D02*X61388Y13580D01*
X61250Y13500D02*X61111Y13580D01*
X61750Y13000D02*Y12840D01*
Y13000D02*X61888Y13080D01*
X61750Y13000D02*X61611Y13080D01*
X61250Y16000D02*Y15840D01*
Y16000D02*X61388Y16080D01*
X61250Y16000D02*X61111Y16080D01*
X61750Y16250D02*Y16090D01*
Y16250D02*X61888Y16330D01*
X61750Y16250D02*X61611Y16330D01*
X62250Y16000D02*Y15840D01*
Y16000D02*X62388Y16080D01*
X62250Y16000D02*X62111Y16080D01*
X24250Y13500D02*Y13340D01*
Y13500D02*X24388Y13580D01*
X24250Y13500D02*X24111Y13580D01*
X49500Y19250D02*Y19090D01*
Y19250D02*X49638Y19330D01*
X49500Y19250D02*X49361Y19330D01*
X49500Y11500D02*Y11340D01*
Y11500D02*X49638Y11580D01*
X49500Y11500D02*X49361Y11580D01*
X52500Y11500D02*Y11340D01*
Y11500D02*X52638Y11580D01*
X52500Y11500D02*X52361Y11580D01*
X49000Y21250D02*Y21090D01*
Y21250D02*X49138Y21330D01*
X49000Y21250D02*X48861Y21330D01*
X49000Y12500D02*Y12340D01*
Y12500D02*X49138Y12580D01*
X49000Y12500D02*X48861Y12580D01*
X52500Y12500D02*Y12340D01*
Y12500D02*X52638Y12580D01*
X52500Y12500D02*X52361Y12580D01*
X48500Y20750D02*Y20590D01*
Y20750D02*X48638Y20830D01*
X48500Y20750D02*X48361Y20830D01*
X48500Y14750D02*Y14590D01*
Y14750D02*X48638Y14830D01*
X48500Y14750D02*X48361Y14830D01*
X53000Y12000D02*Y11840D01*
Y12000D02*X53138Y12080D01*
X53000Y12000D02*X52861Y12080D01*
X59250Y12500D02*Y12340D01*
Y12500D02*X59388Y12580D01*
X59250Y12500D02*X59111Y12580D01*
X98500Y11750D02*Y11590D01*
Y11750D02*X98638Y11830D01*
X98500Y11750D02*X98361Y11830D01*
X74500Y12500D02*Y12340D01*
Y12500D02*X74638Y12580D01*
X74500Y12500D02*X74361Y12580D01*
X74000Y14500D02*Y14340D01*
Y14500D02*X74138Y14580D01*
X74000Y14500D02*X73861Y14580D01*
X74000Y16750D02*Y16590D01*
Y16750D02*X74138Y16830D01*
X74000Y16750D02*X73861Y16830D01*
X82000Y13000D02*Y12840D01*
Y13000D02*X82138Y13080D01*
X82000Y13000D02*X81861Y13080D01*
X82000Y22250D02*Y22090D01*
Y22250D02*X82138Y22330D01*
X82000Y22250D02*X81861Y22330D01*
X82000Y18750D02*Y18590D01*
Y18750D02*X82138Y18830D01*
X82000Y18750D02*X81861Y18830D01*
X81500Y13500D02*Y13340D01*
Y13500D02*X81638Y13580D01*
X81500Y13500D02*X81361Y13580D01*
X81500Y18750D02*Y18590D01*
Y18750D02*X81638Y18830D01*
X81500Y18750D02*X81361Y18830D01*
X63750Y18750D02*Y18590D01*
Y18750D02*X63888Y18830D01*
X63750Y18750D02*X63611Y18830D01*
X81000Y12500D02*Y12340D01*
Y12500D02*X81138Y12580D01*
X81000Y12500D02*X80861Y12580D01*
X81000Y18750D02*Y18590D01*
Y18750D02*X81138Y18830D01*
X81000Y18750D02*X80861Y18830D01*
X64250Y18250D02*Y18090D01*
Y18250D02*X64388Y18330D01*
X64250Y18250D02*X64111Y18330D01*
X80500Y21250D02*Y21090D01*
Y21250D02*X80638Y21330D01*
X80500Y21250D02*X80361Y21330D01*
X73500Y15000D02*Y14840D01*
Y15000D02*X73638Y15080D01*
X73500Y15000D02*X73361Y15080D01*
X73500Y16500D02*Y16340D01*
Y16500D02*X73638Y16580D01*
X73500Y16500D02*X73361Y16580D01*
X73500Y20750D02*Y20590D01*
Y20750D02*X73638Y20830D01*
X73500Y20750D02*X73361Y20830D01*
X82500Y12750D02*Y12590D01*
Y12750D02*X82638Y12830D01*
X82500Y12750D02*X82361Y12830D01*
X82500Y18750D02*Y18590D01*
Y18750D02*X82638Y18830D01*
X82500Y18750D02*X82361Y18830D01*
X82500Y19750D02*Y19590D01*
Y19750D02*X82638Y19830D01*
X82500Y19750D02*X82361Y19830D01*
X41000Y18000D02*Y17840D01*
Y18000D02*X41138Y18080D01*
X41000Y18000D02*X40861Y18080D01*
X31000Y9250D02*Y9090D01*
Y9250D02*X31138Y9330D01*
X31000Y9250D02*X30861Y9330D01*
X58750Y19250D02*Y19090D01*
Y19250D02*X58888Y19330D01*
X58750Y19250D02*X58611Y19330D01*
X60500Y18750D02*Y18590D01*
Y18750D02*X60638Y18830D01*
X60500Y18750D02*X60361Y18830D01*
X73000Y16750D02*Y16590D01*
Y16750D02*X73138Y16830D01*
X73000Y16750D02*X72861Y16830D01*
X58250Y18750D02*Y18590D01*
Y18750D02*X58388Y18830D01*
X58250Y18750D02*X58111Y18830D01*
X60750Y18250D02*Y18090D01*
Y18250D02*X60888Y18330D01*
X60750Y18250D02*X60611Y18330D01*
X56250Y11000D02*Y10840D01*
Y11000D02*X56388Y11080D01*
X56250Y11000D02*X56111Y11080D01*
X56250Y18250D02*Y18090D01*
Y18250D02*X56388Y18330D01*
X56250Y18250D02*X56111Y18330D01*
X57000Y17750D02*Y17590D01*
Y17750D02*X57138Y17830D01*
X57000Y17750D02*X56861Y17830D01*
X51000Y6250D02*Y6090D01*
Y6250D02*X51138Y6330D01*
X51000Y6250D02*X50861Y6330D01*
X50500Y6500D02*Y6340D01*
Y6500D02*X50638Y6580D01*
X50500Y6500D02*X50361Y6580D01*
X21000Y19750D02*Y19590D01*
Y19750D02*X21138Y19830D01*
X21000Y19750D02*X20861Y19830D01*
X18250Y18750D02*Y18590D01*
Y18750D02*X18388Y18830D01*
X18250Y18750D02*X18111Y18830D01*
X88000Y22750D02*Y22590D01*
Y22750D02*X88138Y22830D01*
X88000Y22750D02*X87861Y22830D01*
X70750Y11000D02*Y10840D01*
Y11000D02*X70888Y11080D01*
X70750Y11000D02*X70611Y11080D01*
X71000Y13250D02*Y13090D01*
Y13250D02*X71138Y13330D01*
X71000Y13250D02*X70861Y13330D01*
X71500Y12750D02*Y12590D01*
Y12750D02*X71638Y12830D01*
X71500Y12750D02*X71361Y12830D01*
X72000Y11500D02*Y11340D01*
Y11500D02*X72138Y11580D01*
X72000Y11500D02*X71861Y11580D01*
X71000Y10250D02*Y10090D01*
Y10250D02*X71138Y10330D01*
X71000Y10250D02*X70861Y10330D01*
X75000Y10250D02*Y10090D01*
Y10250D02*X75138Y10330D01*
X75000Y10250D02*X74861Y10330D01*
X73750Y11500D02*Y11340D01*
Y11500D02*X73888Y11580D01*
X73750Y11500D02*X73611Y11580D01*
X73750Y13000D02*Y12840D01*
Y13000D02*X73888Y13080D01*
X73750Y13000D02*X73611Y13080D01*
X77250Y8000D02*Y7840D01*
Y8000D02*X77388Y8080D01*
X77250Y8000D02*X77111Y8080D01*
X65500Y12750D02*Y12590D01*
Y12750D02*X65638Y12830D01*
X65500Y12750D02*X65361Y12830D01*
X65750Y11000D02*Y10840D01*
Y11000D02*X65888Y11080D01*
X65750Y11000D02*X65611Y11080D01*
X75000Y13500D02*Y13340D01*
Y13500D02*X75138Y13580D01*
X75000Y13500D02*X74861Y13580D01*
X109750Y19250D02*Y19090D01*
Y19250D02*X109888Y19330D01*
X109750Y19250D02*X109611Y19330D01*
X110250Y20250D02*Y20090D01*
Y20250D02*X110388Y20330D01*
X110250Y20250D02*X110111Y20330D01*
X109750Y20250D02*Y20090D01*
Y20250D02*X109888Y20330D01*
X109750Y20250D02*X109611Y20330D01*
X110250Y19750D02*Y19590D01*
Y19750D02*X110388Y19830D01*
X110250Y19750D02*X110111Y19830D01*
X109750Y19750D02*Y19590D01*
Y19750D02*X109888Y19830D01*
X109750Y19750D02*X109611Y19830D01*
X110750Y20250D02*Y20090D01*
Y20250D02*X110888Y20330D01*
X110750Y20250D02*X110611Y20330D01*
X110750Y19750D02*Y19590D01*
Y19750D02*X110888Y19830D01*
X110750Y19750D02*X110611Y19830D01*
X110750Y19250D02*Y19090D01*
Y19250D02*X110888Y19330D01*
X110750Y19250D02*X110611Y19330D01*
X110250Y19250D02*Y19090D01*
Y19250D02*X110388Y19330D01*
X110250Y19250D02*X110111Y19330D01*
X39500Y4750D02*Y4590D01*
Y4750D02*X39638Y4830D01*
X39500Y4750D02*X39361Y4830D01*
X10000Y11000D02*Y10840D01*
Y11000D02*X10138Y11080D01*
X10000Y11000D02*X9861Y11080D01*
X9750Y11500D02*Y11340D01*
Y11500D02*X9888Y11580D01*
X9750Y11500D02*X9611Y11580D01*
X9500Y12000D02*Y11840D01*
Y12000D02*X9638Y12080D01*
X9500Y12000D02*X9361Y12080D01*
X84750Y9500D02*Y9340D01*
Y9500D02*X84888Y9580D01*
X84750Y9500D02*X84611Y9580D01*
X89500Y24250D02*Y24090D01*
Y24250D02*X89638Y24330D01*
X89500Y24250D02*X89361Y24330D01*
X100500Y6250D02*Y6090D01*
Y6250D02*X100638Y6330D01*
X100500Y6250D02*X100361Y6330D01*
X100000Y6500D02*Y6340D01*
Y6500D02*X100138Y6580D01*
X100000Y6500D02*X99861Y6580D01*
X88000Y6250D02*Y6090D01*
Y6250D02*X88138Y6330D01*
X88000Y6250D02*X87861Y6330D01*
X87500Y6500D02*Y6340D01*
Y6500D02*X87638Y6580D01*
X87500Y6500D02*X87361Y6580D01*
X87000Y6250D02*Y6090D01*
Y6250D02*X87138Y6330D01*
X87000Y6250D02*X86861Y6330D01*
X87000Y4750D02*Y4590D01*
Y4750D02*X87138Y4830D01*
X87000Y4750D02*X86861Y4830D01*
X74000Y6250D02*Y6090D01*
Y6250D02*X74138Y6330D01*
X74000Y6250D02*X73861Y6330D01*
X74000Y4750D02*Y4590D01*
Y4750D02*X74138Y4830D01*
X74000Y4750D02*X73861Y4830D01*
X66250Y4500D02*Y4340D01*
Y4500D02*X66388Y4580D01*
X66250Y4500D02*X66111Y4580D01*
X65750Y4750D02*Y4590D01*
Y4750D02*X65888Y4830D01*
X65750Y4750D02*X65611Y4830D01*
X65250Y4500D02*Y4340D01*
Y4500D02*X65388Y4580D01*
X65250Y4500D02*X65111Y4580D01*
X50500Y2500D02*Y2340D01*
Y2500D02*X50638Y2580D01*
X50500Y2500D02*X50361Y2580D01*
X52000Y4500D02*Y4340D01*
Y4500D02*X52138Y4580D01*
X52000Y4500D02*X51861Y4580D01*
X51500Y4750D02*Y4590D01*
Y4750D02*X51638Y4830D01*
X51500Y4750D02*X51361Y4830D01*
X52000Y6250D02*Y6090D01*
Y6250D02*X52138Y6330D01*
X52000Y6250D02*X51861Y6330D01*
X51500Y6500D02*Y6340D01*
Y6500D02*X51638Y6580D01*
X51500Y6500D02*X51361Y6580D01*
X44500Y6250D02*Y6090D01*
Y6250D02*X44638Y6330D01*
X44500Y6250D02*X44361Y6330D01*
X39500Y6250D02*Y6090D01*
Y6250D02*X39638Y6330D01*
X39500Y6250D02*X39361Y6330D01*
X44500Y4750D02*Y4590D01*
Y4750D02*X44638Y4830D01*
X44500Y4750D02*X44361Y4830D01*
X28500Y6250D02*Y6090D01*
Y6250D02*X28638Y6330D01*
X28500Y6250D02*X28361Y6330D01*
X28500Y4750D02*Y4590D01*
Y4750D02*X28638Y4830D01*
X28500Y4750D02*X28361Y4830D01*
X28000Y4500D02*Y4340D01*
Y4500D02*X28138Y4580D01*
X28000Y4500D02*X27861Y4580D01*
X27500Y4750D02*Y4590D01*
Y4750D02*X27638Y4830D01*
X27500Y4750D02*X27361Y4830D01*
X51000Y3750D02*Y3590D01*
Y3750D02*X51138Y3830D01*
X51000Y3750D02*X50861Y3830D01*
X50000Y3750D02*Y3590D01*
Y3750D02*X50138Y3830D01*
X50000Y3750D02*X49861Y3830D01*
X65250Y6250D02*Y6090D01*
Y6250D02*X65388Y6330D01*
X65250Y6250D02*X65111Y6330D01*
X66250Y6250D02*Y6090D01*
Y6250D02*X66388Y6330D01*
X66250Y6250D02*X66111Y6330D01*
X65750Y6250D02*Y6090D01*
Y6250D02*X65888Y6330D01*
X65750Y6250D02*X65611Y6330D01*
X88000Y4750D02*Y4590D01*
Y4750D02*X88138Y4830D01*
X88000Y4750D02*X87861Y4830D01*
X87500Y4500D02*Y4340D01*
Y4500D02*X87638Y4580D01*
X87500Y4500D02*X87361Y4580D01*
X85750Y6500D02*Y6340D01*
Y6500D02*X85888Y6580D01*
X85750Y6500D02*X85611Y6580D01*
X85250Y6250D02*Y6090D01*
Y6250D02*X85388Y6330D01*
X85250Y6250D02*X85111Y6330D01*
X85750Y4500D02*Y4340D01*
Y4500D02*X85888Y4580D01*
X85750Y4500D02*X85611Y4580D01*
X85250Y4750D02*Y4590D01*
Y4750D02*X85388Y4830D01*
X85250Y4750D02*X85111Y4830D01*
X100500Y4500D02*Y4340D01*
Y4500D02*X100638Y4580D01*
X100500Y4500D02*X100361Y4580D01*
X100000Y5000D02*Y4840D01*
Y5000D02*X100138Y5080D01*
X100000Y5000D02*X99861Y5080D01*
X99500Y4750D02*Y4590D01*
Y4750D02*X99638Y4830D01*
X99500Y4750D02*X99361Y4830D01*
X99000Y4500D02*Y4340D01*
Y4500D02*X99138Y4580D01*
X99000Y4500D02*X98861Y4580D01*
X98500Y4750D02*Y4590D01*
Y4750D02*X98638Y4830D01*
X98500Y4750D02*X98361Y4830D01*
X64250Y22250D02*Y22090D01*
Y22250D02*X64388Y22330D01*
X64250Y22250D02*X64111Y22330D01*
X63750Y21750D02*Y21590D01*
Y21750D02*X63888Y21830D01*
X63750Y21750D02*X63611Y21830D01*
X73000Y14500D02*Y14340D01*
Y14500D02*X73138Y14580D01*
X73000Y14500D02*X72861Y14580D01*
X72500Y11250D02*Y11090D01*
Y11250D02*X72638Y11330D01*
X72500Y11250D02*X72361Y11330D01*
X101750Y12500D02*Y12340D01*
Y12500D02*X101888Y12580D01*
X101750Y12500D02*X101611Y12580D01*
X81500Y11000D02*Y10840D01*
Y11000D02*X81638Y11080D01*
X81500Y11000D02*X81361Y11080D01*
X1500Y38875D02*Y38715D01*
Y38875D02*X1638Y38955D01*
X1500Y38875D02*X1361Y38955D01*
X13500Y39100D02*Y39025D01*
X13650Y38875D01*
X13800Y39025D01*
Y39100D02*Y39025D01*
X13650Y38875D02*Y38500D01*
X13980Y38800D02*X14205D01*
X13980Y38500D02*X14280D01*
X13980Y39100D02*Y38500D01*
Y39100D02*X14280D01*
X14760D02*X14835Y39025D01*
X14535Y39100D02*X14760D01*
X14460Y39025D02*X14535Y39100D01*
X14460Y39025D02*Y38875D01*
X14535Y38800D01*
X14760D01*
X14835Y38725D01*
Y38575D01*
X14760Y38500D02*X14835Y38575D01*
X14535Y38500D02*X14760D01*
X14460Y38575D02*X14535Y38500D01*
X13500Y38174D02*X15015D01*
X9875Y38500D02*X10025D01*
X9950Y39100D02*Y38500D01*
X9800Y38950D02*X9950Y39100D01*
X10205Y38500D02*X10505Y38800D01*
Y39025D02*Y38800D01*
X10430Y39100D02*X10505Y39025D01*
X10280Y39100D02*X10430D01*
X10205Y39025D02*X10280Y39100D01*
X10205Y39025D02*Y38875D01*
X10280Y38800D01*
X10505D01*
X10760Y38500D02*X10910D01*
X10835Y39100D02*Y38500D01*
X10685Y38950D02*X10835Y39100D01*
X9800Y38174D02*X11090D01*
X4500Y38575D02*X4575Y38500D01*
X4500Y39025D02*Y38575D01*
Y39025D02*X4575Y39100D01*
X4725D01*
X4800Y39025D01*
Y38575D01*
X4725Y38500D02*X4800Y38575D01*
X4575Y38500D02*X4725D01*
X4500Y38650D02*X4800Y38950D01*
X4980Y38500D02*X5055D01*
X5235Y38575D02*X5310Y38500D01*
X5235Y39025D02*Y38575D01*
Y39025D02*X5310Y39100D01*
X5460D01*
X5535Y39025D01*
Y38575D01*
X5460Y38500D02*X5535Y38575D01*
X5310Y38500D02*X5460D01*
X5235Y38650D02*X5535Y38950D01*
X5715Y39025D02*X5790Y39100D01*
X6015D01*
X6090Y39025D01*
Y38875D01*
X5715Y38500D02*X6090Y38875D01*
X5715Y38500D02*X6090D01*
X6270Y38575D02*X6345Y38500D01*
X6270Y39025D02*Y38575D01*
Y39025D02*X6345Y39100D01*
X6495D01*
X6570Y39025D01*
Y38575D01*
X6495Y38500D02*X6570Y38575D01*
X6345Y38500D02*X6495D01*
X6270Y38650D02*X6570Y38950D01*
X4500Y38174D02*X6750D01*
X300Y40600D02*X375Y40525D01*
X75Y40600D02*X300D01*
X0Y40525D02*X75Y40600D01*
X0Y40525D02*Y40375D01*
X75Y40300D01*
X300D01*
X375Y40225D01*
Y40075D01*
X300Y40000D02*X375Y40075D01*
X75Y40000D02*X300D01*
X0Y40075D02*X75Y40000D01*
X555Y40300D02*Y40075D01*
X630Y40000D01*
X855Y40300D02*Y39850D01*
X780Y39775D02*X855Y39850D01*
X630Y39775D02*X780D01*
X555Y39850D02*X630Y39775D01*
Y40000D02*X780D01*
X855Y40075D01*
X1110Y40225D02*Y40000D01*
Y40225D02*X1185Y40300D01*
X1260D01*
X1335Y40225D01*
Y40000D01*
Y40225D02*X1410Y40300D01*
X1485D01*
X1560Y40225D01*
Y40000D01*
X1035Y40300D02*X1110Y40225D01*
X1740Y40600D02*Y40000D01*
Y40075D02*X1815Y40000D01*
X1965D01*
X2040Y40075D01*
Y40225D02*Y40075D01*
X1965Y40300D02*X2040Y40225D01*
X1815Y40300D02*X1965D01*
X1740Y40225D02*X1815Y40300D01*
X2220Y40225D02*Y40075D01*
Y40225D02*X2295Y40300D01*
X2445D01*
X2520Y40225D01*
Y40075D01*
X2445Y40000D02*X2520Y40075D01*
X2295Y40000D02*X2445D01*
X2220Y40075D02*X2295Y40000D01*
X2700Y40600D02*Y40075D01*
X2775Y40000D01*
X4175Y40600D02*Y40000D01*
X4400Y40600D02*X4475Y40525D01*
Y40075D01*
X4400Y40000D02*X4475Y40075D01*
X4100Y40000D02*X4400D01*
X4100Y40600D02*X4400D01*
X4655Y40450D02*Y40375D01*
Y40225D02*Y40000D01*
X5030Y40300D02*X5105Y40225D01*
X4880Y40300D02*X5030D01*
X4805Y40225D02*X4880Y40300D01*
X4805Y40225D02*Y40075D01*
X4880Y40000D01*
X5105Y40300D02*Y40075D01*
X5180Y40000D01*
X4880D02*X5030D01*
X5105Y40075D01*
X5435Y40225D02*Y40000D01*
Y40225D02*X5510Y40300D01*
X5585D01*
X5660Y40225D01*
Y40000D01*
Y40225D02*X5735Y40300D01*
X5810D01*
X5885Y40225D01*
Y40000D01*
X5360Y40300D02*X5435Y40225D01*
X6065Y40000D02*X6140D01*
X6590Y40075D02*X6665Y40000D01*
X6590Y40525D02*X6665Y40600D01*
X6590Y40525D02*Y40075D01*
X6845Y40600D02*X6995D01*
X6920D02*Y40000D01*
X6845D02*X6995D01*
X7251Y40225D02*Y40000D01*
Y40225D02*X7326Y40300D01*
X7401D01*
X7476Y40225D01*
Y40000D01*
X7176Y40300D02*X7251Y40225D01*
X7731Y40300D02*X7956D01*
X7656Y40225D02*X7731Y40300D01*
X7656Y40225D02*Y40075D01*
X7731Y40000D01*
X7956D01*
X8136Y40600D02*Y40000D01*
Y40225D02*X8211Y40300D01*
X8361D01*
X8436Y40225D01*
Y40000D01*
X8616Y40600D02*X8691Y40525D01*
Y40075D01*
X8616Y40000D02*X8691Y40075D01*
X9575Y40000D02*X9800D01*
X9500Y40075D02*X9575Y40000D01*
X9500Y40525D02*Y40075D01*
Y40525D02*X9575Y40600D01*
X9800D01*
X9980Y40225D02*Y40075D01*
Y40225D02*X10055Y40300D01*
X10205D01*
X10280Y40225D01*
Y40075D01*
X10205Y40000D02*X10280Y40075D01*
X10055Y40000D02*X10205D01*
X9980Y40075D02*X10055Y40000D01*
X10460Y40300D02*Y40075D01*
X10535Y40000D01*
X10685D01*
X10760Y40075D01*
Y40300D02*Y40075D01*
X11015Y40225D02*Y40000D01*
Y40225D02*X11090Y40300D01*
X11165D01*
X11240Y40225D01*
Y40000D01*
X10940Y40300D02*X11015Y40225D01*
X11495Y40600D02*Y40075D01*
X11570Y40000D01*
X11420Y40375D02*X11570D01*
X13075Y40600D02*Y40000D01*
X13000Y40600D02*X13300D01*
X13375Y40525D01*
Y40375D01*
X13300Y40300D02*X13375Y40375D01*
X13075Y40300D02*X13300D01*
X13555Y40600D02*Y40075D01*
X13630Y40000D01*
X14005Y40300D02*X14080Y40225D01*
X13855Y40300D02*X14005D01*
X13780Y40225D02*X13855Y40300D01*
X13780Y40225D02*Y40075D01*
X13855Y40000D01*
X14080Y40300D02*Y40075D01*
X14155Y40000D01*
X13855D02*X14005D01*
X14080Y40075D01*
X14410Y40600D02*Y40075D01*
X14485Y40000D01*
X14335Y40375D02*X14485D01*
X14710Y40000D02*X14935D01*
X14635Y40075D02*X14710Y40000D01*
X14635Y40225D02*Y40075D01*
Y40225D02*X14710Y40300D01*
X14860D01*
X14935Y40225D01*
X14635Y40150D02*X14935D01*
Y40225D02*Y40150D01*
X15415Y40600D02*Y40000D01*
X15340D02*X15415Y40075D01*
X15190Y40000D02*X15340D01*
X15115Y40075D02*X15190Y40000D01*
X15115Y40225D02*Y40075D01*
Y40225D02*X15190Y40300D01*
X15340D01*
X15415Y40225D01*
X15745Y40300D02*Y40225D01*
Y40075D02*Y40000D01*
X15595Y40525D02*Y40450D01*
Y40525D02*X15670Y40600D01*
X15820D01*
X15895Y40525D01*
Y40450D01*
X15745Y40300D02*X15895Y40450D01*
X0Y42100D02*X300D01*
X150D02*Y41500D01*
X480Y42100D02*Y41500D01*
Y41725D02*X555Y41800D01*
X705D01*
X780Y41725D01*
Y41500D01*
X1035D02*X1260D01*
X960Y41575D02*X1035Y41500D01*
X960Y41725D02*Y41575D01*
Y41725D02*X1035Y41800D01*
X1185D01*
X1260Y41725D01*
X960Y41650D02*X1260D01*
Y41725D02*Y41650D01*
X1515Y41725D02*Y41500D01*
Y41725D02*X1590Y41800D01*
X1740D01*
X1440D02*X1515Y41725D01*
X1995Y41500D02*X2220D01*
X1920Y41575D02*X1995Y41500D01*
X1920Y41725D02*Y41575D01*
Y41725D02*X1995Y41800D01*
X2145D01*
X2220Y41725D01*
X1920Y41650D02*X2220D01*
Y41725D02*Y41650D01*
X2895Y41800D02*X2970Y41725D01*
X2745Y41800D02*X2895D01*
X2670Y41725D02*X2745Y41800D01*
X2670Y41725D02*Y41575D01*
X2745Y41500D01*
X2970Y41800D02*Y41575D01*
X3045Y41500D01*
X2745D02*X2895D01*
X2970Y41575D01*
X3300Y41725D02*Y41500D01*
Y41725D02*X3375Y41800D01*
X3525D01*
X3225D02*X3300Y41725D01*
X3781Y41500D02*X4006D01*
X3706Y41575D02*X3781Y41500D01*
X3706Y41725D02*Y41575D01*
Y41725D02*X3781Y41800D01*
X3931D01*
X4006Y41725D01*
X3706Y41650D02*X4006D01*
Y41725D02*Y41650D01*
X4456Y41575D02*X4531Y41500D01*
X4456Y41725D02*Y41575D01*
Y41725D02*X4531Y41800D01*
X4681D01*
X4756Y41725D01*
Y41575D01*
X4681Y41500D02*X4756Y41575D01*
X4531Y41500D02*X4681D01*
X4456Y41875D02*X4531Y41800D01*
X4456Y42025D02*Y41875D01*
Y42025D02*X4531Y42100D01*
X4681D01*
X4756Y42025D01*
Y41875D01*
X4681Y41800D02*X4756Y41875D01*
X5506Y42100D02*Y41500D01*
X5431D02*X5506Y41575D01*
X5281Y41500D02*X5431D01*
X5206Y41575D02*X5281Y41500D01*
X5206Y41725D02*Y41575D01*
Y41725D02*X5281Y41800D01*
X5431D01*
X5506Y41725D01*
X5686Y41950D02*Y41875D01*
Y41725D02*Y41500D01*
X5911Y42025D02*Y41500D01*
Y42025D02*X5986Y42100D01*
X6061D01*
X5836Y41800D02*X5986D01*
X6286Y42025D02*Y41500D01*
Y42025D02*X6361Y42100D01*
X6436D01*
X6211Y41800D02*X6361D01*
X6661Y41500D02*X6886D01*
X6586Y41575D02*X6661Y41500D01*
X6586Y41725D02*Y41575D01*
Y41725D02*X6661Y41800D01*
X6811D01*
X6886Y41725D01*
X6586Y41650D02*X6886D01*
Y41725D02*Y41650D01*
X7142Y41725D02*Y41500D01*
Y41725D02*X7217Y41800D01*
X7367D01*
X7067D02*X7142Y41725D01*
X7622Y41500D02*X7847D01*
X7547Y41575D02*X7622Y41500D01*
X7547Y41725D02*Y41575D01*
Y41725D02*X7622Y41800D01*
X7772D01*
X7847Y41725D01*
X7547Y41650D02*X7847D01*
Y41725D02*Y41650D01*
X8102Y41725D02*Y41500D01*
Y41725D02*X8177Y41800D01*
X8252D01*
X8327Y41725D01*
Y41500D01*
X8027Y41800D02*X8102Y41725D01*
X8582Y42100D02*Y41575D01*
X8657Y41500D01*
X8507Y41875D02*X8657D01*
X9377Y42100D02*Y41500D01*
X9302D02*X9377Y41575D01*
X9152Y41500D02*X9302D01*
X9077Y41575D02*X9152Y41500D01*
X9077Y41725D02*Y41575D01*
Y41725D02*X9152Y41800D01*
X9302D01*
X9377Y41725D01*
X9632D02*Y41500D01*
Y41725D02*X9707Y41800D01*
X9857D01*
X9557D02*X9632Y41725D01*
X10038Y41950D02*Y41875D01*
Y41725D02*Y41500D01*
X10188Y42100D02*Y41575D01*
X10263Y41500D01*
X10413Y42100D02*Y41575D01*
X10488Y41500D01*
X10983D02*X11208D01*
X11283Y41575D01*
X11208Y41650D02*X11283Y41575D01*
X10983Y41650D02*X11208D01*
X10908Y41725D02*X10983Y41650D01*
X10908Y41725D02*X10983Y41800D01*
X11208D01*
X11283Y41725D01*
X10908Y41575D02*X10983Y41500D01*
X11463Y41950D02*Y41875D01*
Y41725D02*Y41500D01*
X11613Y41800D02*X11913D01*
X11613Y41500D02*X11913Y41800D01*
X11613Y41500D02*X11913D01*
X12168D02*X12393D01*
X12093Y41575D02*X12168Y41500D01*
X12093Y41725D02*Y41575D01*
Y41725D02*X12168Y41800D01*
X12318D01*
X12393Y41725D01*
X12093Y41650D02*X12393D01*
Y41725D02*Y41650D01*
X12649Y41500D02*X12874D01*
X12949Y41575D01*
X12874Y41650D02*X12949Y41575D01*
X12649Y41650D02*X12874D01*
X12574Y41725D02*X12649Y41650D01*
X12574Y41725D02*X12649Y41800D01*
X12874D01*
X12949Y41725D01*
X12574Y41575D02*X12649Y41500D01*
X13399Y41800D02*Y41575D01*
X13474Y41500D01*
X13624D01*
X13699Y41575D01*
Y41800D02*Y41575D01*
X13954Y41500D02*X14179D01*
X14254Y41575D01*
X14179Y41650D02*X14254Y41575D01*
X13954Y41650D02*X14179D01*
X13879Y41725D02*X13954Y41650D01*
X13879Y41725D02*X13954Y41800D01*
X14179D01*
X14254Y41725D01*
X13879Y41575D02*X13954Y41500D01*
X14509D02*X14734D01*
X14434Y41575D02*X14509Y41500D01*
X14434Y41725D02*Y41575D01*
Y41725D02*X14509Y41800D01*
X14659D01*
X14734Y41725D01*
X14434Y41650D02*X14734D01*
Y41725D02*Y41650D01*
X15214Y42100D02*Y41500D01*
X15139D02*X15214Y41575D01*
X14989Y41500D02*X15139D01*
X14914Y41575D02*X14989Y41500D01*
X14914Y41725D02*Y41575D01*
Y41725D02*X14989Y41800D01*
X15139D01*
X15214Y41725D01*
X15664Y41950D02*Y41875D01*
Y41725D02*Y41500D01*
X15889Y41725D02*Y41500D01*
Y41725D02*X15964Y41800D01*
X16039D01*
X16114Y41725D01*
Y41500D01*
X15814Y41800D02*X15889Y41725D01*
X16640Y42100D02*Y41575D01*
X16715Y41500D01*
X16565Y41875D02*X16715D01*
X16865Y42100D02*Y41500D01*
Y41725D02*X16940Y41800D01*
X17090D01*
X17165Y41725D01*
Y41500D01*
X17345Y41950D02*Y41875D01*
Y41725D02*Y41500D01*
X17570D02*X17795D01*
X17870Y41575D01*
X17795Y41650D02*X17870Y41575D01*
X17570Y41650D02*X17795D01*
X17495Y41725D02*X17570Y41650D01*
X17495Y41725D02*X17570Y41800D01*
X17795D01*
X17870Y41725D01*
X17495Y41575D02*X17570Y41500D01*
X18320Y42100D02*Y41575D01*
X18395Y41500D01*
X18770Y41800D02*X18845Y41725D01*
X18620Y41800D02*X18770D01*
X18545Y41725D02*X18620Y41800D01*
X18545Y41725D02*Y41575D01*
X18620Y41500D01*
X18845Y41800D02*Y41575D01*
X18920Y41500D01*
X18620D02*X18770D01*
X18845Y41575D01*
X19101Y41800D02*Y41575D01*
X19176Y41500D01*
X19401Y41800D02*Y41350D01*
X19326Y41275D02*X19401Y41350D01*
X19176Y41275D02*X19326D01*
X19101Y41350D02*X19176Y41275D01*
Y41500D02*X19326D01*
X19401Y41575D01*
X19581Y41725D02*Y41575D01*
Y41725D02*X19656Y41800D01*
X19806D01*
X19881Y41725D01*
Y41575D01*
X19806Y41500D02*X19881Y41575D01*
X19656Y41500D02*X19806D01*
X19581Y41575D02*X19656Y41500D01*
X20061Y41800D02*Y41575D01*
X20136Y41500D01*
X20286D01*
X20361Y41575D01*
Y41800D02*Y41575D01*
X20616Y42100D02*Y41575D01*
X20691Y41500D01*
X20541Y41875D02*X20691D01*
X20841Y41350D02*X20991Y41500D01*
X21441Y42025D02*X21516Y42100D01*
X21666D01*
X21741Y42025D01*
Y41575D01*
X21666Y41500D02*X21741Y41575D01*
X21516Y41500D02*X21666D01*
X21441Y41575D02*X21516Y41500D01*
Y41800D02*X21741D01*
X21996Y41500D02*X22146D01*
X22071Y42100D02*Y41500D01*
X21921Y41950D02*X22071Y42100D01*
X22327Y41500D02*X22702Y41875D01*
Y42100D02*Y41875D01*
X22327Y42100D02*X22702D01*
X23152D02*Y41500D01*
Y41725D02*X23227Y41800D01*
X23377D01*
X23452Y41725D01*
Y41500D01*
X23632Y41725D02*Y41575D01*
Y41725D02*X23707Y41800D01*
X23857D01*
X23932Y41725D01*
Y41575D01*
X23857Y41500D02*X23932Y41575D01*
X23707Y41500D02*X23857D01*
X23632Y41575D02*X23707Y41500D01*
X24112Y42100D02*Y41575D01*
X24187Y41500D01*
X24412D02*X24637D01*
X24337Y41575D02*X24412Y41500D01*
X24337Y41725D02*Y41575D01*
Y41725D02*X24412Y41800D01*
X24562D01*
X24637Y41725D01*
X24337Y41650D02*X24637D01*
Y41725D02*Y41650D01*
X24892Y41500D02*X25117D01*
X25192Y41575D01*
X25117Y41650D02*X25192Y41575D01*
X24892Y41650D02*X25117D01*
X24817Y41725D02*X24892Y41650D01*
X24817Y41725D02*X24892Y41800D01*
X25117D01*
X25192Y41725D01*
X24817Y41575D02*X24892Y41500D01*
X25717Y42100D02*Y41575D01*
X25792Y41500D01*
X25642Y41875D02*X25792D01*
X25943Y41725D02*Y41575D01*
Y41725D02*X26018Y41800D01*
X26168D01*
X26243Y41725D01*
Y41575D01*
X26168Y41500D02*X26243Y41575D01*
X26018Y41500D02*X26168D01*
X25943Y41575D02*X26018Y41500D01*
X26498Y42100D02*Y41575D01*
X26573Y41500D01*
X26423Y41875D02*X26573D01*
X26948Y41800D02*X27023Y41725D01*
X26798Y41800D02*X26948D01*
X26723Y41725D02*X26798Y41800D01*
X26723Y41725D02*Y41575D01*
X26798Y41500D01*
X27023Y41800D02*Y41575D01*
X27098Y41500D01*
X26798D02*X26948D01*
X27023Y41575D01*
X27278Y42100D02*Y41575D01*
X27353Y41500D01*
X0Y27250D02*X112500D01*
X0D02*Y0D01*
X112500Y27250D02*Y0D01*
X0D02*X112500D01*
X20000Y28600D02*Y28000D01*
Y28600D02*X20225Y28375D01*
X20450Y28600D01*
Y28000D01*
X20855Y28300D02*X20930Y28225D01*
X20705Y28300D02*X20855D01*
X20630Y28225D02*X20705Y28300D01*
X20630Y28225D02*Y28075D01*
X20705Y28000D01*
X20930Y28300D02*Y28075D01*
X21005Y28000D01*
X20705D02*X20855D01*
X20930Y28075D01*
X21185Y28300D02*X21485Y28000D01*
X21185D02*X21485Y28300D01*
X21665Y28450D02*Y28375D01*
Y28225D02*Y28000D01*
X21890Y28225D02*Y28000D01*
Y28225D02*X21965Y28300D01*
X22040D01*
X22115Y28225D01*
Y28000D01*
Y28225D02*X22190Y28300D01*
X22265D01*
X22340Y28225D01*
Y28000D01*
X21815Y28300D02*X21890Y28225D01*
X22520Y28300D02*Y28075D01*
X22595Y28000D01*
X22745D01*
X22820Y28075D01*
Y28300D02*Y28075D01*
X23075Y28225D02*Y28000D01*
Y28225D02*X23150Y28300D01*
X23225D01*
X23300Y28225D01*
Y28000D01*
Y28225D02*X23375Y28300D01*
X23450D01*
X23525Y28225D01*
Y28000D01*
X23000Y28300D02*X23075Y28225D01*
X24051Y28600D02*Y28000D01*
X24276Y28600D02*X24351Y28525D01*
Y28075D01*
X24276Y28000D02*X24351Y28075D01*
X23976Y28000D02*X24276D01*
X23976Y28600D02*X24276D01*
X24531Y28450D02*Y28375D01*
Y28225D02*Y28000D01*
X24756Y28225D02*Y28000D01*
Y28225D02*X24831Y28300D01*
X24906D01*
X24981Y28225D01*
Y28000D01*
Y28225D02*X25056Y28300D01*
X25131D01*
X25206Y28225D01*
Y28000D01*
X24681Y28300D02*X24756Y28225D01*
X25461Y28000D02*X25686D01*
X25386Y28075D02*X25461Y28000D01*
X25386Y28225D02*Y28075D01*
Y28225D02*X25461Y28300D01*
X25611D01*
X25686Y28225D01*
X25386Y28150D02*X25686D01*
Y28225D02*Y28150D01*
X25941Y28225D02*Y28000D01*
Y28225D02*X26016Y28300D01*
X26091D01*
X26166Y28225D01*
Y28000D01*
X25866Y28300D02*X25941Y28225D01*
X26421Y28000D02*X26646D01*
X26721Y28075D01*
X26646Y28150D02*X26721Y28075D01*
X26421Y28150D02*X26646D01*
X26346Y28225D02*X26421Y28150D01*
X26346Y28225D02*X26421Y28300D01*
X26646D01*
X26721Y28225D01*
X26346Y28075D02*X26421Y28000D01*
X26901Y28450D02*Y28375D01*
Y28225D02*Y28000D01*
X27052Y28225D02*Y28075D01*
Y28225D02*X27127Y28300D01*
X27277D01*
X27352Y28225D01*
Y28075D01*
X27277Y28000D02*X27352Y28075D01*
X27127Y28000D02*X27277D01*
X27052Y28075D02*X27127Y28000D01*
X27607Y28225D02*Y28000D01*
Y28225D02*X27682Y28300D01*
X27757D01*
X27832Y28225D01*
Y28000D01*
X27532Y28300D02*X27607Y28225D01*
X28087Y28000D02*X28312D01*
X28387Y28075D01*
X28312Y28150D02*X28387Y28075D01*
X28087Y28150D02*X28312D01*
X28012Y28225D02*X28087Y28150D01*
X28012Y28225D02*X28087Y28300D01*
X28312D01*
X28387Y28225D01*
X28012Y28075D02*X28087Y28000D01*
X28567Y28375D02*X28642D01*
X28567Y28225D02*X28642D01*
X29167Y28000D02*X29317D01*
X29242Y28600D02*Y28000D01*
X29092Y28450D02*X29242Y28600D01*
X29572Y28000D02*X29722D01*
X29647Y28600D02*Y28000D01*
X29497Y28450D02*X29647Y28600D01*
X29903Y28525D02*X29978Y28600D01*
X30203D01*
X30278Y28525D01*
Y28375D01*
X29903Y28000D02*X30278Y28375D01*
X29903Y28000D02*X30278D01*
X30458Y28600D02*X30758D01*
X30458D02*Y28300D01*
X30533Y28375D01*
X30683D01*
X30758Y28300D01*
Y28075D01*
X30683Y28000D02*X30758Y28075D01*
X30533Y28000D02*X30683D01*
X30458Y28075D02*X30533Y28000D01*
X30938Y28075D02*X31013Y28000D01*
X30938Y28525D02*Y28075D01*
Y28525D02*X31013Y28600D01*
X31163D01*
X31238Y28525D01*
Y28075D01*
X31163Y28000D02*X31238Y28075D01*
X31013Y28000D02*X31163D01*
X30938Y28150D02*X31238Y28450D01*
X31763Y28225D02*Y28000D01*
Y28225D02*X31838Y28300D01*
X31913D01*
X31988Y28225D01*
Y28000D01*
Y28225D02*X32063Y28300D01*
X32138D01*
X32213Y28225D01*
Y28000D01*
X31688Y28300D02*X31763Y28225D01*
X32393Y28450D02*Y28375D01*
Y28225D02*Y28000D01*
X32543Y28600D02*Y28075D01*
X32618Y28000D01*
X32843D02*X33068D01*
X33143Y28075D01*
X33068Y28150D02*X33143Y28075D01*
X32843Y28150D02*X33068D01*
X32768Y28225D02*X32843Y28150D01*
X32768Y28225D02*X32843Y28300D01*
X33068D01*
X33143Y28225D01*
X32768Y28075D02*X32843Y28000D01*
X33594Y28300D02*Y28075D01*
X33669Y28000D01*
X33744D01*
X33819Y28075D01*
Y28300D02*Y28075D01*
X33894Y28000D01*
X33969D01*
X34044Y28075D01*
Y28300D02*Y28075D01*
X34224Y28450D02*Y28375D01*
Y28225D02*Y28000D01*
X34674Y28600D02*Y28000D01*
X34599D02*X34674Y28075D01*
X34449Y28000D02*X34599D01*
X34374Y28075D02*X34449Y28000D01*
X34374Y28225D02*Y28075D01*
Y28225D02*X34449Y28300D01*
X34599D01*
X34674Y28225D01*
X34929Y28000D02*X35154D01*
X34854Y28075D02*X34929Y28000D01*
X34854Y28225D02*Y28075D01*
Y28225D02*X34929Y28300D01*
X35079D01*
X35154Y28225D01*
X34854Y28150D02*X35154D01*
Y28225D02*Y28150D01*
X35334Y27850D02*X35484Y28000D01*
X35934Y28525D02*X36009Y28600D01*
X36234D01*
X36309Y28525D01*
Y28375D01*
X35934Y28000D02*X36309Y28375D01*
X35934Y28000D02*X36309D01*
X36489D02*X36864Y28375D01*
Y28600D02*Y28375D01*
X36489Y28600D02*X36864D01*
X37045Y28525D02*X37120Y28600D01*
X37345D01*
X37420Y28525D01*
Y28375D01*
X37045Y28000D02*X37420Y28375D01*
X37045Y28000D02*X37420D01*
X37600Y28600D02*X37900D01*
X37600D02*Y28300D01*
X37675Y28375D01*
X37825D01*
X37900Y28300D01*
Y28075D01*
X37825Y28000D02*X37900Y28075D01*
X37675Y28000D02*X37825D01*
X37600Y28075D02*X37675Y28000D01*
X38425Y28225D02*Y28000D01*
Y28225D02*X38500Y28300D01*
X38575D01*
X38650Y28225D01*
Y28000D01*
Y28225D02*X38725Y28300D01*
X38800D01*
X38875Y28225D01*
Y28000D01*
X38350Y28300D02*X38425Y28225D01*
X39055Y28450D02*Y28375D01*
Y28225D02*Y28000D01*
X39205Y28600D02*Y28075D01*
X39280Y28000D01*
X39505D02*X39730D01*
X39805Y28075D01*
X39730Y28150D02*X39805Y28075D01*
X39505Y28150D02*X39730D01*
X39430Y28225D02*X39505Y28150D01*
X39430Y28225D02*X39505Y28300D01*
X39730D01*
X39805Y28225D01*
X39430Y28075D02*X39505Y28000D01*
X40256Y28600D02*Y28000D01*
Y28225D02*X40331Y28300D01*
X40481D01*
X40556Y28225D01*
Y28000D01*
X40736Y28450D02*Y28375D01*
Y28225D02*Y28000D01*
X41111Y28300D02*X41186Y28225D01*
X40961Y28300D02*X41111D01*
X40886Y28225D02*X40961Y28300D01*
X40886Y28225D02*Y28075D01*
X40961Y28000D01*
X41111D01*
X41186Y28075D01*
X40886Y27850D02*X40961Y27775D01*
X41111D01*
X41186Y27850D01*
Y28300D02*Y27850D01*
X41366Y28600D02*Y28000D01*
Y28225D02*X41441Y28300D01*
X41591D01*
X41666Y28225D01*
Y28000D01*
X40157Y-950D02*X40457D01*
X40532Y-875D01*
Y-725D02*Y-875D01*
X40457Y-650D02*X40532Y-725D01*
X40232Y-650D02*X40457D01*
X40232Y-350D02*Y-950D01*
X40157Y-350D02*X40457D01*
X40532Y-425D01*
Y-575D01*
X40457Y-650D02*X40532Y-575D01*
X40712Y-725D02*Y-875D01*
Y-725D02*X40787Y-650D01*
X40937D01*
X41012Y-725D01*
Y-875D01*
X40937Y-950D02*X41012Y-875D01*
X40787Y-950D02*X40937D01*
X40712Y-875D02*X40787Y-950D01*
X41417Y-650D02*X41492Y-725D01*
X41267Y-650D02*X41417D01*
X41192Y-725D02*X41267Y-650D01*
X41192Y-725D02*Y-875D01*
X41267Y-950D01*
X41492Y-650D02*Y-875D01*
X41567Y-950D01*
X41267D02*X41417D01*
X41492Y-875D01*
X41822Y-725D02*Y-950D01*
Y-725D02*X41897Y-650D01*
X42047D01*
X41747D02*X41822Y-725D01*
X42528Y-350D02*Y-950D01*
X42453D02*X42528Y-875D01*
X42303Y-950D02*X42453D01*
X42228Y-875D02*X42303Y-950D01*
X42228Y-725D02*Y-875D01*
Y-725D02*X42303Y-650D01*
X42453D01*
X42528Y-725D01*
X42978D02*Y-875D01*
Y-725D02*X43053Y-650D01*
X43203D01*
X43278Y-725D01*
Y-875D01*
X43203Y-950D02*X43278Y-875D01*
X43053Y-950D02*X43203D01*
X42978Y-875D02*X43053Y-950D01*
X43458Y-650D02*Y-875D01*
X43533Y-950D01*
X43683D01*
X43758Y-875D01*
Y-650D02*Y-875D01*
X44013Y-350D02*Y-875D01*
X44088Y-950D01*
X43938Y-575D02*X44088D01*
X44238Y-350D02*Y-875D01*
X44313Y-950D01*
X44463Y-500D02*Y-575D01*
Y-725D02*Y-950D01*
X44689Y-725D02*Y-950D01*
Y-725D02*X44764Y-650D01*
X44839D01*
X44914Y-725D01*
Y-950D01*
X44614Y-650D02*X44689Y-725D01*
X45169Y-950D02*X45394D01*
X45094Y-875D02*X45169Y-950D01*
X45094Y-725D02*Y-875D01*
Y-725D02*X45169Y-650D01*
X45319D01*
X45394Y-725D01*
X45094Y-800D02*X45394D01*
Y-725D02*Y-800D01*
X45844Y-500D02*Y-575D01*
Y-725D02*Y-950D01*
X46069D02*X46294D01*
X46369Y-875D01*
X46294Y-800D02*X46369Y-875D01*
X46069Y-800D02*X46294D01*
X45994Y-725D02*X46069Y-800D01*
X45994Y-725D02*X46069Y-650D01*
X46294D01*
X46369Y-725D01*
X45994Y-875D02*X46069Y-950D01*
X46894Y-350D02*Y-875D01*
X46969Y-950D01*
X46819Y-575D02*X46969D01*
X47119Y-350D02*Y-950D01*
Y-725D02*X47194Y-650D01*
X47344D01*
X47419Y-725D01*
Y-950D01*
X47674D02*X47899D01*
X47599Y-875D02*X47674Y-950D01*
X47599Y-725D02*Y-875D01*
Y-725D02*X47674Y-650D01*
X47824D01*
X47899Y-725D01*
X47599Y-800D02*X47899D01*
Y-725D02*Y-800D01*
X48425Y-650D02*X48650D01*
X48350Y-725D02*X48425Y-650D01*
X48350Y-725D02*Y-875D01*
X48425Y-950D01*
X48650D01*
X48905D02*X49130D01*
X48830Y-875D02*X48905Y-950D01*
X48830Y-725D02*Y-875D01*
Y-725D02*X48905Y-650D01*
X49055D01*
X49130Y-725D01*
X48830Y-800D02*X49130D01*
Y-725D02*Y-800D01*
X49385Y-725D02*Y-950D01*
Y-725D02*X49460Y-650D01*
X49535D01*
X49610Y-725D01*
Y-950D01*
X49310Y-650D02*X49385Y-725D01*
X49865Y-350D02*Y-875D01*
X49940Y-950D01*
X49790Y-575D02*X49940D01*
X50165Y-950D02*X50390D01*
X50090Y-875D02*X50165Y-950D01*
X50090Y-725D02*Y-875D01*
Y-725D02*X50165Y-650D01*
X50315D01*
X50390Y-725D01*
X50090Y-800D02*X50390D01*
Y-725D02*Y-800D01*
X50645Y-725D02*Y-950D01*
Y-725D02*X50720Y-650D01*
X50870D01*
X50570D02*X50645Y-725D01*
X51050Y-350D02*Y-875D01*
X51125Y-950D01*
X51276Y-500D02*Y-575D01*
Y-725D02*Y-950D01*
X51501Y-725D02*Y-950D01*
Y-725D02*X51576Y-650D01*
X51651D01*
X51726Y-725D01*
Y-950D01*
X51426Y-650D02*X51501Y-725D01*
X51981Y-950D02*X52206D01*
X51906Y-875D02*X51981Y-950D01*
X51906Y-725D02*Y-875D01*
Y-725D02*X51981Y-650D01*
X52131D01*
X52206Y-725D01*
X51906Y-800D02*X52206D01*
Y-725D02*Y-800D01*
X52656Y-725D02*Y-875D01*
Y-725D02*X52731Y-650D01*
X52881D01*
X52956Y-725D01*
Y-875D01*
X52881Y-950D02*X52956Y-875D01*
X52731Y-950D02*X52881D01*
X52656Y-875D02*X52731Y-950D01*
X53211Y-425D02*Y-950D01*
Y-425D02*X53286Y-350D01*
X53361D01*
X53136Y-650D02*X53286D01*
X53856Y-350D02*Y-875D01*
X53931Y-950D01*
X53781Y-575D02*X53931D01*
X54082Y-350D02*Y-950D01*
Y-725D02*X54157Y-650D01*
X54307D01*
X54382Y-725D01*
Y-950D01*
X54562Y-500D02*Y-575D01*
Y-725D02*Y-950D01*
X54787D02*X55012D01*
X55087Y-875D01*
X55012Y-800D02*X55087Y-875D01*
X54787Y-800D02*X55012D01*
X54712Y-725D02*X54787Y-800D01*
X54712Y-725D02*X54787Y-650D01*
X55012D01*
X55087Y-725D01*
X54712Y-875D02*X54787Y-950D01*
X55612D02*X55762D01*
X55687Y-350D02*Y-950D01*
X55537Y-500D02*X55687Y-350D01*
X55942Y-875D02*X56017Y-950D01*
X55942Y-425D02*Y-875D01*
Y-425D02*X56017Y-350D01*
X56167D01*
X56242Y-425D01*
Y-875D01*
X56167Y-950D02*X56242Y-875D01*
X56017Y-950D02*X56167D01*
X55942Y-800D02*X56242Y-500D01*
X56767Y-725D02*Y-950D01*
Y-725D02*X56842Y-650D01*
X56917D01*
X56992Y-725D01*
Y-950D01*
Y-725D02*X57067Y-650D01*
X57142D01*
X57217Y-725D01*
Y-950D01*
X56692Y-650D02*X56767Y-725D01*
X57397Y-500D02*Y-575D01*
Y-725D02*Y-950D01*
X57548Y-350D02*Y-875D01*
X57623Y-950D01*
X58118Y-725D02*Y-950D01*
Y-725D02*X58193Y-650D01*
X58343D01*
X58043D02*X58118Y-725D01*
X58598Y-950D02*X58823D01*
X58523Y-875D02*X58598Y-950D01*
X58523Y-725D02*Y-875D01*
Y-725D02*X58598Y-650D01*
X58748D01*
X58823Y-725D01*
X58523Y-800D02*X58823D01*
Y-725D02*Y-800D01*
X59078Y-650D02*X59303D01*
X59003Y-725D02*X59078Y-650D01*
X59003Y-725D02*Y-875D01*
X59078Y-950D01*
X59303D01*
X59558Y-350D02*Y-875D01*
X59633Y-950D01*
X59483Y-575D02*X59633D01*
X60008Y-650D02*X60083Y-725D01*
X59858Y-650D02*X60008D01*
X59783Y-725D02*X59858Y-650D01*
X59783Y-725D02*Y-875D01*
X59858Y-950D01*
X60083Y-650D02*Y-875D01*
X60158Y-950D01*
X59858D02*X60008D01*
X60083Y-875D01*
X60413Y-725D02*Y-950D01*
Y-725D02*X60488Y-650D01*
X60563D01*
X60638Y-725D01*
Y-950D01*
X60338Y-650D02*X60413Y-725D01*
X61044Y-650D02*X61119Y-725D01*
X60894Y-650D02*X61044D01*
X60819Y-725D02*X60894Y-650D01*
X60819Y-725D02*Y-875D01*
X60894Y-950D01*
X61044D01*
X61119Y-875D01*
X60819Y-1100D02*X60894Y-1175D01*
X61044D01*
X61119Y-1100D01*
Y-650D02*Y-1100D01*
X61299Y-350D02*Y-875D01*
X61374Y-950D01*
X61599D02*X61824D01*
X61524Y-875D02*X61599Y-950D01*
X61524Y-725D02*Y-875D01*
Y-725D02*X61599Y-650D01*
X61749D01*
X61824Y-725D01*
X61524Y-800D02*X61824D01*
Y-725D02*Y-800D01*
X62274Y-650D02*X62574D01*
X63024Y-875D02*X63099Y-950D01*
X63024Y-425D02*Y-875D01*
Y-425D02*X63099Y-350D01*
X63249D01*
X63324Y-425D01*
Y-875D01*
X63249Y-950D02*X63324Y-875D01*
X63099Y-950D02*X63249D01*
X63024Y-800D02*X63324Y-500D01*
X63504Y-1100D02*X63654Y-950D01*
X63835Y-875D02*X63910Y-950D01*
X63835Y-425D02*Y-875D01*
Y-425D02*X63910Y-350D01*
X64060D01*
X64135Y-425D01*
Y-875D01*
X64060Y-950D02*X64135Y-875D01*
X63910Y-950D02*X64060D01*
X63835Y-800D02*X64135Y-500D01*
X64660Y-350D02*Y-875D01*
X64735Y-950D01*
X64585Y-575D02*X64735D01*
X64885Y-725D02*Y-875D01*
Y-725D02*X64960Y-650D01*
X65110D01*
X65185Y-725D01*
Y-875D01*
X65110Y-950D02*X65185Y-875D01*
X64960Y-950D02*X65110D01*
X64885Y-875D02*X64960Y-950D01*
X65710D02*X65860D01*
X65785Y-350D02*Y-950D01*
X65635Y-500D02*X65785Y-350D01*
X66115Y-950D02*X66265D01*
X66190Y-350D02*Y-950D01*
X66040Y-500D02*X66190Y-350D01*
X66445Y-425D02*X66520Y-350D01*
X66745D01*
X66820Y-425D01*
Y-575D01*
X66445Y-950D02*X66820Y-575D01*
X66445Y-950D02*X66820D01*
X67000Y-350D02*X67300D01*
X67000D02*Y-650D01*
X67075Y-575D01*
X67225D01*
X67300Y-650D01*
Y-875D01*
X67225Y-950D02*X67300Y-875D01*
X67075Y-950D02*X67225D01*
X67000Y-875D02*X67075Y-950D01*
X67481Y-875D02*X67556Y-950D01*
X67481Y-425D02*Y-875D01*
Y-425D02*X67556Y-350D01*
X67706D01*
X67781Y-425D01*
Y-875D01*
X67706Y-950D02*X67781Y-875D01*
X67556Y-950D02*X67706D01*
X67481Y-800D02*X67781Y-500D01*
X67961Y-1100D02*X68111Y-950D01*
X68291Y-425D02*X68366Y-350D01*
X68591D01*
X68666Y-425D01*
Y-575D01*
X68291Y-950D02*X68666Y-575D01*
X68291Y-950D02*X68666D01*
X68846D02*X69221Y-575D01*
Y-350D02*Y-575D01*
X68846Y-350D02*X69221D01*
X69401Y-425D02*X69476Y-350D01*
X69701D01*
X69776Y-425D01*
Y-575D01*
X69401Y-950D02*X69776Y-575D01*
X69401Y-950D02*X69776D01*
X69956Y-350D02*X70256D01*
X69956D02*Y-650D01*
X70031Y-575D01*
X70181D01*
X70256Y-650D01*
Y-875D01*
X70181Y-950D02*X70256Y-875D01*
X70031Y-950D02*X70181D01*
X69956Y-875D02*X70031Y-950D01*
X70781Y-725D02*Y-950D01*
Y-725D02*X70856Y-650D01*
X70931D01*
X71006Y-725D01*
Y-950D01*
Y-725D02*X71081Y-650D01*
X71156D01*
X71231Y-725D01*
Y-950D01*
X70706Y-650D02*X70781Y-725D01*
X71412Y-500D02*Y-575D01*
Y-725D02*Y-950D01*
X71562Y-350D02*Y-875D01*
X71637Y-950D01*
X71862D02*X72087D01*
X72162Y-875D01*
X72087Y-800D02*X72162Y-875D01*
X71862Y-800D02*X72087D01*
X71787Y-725D02*X71862Y-800D01*
X71787Y-725D02*X71862Y-650D01*
X72087D01*
X72162Y-725D01*
X71787Y-875D02*X71862Y-950D01*
X20075Y30100D02*Y29500D01*
X20300Y30100D02*X20375Y30025D01*
Y29575D01*
X20300Y29500D02*X20375Y29575D01*
X20000Y29500D02*X20300D01*
X20000Y30100D02*X20300D01*
X20780Y29800D02*X20855Y29725D01*
X20630Y29800D02*X20780D01*
X20555Y29725D02*X20630Y29800D01*
X20555Y29725D02*Y29575D01*
X20630Y29500D01*
X20855Y29800D02*Y29575D01*
X20930Y29500D01*
X20630D02*X20780D01*
X20855Y29575D01*
X21185Y30100D02*Y29575D01*
X21260Y29500D01*
X21110Y29875D02*X21260D01*
X21485Y29500D02*X21710D01*
X21410Y29575D02*X21485Y29500D01*
X21410Y29725D02*Y29575D01*
Y29725D02*X21485Y29800D01*
X21635D01*
X21710Y29725D01*
X21410Y29650D02*X21710D01*
Y29725D02*Y29650D01*
X21890Y29875D02*X21965D01*
X21890Y29725D02*X21965D01*
X22415Y30100D02*Y29500D01*
X22640Y29725D01*
X22865Y29500D01*
Y30100D02*Y29500D01*
X23120D02*X23345D01*
X23045Y29575D02*X23120Y29500D01*
X23045Y29725D02*Y29575D01*
Y29725D02*X23120Y29800D01*
X23270D01*
X23345Y29725D01*
X23045Y29650D02*X23345D01*
Y29725D02*Y29650D01*
X23826Y30100D02*Y29500D01*
X23751D02*X23826Y29575D01*
X23601Y29500D02*X23751D01*
X23526Y29575D02*X23601Y29500D01*
X23526Y29725D02*Y29575D01*
Y29725D02*X23601Y29800D01*
X23751D01*
X23826Y29725D01*
X24276Y30100D02*X24501D01*
Y29575D01*
X24426Y29500D02*X24501Y29575D01*
X24351Y29500D02*X24426D01*
X24276Y29575D02*X24351Y29500D01*
X24681Y29800D02*Y29575D01*
X24756Y29500D01*
X24906D01*
X24981Y29575D01*
Y29800D02*Y29575D01*
X25236Y29725D02*Y29500D01*
Y29725D02*X25311Y29800D01*
X25386D01*
X25461Y29725D01*
Y29500D01*
X25161Y29800D02*X25236Y29725D01*
X26181Y29800D02*X26481Y30100D01*
X26181Y29800D02*X26556D01*
X26481Y30100D02*Y29500D01*
X27006Y30025D02*X27081Y30100D01*
X27306D01*
X27381Y30025D01*
Y29875D01*
X27006Y29500D02*X27381Y29875D01*
X27006Y29500D02*X27381D01*
X27561Y30025D02*X27636Y30100D01*
X27786D01*
X27861Y30025D01*
Y29575D01*
X27786Y29500D02*X27861Y29575D01*
X27636Y29500D02*X27786D01*
X27561Y29575D02*X27636Y29500D01*
Y29800D02*X27861D01*
X28042Y29875D02*X28117D01*
X28042Y29725D02*X28117D01*
X28297Y30025D02*X28372Y30100D01*
X28522D01*
X28597Y30025D01*
Y29575D01*
X28522Y29500D02*X28597Y29575D01*
X28372Y29500D02*X28522D01*
X28297Y29575D02*X28372Y29500D01*
Y29800D02*X28597D01*
X28777Y30100D02*X29077D01*
X28777D02*Y29800D01*
X28852Y29875D01*
X29002D01*
X29077Y29800D01*
Y29575D01*
X29002Y29500D02*X29077Y29575D01*
X28852Y29500D02*X29002D01*
X28777Y29575D02*X28852Y29500D01*
X29257Y29875D02*X29332D01*
X29257Y29725D02*X29332D01*
X29512Y30025D02*X29587Y30100D01*
X29737D01*
X29812Y30025D01*
Y29575D01*
X29737Y29500D02*X29812Y29575D01*
X29587Y29500D02*X29737D01*
X29512Y29575D02*X29587Y29500D01*
Y29800D02*X29812D01*
X29992Y29500D02*X30367Y29875D01*
Y30100D02*Y29875D01*
X29992Y30100D02*X30367D01*
X30818Y30025D02*X30893Y30100D01*
X31118D01*
X31193Y30025D01*
Y29875D01*
X30818Y29500D02*X31193Y29875D01*
X30818Y29500D02*X31193D01*
X31373Y29575D02*X31448Y29500D01*
X31373Y30025D02*Y29575D01*
Y30025D02*X31448Y30100D01*
X31598D01*
X31673Y30025D01*
Y29575D01*
X31598Y29500D02*X31673Y29575D01*
X31448Y29500D02*X31598D01*
X31373Y29650D02*X31673Y29950D01*
X31853Y29575D02*X31928Y29500D01*
X31853Y30025D02*Y29575D01*
Y30025D02*X31928Y30100D01*
X32078D01*
X32153Y30025D01*
Y29575D01*
X32078Y29500D02*X32153Y29575D01*
X31928Y29500D02*X32078D01*
X31853Y29650D02*X32153Y29950D01*
X32333Y29575D02*X32408Y29500D01*
X32333Y29725D02*Y29575D01*
Y29725D02*X32408Y29800D01*
X32558D01*
X32633Y29725D01*
Y29575D01*
X32558Y29500D02*X32633Y29575D01*
X32408Y29500D02*X32558D01*
X32333Y29875D02*X32408Y29800D01*
X32333Y30025D02*Y29875D01*
Y30025D02*X32408Y30100D01*
X32558D01*
X32633Y30025D01*
Y29875D01*
X32558Y29800D02*X32633Y29875D01*
X33083Y30100D02*Y29575D01*
X33158Y29500D01*
X33308D01*
X33383Y29575D01*
Y30100D02*Y29575D01*
X33563Y30100D02*X33863D01*
X33713D02*Y29500D01*
X34118D02*X34343D01*
X34043Y29575D02*X34118Y29500D01*
X34043Y30025D02*Y29575D01*
Y30025D02*X34118Y30100D01*
X34343D01*
X20000Y31525D02*Y31000D01*
Y31525D02*X20075Y31600D01*
X20300D01*
X20375Y31525D01*
Y31000D01*
X20000Y31300D02*X20375D01*
X20555D02*Y31075D01*
X20630Y31000D01*
X20780D01*
X20855Y31075D01*
Y31300D02*Y31075D01*
X21110Y31600D02*Y31075D01*
X21185Y31000D01*
X21035Y31375D02*X21185D01*
X21335Y31600D02*Y31000D01*
Y31225D02*X21410Y31300D01*
X21560D01*
X21635Y31225D01*
Y31000D01*
X21815Y31225D02*Y31075D01*
Y31225D02*X21890Y31300D01*
X22040D01*
X22115Y31225D01*
Y31075D01*
X22040Y31000D02*X22115Y31075D01*
X21890Y31000D02*X22040D01*
X21815Y31075D02*X21890Y31000D01*
X22370Y31225D02*Y31000D01*
Y31225D02*X22445Y31300D01*
X22595D01*
X22295D02*X22370Y31225D01*
X22775Y31375D02*X22850D01*
X22775Y31225D02*X22850D01*
X23376Y31600D02*Y31000D01*
X23301Y31600D02*X23601D01*
X23676Y31525D01*
Y31375D01*
X23601Y31300D02*X23676Y31375D01*
X23376Y31300D02*X23601D01*
X23931Y31000D02*X24156D01*
X23856Y31075D02*X23931Y31000D01*
X23856Y31225D02*Y31075D01*
Y31225D02*X23931Y31300D01*
X24081D01*
X24156Y31225D01*
X23856Y31150D02*X24156D01*
Y31225D02*Y31150D01*
X24411Y31600D02*Y31075D01*
X24486Y31000D01*
X24336Y31375D02*X24486D01*
X24711Y31000D02*X24936D01*
X24636Y31075D02*X24711Y31000D01*
X24636Y31225D02*Y31075D01*
Y31225D02*X24711Y31300D01*
X24861D01*
X24936Y31225D01*
X24636Y31150D02*X24936D01*
Y31225D02*Y31150D01*
X25191Y31225D02*Y31000D01*
Y31225D02*X25266Y31300D01*
X25416D01*
X25116D02*X25191Y31225D01*
X25866Y31600D02*X26166D01*
X26016D02*Y31000D01*
X26346Y31225D02*Y31075D01*
Y31225D02*X26421Y31300D01*
X26571D01*
X26646Y31225D01*
Y31075D01*
X26571Y31000D02*X26646Y31075D01*
X26421Y31000D02*X26571D01*
X26346Y31075D02*X26421Y31000D01*
X27127Y31600D02*Y31000D01*
X27052D02*X27127Y31075D01*
X26902Y31000D02*X27052D01*
X26827Y31075D02*X26902Y31000D01*
X26827Y31225D02*Y31075D01*
Y31225D02*X26902Y31300D01*
X27052D01*
X27127Y31225D01*
X27607Y31600D02*Y31000D01*
X27532D02*X27607Y31075D01*
X27382Y31000D02*X27532D01*
X27307Y31075D02*X27382Y31000D01*
X27307Y31225D02*Y31075D01*
Y31225D02*X27382Y31300D01*
X27532D01*
X27607Y31225D01*
X20000Y33100D02*X20300D01*
X20150D02*Y32500D01*
X20480Y32950D02*Y32875D01*
Y32725D02*Y32500D01*
X20705Y33100D02*Y32575D01*
X20780Y32500D01*
X20630Y32875D02*X20780D01*
X20930Y33100D02*Y32575D01*
X21005Y32500D01*
X21230D02*X21455D01*
X21155Y32575D02*X21230Y32500D01*
X21155Y32725D02*Y32575D01*
Y32725D02*X21230Y32800D01*
X21380D01*
X21455Y32725D01*
X21155Y32650D02*X21455D01*
Y32725D02*Y32650D01*
X21635Y32875D02*X21710D01*
X21635Y32725D02*X21710D01*
X22160Y32575D02*X22235Y32500D01*
X22160Y33025D02*X22235Y33100D01*
X22160Y33025D02*Y32575D01*
X22416Y32800D02*Y32575D01*
X22491Y32500D01*
X22641D01*
X22716Y32575D01*
Y32800D02*Y32575D01*
X22971Y32725D02*Y32500D01*
Y32725D02*X23046Y32800D01*
X23121D01*
X23196Y32725D01*
Y32500D01*
X22896Y32800D02*X22971Y32725D01*
X23376Y33100D02*Y32500D01*
Y32725D02*X23601Y32500D01*
X23376Y32725D02*X23526Y32875D01*
X23856Y32725D02*Y32500D01*
Y32725D02*X23931Y32800D01*
X24006D01*
X24081Y32725D01*
Y32500D01*
X23781Y32800D02*X23856Y32725D01*
X24261D02*Y32575D01*
Y32725D02*X24336Y32800D01*
X24486D01*
X24561Y32725D01*
Y32575D01*
X24486Y32500D02*X24561Y32575D01*
X24336Y32500D02*X24486D01*
X24261Y32575D02*X24336Y32500D01*
X24741Y32800D02*Y32575D01*
X24816Y32500D01*
X24891D01*
X24966Y32575D01*
Y32800D02*Y32575D01*
X25041Y32500D01*
X25116D01*
X25191Y32575D01*
Y32800D02*Y32575D01*
X25446Y32725D02*Y32500D01*
Y32725D02*X25521Y32800D01*
X25596D01*
X25671Y32725D01*
Y32500D01*
X25371Y32800D02*X25446Y32725D01*
X25852Y33100D02*X25927Y33025D01*
Y32575D01*
X25852Y32500D02*X25927Y32575D01*
X26377Y32800D02*X26677D01*
X27127Y33100D02*Y32500D01*
Y33100D02*X27427D01*
X27127Y32800D02*X27352D01*
X27832D02*X27907Y32725D01*
X27682Y32800D02*X27832D01*
X27607Y32725D02*X27682Y32800D01*
X27607Y32725D02*Y32575D01*
X27682Y32500D01*
X27907Y32800D02*Y32575D01*
X27982Y32500D01*
X27682D02*X27832D01*
X27907Y32575D01*
X28162Y33100D02*Y32500D01*
Y32575D02*X28237Y32500D01*
X28387D01*
X28462Y32575D01*
Y32725D02*Y32575D01*
X28387Y32800D02*X28462Y32725D01*
X28237Y32800D02*X28387D01*
X28162Y32725D02*X28237Y32800D01*
X28717Y32725D02*Y32500D01*
Y32725D02*X28792Y32800D01*
X28942D01*
X28642D02*X28717Y32725D01*
X29123Y32950D02*Y32875D01*
Y32725D02*Y32500D01*
X29348Y32800D02*X29573D01*
X29273Y32725D02*X29348Y32800D01*
X29273Y32725D02*Y32575D01*
X29348Y32500D01*
X29573D01*
X29978Y32800D02*X30053Y32725D01*
X29828Y32800D02*X29978D01*
X29753Y32725D02*X29828Y32800D01*
X29753Y32725D02*Y32575D01*
X29828Y32500D01*
X30053Y32800D02*Y32575D01*
X30128Y32500D01*
X29828D02*X29978D01*
X30053Y32575D01*
X30383Y33100D02*Y32575D01*
X30458Y32500D01*
X30308Y32875D02*X30458D01*
X30608Y32950D02*Y32875D01*
Y32725D02*Y32500D01*
X30758Y32725D02*Y32575D01*
Y32725D02*X30833Y32800D01*
X30983D01*
X31058Y32725D01*
Y32575D01*
X30983Y32500D02*X31058Y32575D01*
X30833Y32500D02*X30983D01*
X30758Y32575D02*X30833Y32500D01*
X31313Y32725D02*Y32500D01*
Y32725D02*X31388Y32800D01*
X31463D01*
X31538Y32725D01*
Y32500D01*
X31238Y32800D02*X31313Y32725D01*
X32064Y33100D02*Y32500D01*
X32289Y33100D02*X32364Y33025D01*
Y32575D01*
X32289Y32500D02*X32364Y32575D01*
X31989Y32500D02*X32289D01*
X31989Y33100D02*X32289D01*
X32619Y32725D02*Y32500D01*
Y32725D02*X32694Y32800D01*
X32844D01*
X32544D02*X32619Y32725D01*
X33249Y32800D02*X33324Y32725D01*
X33099Y32800D02*X33249D01*
X33024Y32725D02*X33099Y32800D01*
X33024Y32725D02*Y32575D01*
X33099Y32500D01*
X33324Y32800D02*Y32575D01*
X33399Y32500D01*
X33099D02*X33249D01*
X33324Y32575D01*
X33579Y32800D02*Y32575D01*
X33654Y32500D01*
X33729D01*
X33804Y32575D01*
Y32800D02*Y32575D01*
X33879Y32500D01*
X33954D01*
X34029Y32575D01*
Y32800D02*Y32575D01*
X34209Y32950D02*Y32875D01*
Y32725D02*Y32500D01*
X34434Y32725D02*Y32500D01*
Y32725D02*X34509Y32800D01*
X34584D01*
X34659Y32725D01*
Y32500D01*
X34359Y32800D02*X34434Y32725D01*
X35064Y32800D02*X35139Y32725D01*
X34914Y32800D02*X35064D01*
X34839Y32725D02*X34914Y32800D01*
X34839Y32725D02*Y32575D01*
X34914Y32500D01*
X35064D01*
X35139Y32575D01*
X34839Y32350D02*X34914Y32275D01*
X35064D01*
X35139Y32350D01*
Y32800D02*Y32350D01*
M02*
