M48
INCH,TZ
T11C0.042
T12C0.030
T13C0.125
T14C0.052
T15C0.038
T16C0.035
T17C0.086
T18C0.020
%
T18
X110750Y019750
X110750Y019250
X110750Y020250
X110250Y019250
X110250Y019750
X110250Y020250
X109750Y019250
X109750Y019750
X109750Y020250
X109250Y019250
X109250Y020250
X108750Y019250
X108750Y019750
X109250Y019750
X108750Y020250
X100500Y004500
X100000Y005000
X100500Y006250
X100000Y006500
X099500Y006250
X099500Y004750
X099000Y004500
X099000Y006500
X098500Y004750
X098500Y006250
X101750Y021000
X095250Y019000
X092000Y020750
X098500Y011750
X101750Y014750
X099000Y012750
X098750Y016750
X098500Y012750
X098250Y016250
X092000Y017500
X101750Y012500
X097750Y012750
X098000Y010250
X092000Y012750
X091500Y012250
X091000Y011750
X091000Y016250
X090500Y016000
X087500Y004500
X088000Y006250
X088000Y004750
X087500Y006500
X087000Y006250
X087000Y004750
X085750Y004500
X085750Y006500
X085250Y004750
X085250Y006250
X081500Y013500
X088000Y011250
X087500Y011000
X087000Y011250
X082000Y013000
X082500Y012750
X081000Y012500
X084750Y009500
X081500Y011000
X080250Y011000
X082000Y018750
X081500Y018750
X082500Y018750
X081000Y018750
X078100Y010250
X076900Y009250
X077250Y008000
X075000Y010250
X074000Y006250
X074000Y004750
X073500Y016500
X073000Y016750
X074500Y012500
X073750Y011500
X073750Y013000
X072500Y011250
X074000Y014500
X075000Y013500
X073500Y015000
X073000Y014500
X072500Y014000
X088000Y022750
X089500Y024250
X082500Y019750
X082000Y022250
X092500Y021250
X080500Y021250
X092500Y018000
X090750Y016750
X074500Y016500
X074000Y016750
X072500Y016500
X071500Y012750
X071000Y013250
X072000Y011500
X070750Y011000
X071000Y010250
X069250Y008000
X066250Y004500
X066250Y006250
X065750Y004750
X065750Y006250
X065750Y011000
X065500Y012750
X065250Y004500
X065250Y006250
X064250Y018250
X063750Y018750
X074500Y021750
X073500Y020750
X064250Y022250
X063750Y020250
X063750Y021750
X062500Y025750
X061750Y013000
X061750Y014000
X061750Y016250
X061250Y013500
X062250Y016000
X061250Y016000
X060750Y018250
X060500Y018750
X059250Y012500
X058750Y019250
X058250Y018750
X057000Y017750
X056250Y018250
X059000Y010250
X056250Y011000
X053500Y015000
X053500Y017000
X053000Y014500
X053000Y017000
X052500Y014000
X052500Y017000
X052500Y011500
X052500Y012500
X049500Y011500
X053000Y012000
X049000Y012500
X049500Y019250
X049000Y021250
X048500Y014750
X048500Y020750
X051500Y006500
X052000Y004500
X052000Y006250
X051500Y004750
X051000Y003750
X050500Y002500
X051000Y006250
X050500Y006500
X050000Y006250
X045750Y018250
X041000Y018000
X050000Y003750
X044500Y006250
X039500Y004750
X044500Y004750
X039500Y006250
X025000Y025500
X016000Y023500
X015500Y022500
X021000Y019750
X015000Y023250
X018250Y018750
X014750Y015750
X014750Y016250
X014750Y016750
X031000Y009250
X028500Y004750
X028500Y006250
X028000Y004500
X028000Y006500
X027500Y004750
X024250Y013500
X023750Y014000
X023000Y015000
X023000Y017000
X022250Y014500
X023750Y017000
X022250Y017000
X027500Y006250
X025000Y009250
X021500Y010250
X010000Y011000
X009750Y011500
X009500Y012000
T12
X109250Y011500
X110250Y011500
T16
X035000Y014000
X035000Y012000
X031000Y013000
X111750Y017000
X105000Y010250
X101000Y021750
X095250Y009250
X092000Y009250
X086250Y011000
X086500Y018000
X086500Y022750
X068250Y009250
X056000Y009250
X049000Y023000
X053250Y009250
X047250Y009250
X020000Y009250
X015750Y009250
T15
X083750Y013500
X083750Y014500
X083750Y015500
X083750Y016500
X083750Y012500
X083750Y011500
T11
X107000Y014250
X107000Y009250
X106000Y005250
X105225Y001730
X104225Y001730
X103225Y001730
X103000Y011250
X102225Y001730
X105500Y007750
X101225Y001730
X105225Y025400
X104225Y025400
X103225Y025400
X102225Y025400
X101225Y025400
X097250Y024750
X094513Y024734
X092742Y024734
X086455Y025400
X085455Y025400
X084455Y025400
X083455Y025400
X082455Y025400
X084455Y001730
X086455Y001730
X083455Y001730
X085455Y001730
X082455Y001730
X080250Y007750
X073000Y004250
X078250Y007500
X073000Y006500
X064250Y012000
X064250Y013250
X064250Y014500
X067685Y025400
X066685Y025400
X065685Y025400
X064685Y025400
X063685Y025400
X059750Y024750
X057263Y024734
X055492Y024734
X048915Y025400
X047915Y025400
X046915Y025400
X045915Y025400
X044915Y025400
X065685Y001730
X066685Y001730
X064685Y001730
X067685Y001730
X063685Y001730
X048915Y001730
X047915Y001730
X046915Y001730
X045915Y001730
X044500Y003500
X039500Y003500
X044915Y001730
X030145Y001730
X029145Y001730
X028145Y001730
X027145Y001730
X026145Y001730
X061000Y011750
X035000Y017000
X030145Y025400
X029145Y025400
X028145Y025400
X027145Y025400
X026145Y025400
X025500Y013500
X023250Y012500
X022000Y024750
X019513Y024734
X017742Y024734
X014500Y012000
X014500Y013000
X014500Y014000
X011375Y001730
X011375Y025400
X010375Y025400
X009375Y025400
X008375Y025400
X007375Y025400
X009375Y001730
X010375Y001730
X008375Y001730
X007375Y001730
T14
X095005Y023750
X092250Y023750
X057755Y023750
X055000Y023750
X020005Y023750
X017250Y023750
T17
X047261Y012500
X039387Y012500
T13
X102250Y007250
X008750Y007250
M30
