G04 start of page 7 for group -4079 idx -4079
G04 Title: (unknown), topsilk *
G04 Creator: pcb-bin 20060822 *
G04 CreationDate: Wed Jun  4 23:35:37 2008 UTC *
G04 For: pete *
G04 Format: Gerber/RS-274X *
G04 PCB-Dimensions: 1125000 272500 *
G04 PCB-Coordinate-Origin: lower left *
%MOIN*%
%FSLAX24Y24*%
%LNFRONTSILK*%
%ADD11C,0.0100*%
G54D11*X108360Y22090D02*X107210Y15250D01*
X101170Y22090D02*X108360D01*
X100060Y15250D02*X101170Y22090D01*
X100060Y15250D02*X107210D01*
X106610Y11830D02*X105460Y5090D01*
X99570Y11830D02*X106610D01*
X98330Y5090D02*X99570Y11830D01*
X98330Y5090D02*X105460D01*
X93845Y-110D02*X112605D01*
Y27240D02*Y-110D01*
X93845Y27240D02*X112605D01*
X93845D02*Y-110D01*
X89590Y22090D02*X88440Y15250D01*
X82400Y22090D02*X89590D01*
X81290Y15250D02*X82400Y22090D01*
X81290Y15250D02*X88440D01*
X87840Y11830D02*X86690Y5090D01*
X80800Y11830D02*X87840D01*
X79560Y5090D02*X80800Y11830D01*
X79560Y5090D02*X86690D01*
X75075Y-110D02*X93835D01*
Y27240D02*Y-110D01*
X75075Y27240D02*X93835D01*
X75075D02*Y-110D01*
X60550Y5040D02*X61700Y11880D01*
X67740Y5040D02*X60550D01*
X68850Y11880D02*X67740Y5040D01*
X61700Y11880D02*X68850D01*
X62300Y15300D02*X63450Y22040D01*
X69340Y15300D02*X62300D01*
X70580Y22040D02*X69340Y15300D01*
X63450Y22040D02*X70580D01*
X56305Y27240D02*X75065D01*
X56305Y-110D02*Y27240D01*
X75065Y-110D02*X56305D01*
X75065Y27240D02*Y-110D01*
X52050Y22090D02*X50900Y15250D01*
X44860Y22090D02*X52050D01*
X43750Y15250D02*X44860Y22090D01*
X43750Y15250D02*X50900D01*
X50300Y11830D02*X49150Y5090D01*
X43260Y11830D02*X50300D01*
X42020Y5090D02*X43260Y11830D01*
X42020Y5090D02*X49150D01*
X37535Y-110D02*X56295D01*
Y27240D02*Y-110D01*
X37535Y27240D02*X56295D01*
X37535D02*Y-110D01*
X23010Y5040D02*X24160Y11880D01*
X30200Y5040D02*X23010D01*
X31310Y11880D02*X30200Y5040D01*
X24160Y11880D02*X31310D01*
X24760Y15300D02*X25910Y22040D01*
X31800Y15300D02*X24760D01*
X33040Y22040D02*X31800Y15300D01*
X25910Y22040D02*X33040D01*
X18765Y27240D02*X37525D01*
X18765Y-110D02*Y27240D01*
X37525Y-110D02*X18765D01*
X37525Y27240D02*Y-110D01*
X4240Y5040D02*X5390Y11880D01*
X11430Y5040D02*X4240D01*
X12540Y11880D02*X11430Y5040D01*
X5390Y11880D02*X12540D01*
X5990Y15300D02*X7140Y22040D01*
X13030Y15300D02*X5990D01*
X14270Y22040D02*X13030Y15300D01*
X7140Y22040D02*X14270D01*
X-5Y27240D02*X18755D01*
X-5Y-110D02*Y27240D01*
X18755Y-110D02*X-5D01*
X18755Y27240D02*Y-110D01*
X101600Y24650D02*Y24250D01*
X101800D01*
X101920Y24450D02*X102070D01*
X101920Y24250D02*X102120D01*
X101920Y24650D02*Y24250D01*
Y24650D02*X102120D01*
X102290D02*Y24250D01*
X102440Y24650D02*X102490Y24600D01*
Y24300D01*
X102440Y24250D02*X102490Y24300D01*
X102240Y24250D02*X102440D01*
X102240Y24650D02*X102440D01*
X102660Y24250D02*X102760D01*
X102710Y24650D02*Y24250D01*
X102610Y24550D02*X102710Y24650D01*
X102880Y24300D02*X102930Y24250D01*
X102880Y24600D02*Y24300D01*
Y24600D02*X102930Y24650D01*
X103030D01*
X103080Y24600D01*
Y24300D01*
X103030Y24250D02*X103080Y24300D01*
X102930Y24250D02*X103030D01*
X102880Y24350D02*X103080Y24550D01*
X103350Y24650D02*X103400Y24600D01*
X103250Y24650D02*X103350D01*
X103200Y24600D02*X103250Y24650D01*
X103200Y24600D02*Y24300D01*
X103250Y24250D01*
X103350Y24450D02*X103400Y24400D01*
X103200Y24450D02*X103350D01*
X103250Y24250D02*X103350D01*
X103400Y24300D01*
Y24400D02*Y24300D01*
X82080Y24650D02*Y24250D01*
X82280D01*
X82400Y24450D02*X82550D01*
X82400Y24250D02*X82600D01*
X82400Y24650D02*Y24250D01*
Y24650D02*X82600D01*
X82770D02*Y24250D01*
X82920Y24650D02*X82970Y24600D01*
Y24300D01*
X82920Y24250D02*X82970Y24300D01*
X82720Y24250D02*X82920D01*
X82720Y24650D02*X82920D01*
X83140Y24250D02*X83240D01*
X83190Y24650D02*Y24250D01*
X83090Y24550D02*X83190Y24650D01*
X83360Y24300D02*X83410Y24250D01*
X83360Y24600D02*Y24300D01*
Y24600D02*X83410Y24650D01*
X83510D01*
X83560Y24600D01*
Y24300D01*
X83510Y24250D02*X83560Y24300D01*
X83410Y24250D02*X83510D01*
X83360Y24350D02*X83560Y24550D01*
X83680Y24650D02*X83880D01*
X83680D02*Y24450D01*
X83730Y24500D01*
X83830D01*
X83880Y24450D01*
Y24300D01*
X83830Y24250D02*X83880Y24300D01*
X83730Y24250D02*X83830D01*
X83680Y24300D02*X83730Y24250D01*
X63310Y24650D02*Y24250D01*
X63510D01*
X63630Y24450D02*X63780D01*
X63630Y24250D02*X63830D01*
X63630Y24650D02*Y24250D01*
Y24650D02*X63830D01*
X64000D02*Y24250D01*
X64150Y24650D02*X64200Y24600D01*
Y24300D01*
X64150Y24250D02*X64200Y24300D01*
X63950Y24250D02*X64150D01*
X63950Y24650D02*X64150D01*
X64370Y24250D02*X64470D01*
X64420Y24650D02*Y24250D01*
X64320Y24550D02*X64420Y24650D01*
X64590Y24300D02*X64640Y24250D01*
X64590Y24600D02*Y24300D01*
Y24600D02*X64640Y24650D01*
X64740D01*
X64790Y24600D01*
Y24300D01*
X64740Y24250D02*X64790Y24300D01*
X64640Y24250D02*X64740D01*
X64590Y24350D02*X64790Y24550D01*
X64910Y24450D02*X65110Y24650D01*
X64910Y24450D02*X65160D01*
X65110Y24650D02*Y24250D01*
X26020Y24650D02*Y24250D01*
X26220D01*
X26340Y24450D02*X26490D01*
X26340Y24250D02*X26540D01*
X26340Y24650D02*Y24250D01*
Y24650D02*X26540D01*
X26710D02*Y24250D01*
X26860Y24650D02*X26910Y24600D01*
Y24300D01*
X26860Y24250D02*X26910Y24300D01*
X26660Y24250D02*X26860D01*
X26660Y24650D02*X26860D01*
X27080Y24250D02*X27180D01*
X27130Y24650D02*Y24250D01*
X27030Y24550D02*X27130Y24650D01*
X27300Y24300D02*X27350Y24250D01*
X27300Y24600D02*Y24300D01*
Y24600D02*X27350Y24650D01*
X27450D01*
X27500Y24600D01*
Y24300D01*
X27450Y24250D02*X27500Y24300D01*
X27350Y24250D02*X27450D01*
X27300Y24350D02*X27500Y24550D01*
X27620Y24600D02*X27670Y24650D01*
X27820D01*
X27870Y24600D01*
Y24500D01*
X27620Y24250D02*X27870Y24500D01*
X27620Y24250D02*X27870D01*
X2375Y25300D02*Y24900D01*
X2575D01*
X2695Y25100D02*X2845D01*
X2695Y24900D02*X2895D01*
X2695Y25300D02*Y24900D01*
Y25300D02*X2895D01*
X3065D02*Y24900D01*
X3215Y25300D02*X3265Y25250D01*
Y24950D01*
X3215Y24900D02*X3265Y24950D01*
X3015Y24900D02*X3215D01*
X3015Y25300D02*X3215D01*
X3435Y24900D02*X3535D01*
X3485Y25300D02*Y24900D01*
X3385Y25200D02*X3485Y25300D01*
X3655Y24950D02*X3705Y24900D01*
X3655Y25250D02*Y24950D01*
Y25250D02*X3705Y25300D01*
X3805D01*
X3855Y25250D01*
Y24950D01*
X3805Y24900D02*X3855Y24950D01*
X3705Y24900D02*X3805D01*
X3655Y25000D02*X3855Y25200D01*
X4025Y24900D02*X4125D01*
X4075Y25300D02*Y24900D01*
X3975Y25200D02*X4075Y25300D01*
M02*
