G04 start of page 5 for group -4062 idx -4062
G04 Title: (unknown), soldermask *
G04 Creator: pcb-bin 20060822 *
G04 CreationDate: Wed Jun  4 23:35:37 2008 UTC *
G04 For: pete *
G04 Format: Gerber/RS-274X *
G04 PCB-Dimensions: 1125000 272500 *
G04 PCB-Coordinate-Origin: lower left *
%MOIN*%
%FSLAX24Y24*%
%LNBACKMASK*%
%ADD11R,0.0860X0.0860*%
%ADD12C,0.0860*%
%ADD13R,0.0810X0.0810*%
%ADD14C,0.0810*%
%ADD15R,0.0660X0.0660*%
%ADD16C,0.0660*%
%ADD17C,0.2310*%
%ADD18C,0.0769*%
%ADD19C,0.0651*%
%ADD20C,0.1260*%
%ADD21R,0.1260X0.1260*%
%ADD22R,0.0572X0.0572*%
%ADD23R,0.1280X0.1280*%
%ADD24R,0.0300X0.0300*%
%ADD25R,0.0769X0.0769*%
%ADD26R,0.0750X0.0750*%
%ADD27R,0.0620X0.0620*%
G54D11*%LNBACKMASK_D1*%
%LPD*%
X107000Y14250D03*
G54D12*Y9250D03*
G54D13*X106000Y5250D03*
G54D14*X105225Y1730D03*
X104225D03*
X103225D03*
G54D15*X109250Y11500D03*
G54D16*X110250D03*
G54D13*X103000Y11250D03*
G54D14*X102225Y1730D03*
G54D13*X105500Y7750D03*
G54D17*X102250Y7250D03*
G54D14*X101225Y1730D03*
G54D13*X105225Y25400D03*
G54D14*X104225D03*
X103225D03*
X102225D03*
X101225D03*
G54D18*X95005Y23750D03*
G54D13*X97250Y24750D03*
G54D19*X94513Y24734D03*
X92742D03*
G54D18*X92250Y23750D03*
G54D13*X86455Y25400D03*
G54D14*X85455D03*
X84455D03*
X83455D03*
X82455D03*
G54D16*X83750Y13500D03*
Y14500D03*
Y15500D03*
Y16500D03*
G54D14*X84455Y1730D03*
G54D16*X83750Y12500D03*
G54D14*X86455Y1730D03*
X83455D03*
X85455D03*
X82455D03*
G54D13*X80250Y7750D03*
G54D15*X83750Y11500D03*
G54D13*X73000Y4250D03*
X78250Y7500D03*
X73000Y6500D03*
X64250Y12000D03*
Y13250D03*
Y14500D03*
G54D14*X67685Y25400D03*
X66685D03*
X65685D03*
X64685D03*
X63685D03*
G54D13*X59750Y24750D03*
G54D19*X57263Y24734D03*
X55492D03*
G54D18*X57755Y23750D03*
X55000D03*
G54D13*X48915Y25400D03*
G54D14*X47915D03*
X46915D03*
X45915D03*
X44915D03*
X65685Y1730D03*
X66685D03*
X64685D03*
X67685D03*
G54D13*X63685D03*
G54D14*X48915D03*
X47915D03*
X46915D03*
X45915D03*
G54D13*X44500Y3500D03*
X39500D03*
G54D14*X44915Y1730D03*
X30145D03*
X29145D03*
X28145D03*
X27145D03*
G54D13*X26145D03*
X61000Y11750D03*
X35000Y17000D03*
G54D16*Y14000D03*
G54D14*X30145Y25400D03*
X29145D03*
X28145D03*
X27145D03*
X26145D03*
G54D13*X25500Y13500D03*
G54D20*X47261Y12500D03*
G54D21*X39387D03*
G54D16*X35000Y12000D03*
X31000Y13000D03*
G54D13*X23250Y12500D03*
X22000Y24750D03*
G54D18*X20005Y23750D03*
G54D19*X19513Y24734D03*
X17742D03*
G54D18*X17250Y23750D03*
G54D13*X14500Y12000D03*
Y13000D03*
Y14000D03*
G54D14*X11375Y1730D03*
Y25400D03*
X10375D03*
X9375D03*
X8375D03*
X7375D03*
X9375Y1730D03*
X10375D03*
X8375D03*
G54D17*X8750Y7250D03*
G54D13*X7375Y1730D03*
G54D22*X111340Y18368D02*Y18131D01*
X110159Y18368D02*Y18131D01*
X109409Y25618D02*Y25381D01*
X110590Y25618D02*Y25381D01*
G54D23*X109200Y21560D02*X110100D01*
G54D22*X98340Y23618D02*Y23381D01*
X97340Y9368D02*Y9131D01*
Y10368D02*Y10131D01*
X97159Y23618D02*Y23381D01*
G54D24*X96500Y12250D02*X97100D01*
X96500Y11750D02*X97100D01*
X96500Y12750D02*X97100D01*
X96500Y11250D02*X97100D01*
X96500Y13250D02*X97100D01*
X96500Y15250D02*X97100D01*
X96500Y15750D02*X97100D01*
X96500Y14750D02*X97100D01*
X96500Y16250D02*X97100D01*
X96500Y14250D02*X97100D01*
X96500Y16750D02*X97100D01*
G54D22*X96159Y9368D02*Y9131D01*
Y10368D02*Y10131D01*
X109090Y18368D02*Y18131D01*
G54D25*X108915Y12923D02*X109584D01*
X108915Y14576D02*X109584D01*
G54D22*X107909Y18368D02*Y18131D01*
G54D24*X92900Y11250D02*X93500D01*
X92900Y11750D02*X93500D01*
X92900Y12250D02*X93500D01*
X92900Y12750D02*X93500D01*
X92900Y13250D02*X93500D01*
X92900Y14250D02*X93500D01*
X92900Y14750D02*X93500D01*
X92900Y15250D02*X93500D01*
X92900Y15750D02*X93500D01*
X92900Y16250D02*X93500D01*
X92900Y16750D02*X93500D01*
X96500Y13750D02*X97100D01*
X92900D02*X93500D01*
G54D22*X86590Y16868D02*Y16631D01*
X85409Y16868D02*Y16631D01*
G54D24*X79000Y15000D02*X79600D01*
X79000Y14500D02*X79600D01*
X79000Y15500D02*X79600D01*
X79000Y14000D02*X79600D01*
X79000Y16000D02*X79600D01*
X79000Y13500D02*X79600D01*
X75400D02*X76000D01*
X75400Y14000D02*X76000D01*
X75400Y14500D02*X76000D01*
X75400Y15000D02*X76000D01*
X75400Y15500D02*X76000D01*
X75400Y16000D02*X76000D01*
X79000Y13000D02*X79600D01*
X79000Y12000D02*X79600D01*
X79000Y12500D02*X79600D01*
G54D22*X78090Y11118D02*Y10881D01*
X76590Y7368D02*Y7131D01*
G54D24*X75400Y12000D02*X76000D01*
X75400Y12500D02*X76000D01*
G54D22*X75409Y7368D02*Y7131D01*
X76909Y11118D02*Y10881D01*
X75340Y8368D02*Y8131D01*
G54D24*X69750Y14750D02*X70350D01*
X69750Y14250D02*X70350D01*
X69750Y15250D02*X70350D01*
X69750Y15750D02*X70350D01*
G54D22*X70090Y11118D02*Y10881D01*
X68909Y11118D02*Y10881D01*
X67590Y11118D02*Y10881D01*
X66409Y11118D02*Y10881D01*
G54D24*X69750Y12250D02*X70350D01*
X69750Y12750D02*X70350D01*
X66150Y13250D02*X66750D01*
X66150Y13750D02*X66750D01*
X66150Y14250D02*X66750D01*
X66150Y14750D02*X66750D01*
X66150Y15250D02*X66750D01*
X69750Y13750D02*X70350D01*
X69750Y13250D02*X70350D01*
X66150Y15750D02*X66750D01*
X75400Y13000D02*X76000D01*
X66150Y12250D02*X66750D01*
X66150Y12750D02*X66750D01*
X57750Y11500D02*X58350D01*
X57750Y12000D02*X58350D01*
X57750Y11000D02*X58350D01*
X57750Y12500D02*X58350D01*
X57750Y13000D02*X58350D01*
G54D22*X74159Y8368D02*Y8131D01*
X72840Y8368D02*Y8131D01*
X71659Y8368D02*Y8131D01*
X59090Y8618D02*Y8381D01*
X57909Y8618D02*Y8381D01*
X81340Y10368D02*Y10131D01*
X80159Y10368D02*Y10131D01*
X57840Y10118D02*Y9881D01*
X56659Y10118D02*Y9881D01*
G54D24*X57750Y14500D02*X58350D01*
X57750Y15000D02*X58350D01*
X57750Y14000D02*X58350D01*
X57750Y15500D02*X58350D01*
X57750Y13500D02*X58350D01*
X54150Y15500D02*X54750D01*
X57750Y16500D02*X58350D01*
X57750Y16000D02*X58350D01*
X54150D02*X54750D01*
X54150Y11000D02*X54750D01*
X54150Y11500D02*X54750D01*
X54150Y12000D02*X54750D01*
X54150Y12500D02*X54750D01*
X54150Y13000D02*X54750D01*
X54150Y13500D02*X54750D01*
X54150Y14000D02*X54750D01*
X54150Y14500D02*X54750D01*
X54150Y15000D02*X54750D01*
G54D22*X42590Y3618D02*Y3381D01*
X41409Y3618D02*Y3381D01*
G54D26*X39800Y18060D02*Y17940D01*
X38700Y18060D02*Y17940D01*
G54D22*X37990Y16568D02*Y16331D01*
G54D24*X54150Y16500D02*X54750D01*
G54D22*X36809Y16568D02*Y16331D01*
G54D27*X109650Y24330D02*Y23670D01*
X108750Y24330D02*Y23670D01*
X110560Y24330D02*Y23670D01*
G54D22*X60090Y23618D02*Y23381D01*
X58909Y23618D02*Y23381D01*
X22840Y23618D02*Y23381D01*
X21659Y23618D02*Y23381D01*
X23840Y11118D02*Y10881D01*
X22659Y11118D02*Y10881D01*
X21340Y11118D02*Y10881D01*
X20159Y11118D02*Y10881D01*
G54D24*X20250Y13500D02*X20850D01*
X20250Y13000D02*X20850D01*
X20250Y14000D02*X20850D01*
X16650Y12000D02*X17250D01*
X16650Y12500D02*X17250D01*
X16650Y13000D02*X17250D01*
X20250Y12500D02*X20850D01*
X16650Y13500D02*X17250D01*
X16650Y14000D02*X17250D01*
X16650Y14500D02*X17250D01*
X16650Y15000D02*X17250D01*
X20250Y12000D02*X20850D01*
X16650Y15500D02*X17250D01*
X20250Y14500D02*X20850D01*
X20250Y15000D02*X20850D01*
X20250Y15500D02*X20850D01*
X20250Y16000D02*X20850D01*
X20250Y17000D02*X20850D01*
X20250Y16500D02*X20850D01*
X20250Y17500D02*X20850D01*
X16650Y16000D02*X17250D01*
X16650Y16500D02*X17250D01*
X16650Y17000D02*X17250D01*
X16650Y17500D02*X17250D01*
M02*
