G04 start of page 8 for group -4078 idx -4078
G04 Title: (unknown), bottomsilk *
G04 Creator: pcb-bin 20060822 *
G04 CreationDate: Wed Jun  4 23:35:37 2008 UTC *
G04 For: pete *
G04 Format: Gerber/RS-274X *
G04 PCB-Dimensions: 1125000 272500 *
G04 PCB-Coordinate-Origin: lower left *
%MOIN*%
%FSLAX24Y24*%
%LNBACKSILK*%
%ADD11C,0.0080*%
%ADD12C,0.0100*%
%ADD13C,0.0200*%
G54D11*X105500Y20500D02*Y19500D01*
X103500Y20500D02*Y19500D01*
X11000Y20500D02*Y19500D01*
X9000Y20500D02*Y19500D01*
X104500Y15750D02*G75*G03X106500Y17750I0J2000D01*G01*
G75*G03X104500Y19750I-2000J0D01*G01*
X103500Y20500D02*G75*G02X104500Y21500I1000J0D01*G01*
X104499D02*G75*G02X105500Y20499I0J-1000D01*G01*
X102500Y17750D02*G75*G03X104500Y15750I2000J0D01*G01*
Y19750D02*G75*G03X102500Y17750I0J-2000D01*G01*
X10000Y15750D02*G75*G03X12000Y17750I0J2000D01*G01*
G75*G03X10000Y19750I-2000J0D01*G01*
X9999Y21500D02*G75*G02X11000Y20499I0J-1000D01*G01*
X9000Y20500D02*G75*G02X10000Y21500I1000J0D01*G01*
X8000Y17750D02*G75*G03X10000Y15750I2000J0D01*G01*
Y19750D02*G75*G03X8000Y17750I0J-2000D01*G01*
G54D12*X105500Y17000D02*Y18000D01*
X105125Y17625D01*
X104750Y18000D01*
Y17000D02*Y18000D01*
X104074Y17000D02*X104324D01*
X104199D02*Y18000D01*
X104449Y17750D02*X104199Y18000D01*
X11000Y17000D02*Y18000D01*
X10625Y17625D01*
X10250Y18000D01*
Y17000D02*Y18000D01*
X9949Y17875D02*X9824Y18000D01*
X9449D02*X9824D01*
X9449D02*X9324Y17875D01*
Y17625D02*Y17875D01*
X9949Y17000D02*X9324Y17625D01*
Y17000D02*X9949D01*
G54D11*X110513Y17876D02*X110986D01*
X110513Y18624D02*X110986D01*
X109938Y14064D02*Y13435D01*
X108561Y14064D02*Y13435D01*
G54D13*X108750Y12000D02*X110750D01*
Y11000D01*
X108750D02*X110750D01*
X108750Y12000D02*Y11000D01*
G54D12*X109750Y12000D02*Y11000D01*
X108750D02*X109750D01*
G54D11*X108263Y18624D02*X108736D01*
X108263Y17876D02*X108736D01*
G54D12*X107000Y14250D02*Y12590D01*
Y10910D02*Y9250D01*
Y12590D02*X106170Y10910D01*
X107830D01*
X107000Y12590D01*
X106170D02*X107830D01*
X100810Y7250D02*X101530Y8500D01*
X102970D01*
X103690Y7250D01*
X102970Y6000D01*
X101530D01*
X100810Y7250D01*
X101570D02*G75*G03X101570Y7250I680J0D01*G01*
G54D11*X96513Y9624D02*X96986D01*
X96513Y8876D02*X96986D01*
X96513Y9876D02*X96986D01*
X96513Y10624D02*X96986D01*
G54D12*X92700Y11050D02*Y16950D01*
X97300D01*
Y11050D01*
X92700D02*X94750D01*
X97300D02*X95250D01*
G75*G03X94750Y11050I-250J0D01*G01*
X108230Y20710D02*Y24850D01*
X111080D01*
Y20710D01*
X108230D01*
G54D11*X109763Y25126D02*X110236D01*
X109763Y25874D02*X110236D01*
X97513Y23126D02*X97986D01*
X97513Y23874D02*X97986D01*
G54D12*X95596Y27096D02*Y23159D01*
X91659Y27096D02*Y23159D01*
Y27096D02*X95596D01*
X91659Y23159D02*X95596D01*
G54D11*X80513Y9876D02*X80986D01*
X80513Y10624D02*X80986D01*
X77263Y10626D02*X77736D01*
X77263Y11374D02*X77736D01*
G54D12*X75200Y11800D02*Y16200D01*
X79800D01*
Y11800D01*
X75200D02*X77250D01*
X79800D02*X77750D01*
G75*G03X77250Y11800I-250J0D01*G01*
G54D11*X85763Y16376D02*X86236D01*
X85763Y17124D02*X86236D01*
G54D13*X83250Y11000D02*Y17000D01*
X84250D01*
Y11000D01*
X83250D01*
G54D12*Y12000D02*X84250D01*
Y11000D01*
G54D11*X75763Y6876D02*X76236D01*
X75763Y7624D02*X76236D01*
X74513Y8624D02*X74986D01*
X74513Y7876D02*X74986D01*
X72013D02*X72486D01*
X72013Y8624D02*X72486D01*
X69263Y10626D02*X69736D01*
X69263Y11374D02*X69736D01*
X66763D02*X67236D01*
X66763Y10626D02*X67236D01*
X58263Y8874D02*X58736D01*
X58263Y8126D02*X58736D01*
X57013Y9626D02*X57486D01*
X57013Y10374D02*X57486D01*
G54D12*X65950Y12050D02*Y15950D01*
X70550D01*
Y12050D01*
X65950D02*X68000D01*
X70550D02*X68500D01*
G75*G03X68000Y12050I-250J0D01*G01*
X58346Y27096D02*Y23159D01*
X54409Y27096D02*Y23159D01*
Y27096D02*X58346D01*
X54409Y23159D02*X58346D01*
G54D11*X59263Y23126D02*X59736D01*
X59263Y23874D02*X59736D01*
G54D12*X53950Y10800D02*Y16700D01*
X58550D01*
Y10800D01*
X53950D02*X56000D01*
X58550D02*X56500D01*
G75*G03X56000Y10800I-250J0D01*G01*
X38206Y12500D02*G75*G03X43324Y7381I5118J0D01*G01*
X48442Y12500D02*G75*G03X43324Y17618I-5118J0D01*G01*
X43324Y7381D02*G75*G03X48442Y12500I0J5118D01*G01*
X43324Y17618D02*G75*G03X38206Y12500I0J-5118D01*G01*
G54D13*X38150Y17600D02*Y18400D01*
G54D12*X38490Y18510D01*
X40250D01*
Y17490D01*
X38490D01*
X38150Y17600D01*
G54D11*X41763Y3126D02*X42236D01*
X41763Y3874D02*X42236D01*
X37163Y16076D02*X37636D01*
X37163Y16824D02*X37636D01*
X23013Y10626D02*X23486D01*
X23013Y11374D02*X23486D01*
X22013Y23126D02*X22486D01*
X22013Y23874D02*X22486D01*
X20513Y10626D02*X20986D01*
X20513Y11374D02*X20986D01*
G54D12*X30000Y15000D02*X36000D01*
X30000D02*Y11000D01*
X36000Y15000D02*Y11000D01*
X30000D02*X36000D01*
X20596Y27096D02*Y23159D01*
X16659Y27096D02*Y23159D01*
Y27096D02*X20596D01*
X16659Y23159D02*X20596D01*
X16450Y11800D02*Y17700D01*
X21050D01*
Y11800D01*
X16450D02*X18500D01*
X21050D02*X19000D01*
G75*G03X18500Y11800I-250J0D01*G01*
X7310Y7250D02*X8030Y8500D01*
X9470D01*
X10190Y7250D01*
X9470Y6000D01*
X8030D01*
X7310Y7250D01*
X8070D02*G75*G03X8070Y7250I680J0D01*G01*
X111300Y17250D02*X111450D01*
X111500Y17300D02*X111450Y17250D01*
X111500Y17300D02*Y17600D01*
X111450Y17650D01*
X111300D02*X111450D01*
X111029D02*X110979Y17600D01*
X111029Y17650D02*X111129D01*
X111179Y17600D02*X111129Y17650D01*
X111179Y17300D02*Y17600D01*
Y17300D02*X111129Y17250D01*
X111029Y17450D02*X110979Y17400D01*
X111029Y17450D02*X111179D01*
X111029Y17250D02*X111129D01*
X111029D02*X110979Y17300D01*
Y17400D01*
X110859Y17300D02*X110809Y17250D01*
X110859Y17300D02*Y17600D01*
X110809Y17650D01*
X110709D02*X110809D01*
X110709D02*X110659Y17600D01*
Y17300D02*Y17600D01*
X110709Y17250D02*X110659Y17300D01*
X110709Y17250D02*X110809D01*
X110859Y17350D02*X110659Y17550D01*
X110389Y17250D02*X110489D01*
X110439D02*Y17650D01*
X110539Y17550D02*X110439Y17650D01*
X111040Y21080D02*Y21430D01*
Y21080D02*X110990Y21030D01*
X110890D02*X110990D01*
X110890D02*X110840Y21080D01*
Y21430D01*
X110569D02*X110519Y21380D01*
X110569Y21430D02*X110669D01*
X110719Y21380D02*X110669Y21430D01*
X110719Y21080D02*Y21380D01*
Y21080D02*X110669Y21030D01*
X110569Y21230D02*X110519Y21180D01*
X110569Y21230D02*X110719D01*
X110569Y21030D02*X110669D01*
X110569D02*X110519Y21080D01*
Y21180D01*
X110399Y21080D02*X110349Y21030D01*
X110399Y21080D02*Y21380D01*
X110349Y21430D01*
X110249D02*X110349D01*
X110249D02*X110199Y21380D01*
Y21080D02*Y21380D01*
X110249Y21030D02*X110199Y21080D01*
X110249Y21030D02*X110349D01*
X110399Y21130D02*X110199Y21330D01*
X109929Y21030D02*X110029D01*
X109979D02*Y21430D01*
X110079Y21330D02*X109979Y21430D01*
X110550Y26250D02*X110700D01*
X110750Y26300D02*X110700Y26250D01*
X110750Y26300D02*Y26600D01*
X110700Y26650D01*
X110550D02*X110700D01*
X110279D02*X110229Y26600D01*
X110279Y26650D02*X110379D01*
X110429Y26600D02*X110379Y26650D01*
X110429Y26300D02*Y26600D01*
Y26300D02*X110379Y26250D01*
X110279Y26450D02*X110229Y26400D01*
X110279Y26450D02*X110429D01*
X110279Y26250D02*X110379D01*
X110279D02*X110229Y26300D01*
Y26400D01*
X110109Y26300D02*X110059Y26250D01*
X110109Y26300D02*Y26600D01*
X110059Y26650D01*
X109959D02*X110059D01*
X109959D02*X109909Y26600D01*
Y26300D02*Y26600D01*
X109959Y26250D02*X109909Y26300D01*
X109959Y26250D02*X110059D01*
X110109Y26350D02*X109909Y26550D01*
X109789Y26600D02*X109739Y26650D01*
X109589D02*X109739D01*
X109589D02*X109539Y26600D01*
Y26500D02*Y26600D01*
X109789Y26250D02*X109539Y26500D01*
Y26250D02*X109789D01*
X109550Y15650D02*X109750D01*
X109550D02*X109500Y15600D01*
Y15500D02*Y15600D01*
X109550Y15450D02*X109500Y15500D01*
X109550Y15450D02*X109700D01*
Y15250D02*Y15650D01*
Y15450D02*X109500Y15250D01*
X109229Y15650D02*X109179Y15600D01*
X109229Y15650D02*X109329D01*
X109379Y15600D02*X109329Y15650D01*
X109379Y15300D02*Y15600D01*
Y15300D02*X109329Y15250D01*
X109229Y15450D02*X109179Y15400D01*
X109229Y15450D02*X109379D01*
X109229Y15250D02*X109329D01*
X109229D02*X109179Y15300D01*
Y15400D01*
X109059Y15300D02*X109009Y15250D01*
X109059Y15300D02*Y15600D01*
X109009Y15650D01*
X108909D02*X109009D01*
X108909D02*X108859Y15600D01*
Y15300D02*Y15600D01*
X108909Y15250D02*X108859Y15300D01*
X108909Y15250D02*X109009D01*
X109059Y15350D02*X108859Y15550D01*
X108589Y15250D02*X108689D01*
X108639D02*Y15650D01*
X108739Y15550D02*X108639Y15650D01*
X108800Y17000D02*X108950D01*
X109000Y17050D02*X108950Y17000D01*
X109000Y17050D02*Y17350D01*
X108950Y17400D01*
X108800D02*X108950D01*
X108529D02*X108479Y17350D01*
X108529Y17400D02*X108629D01*
X108679Y17350D02*X108629Y17400D01*
X108679Y17050D02*Y17350D01*
Y17050D02*X108629Y17000D01*
X108529Y17200D02*X108479Y17150D01*
X108529Y17200D02*X108679D01*
X108529Y17000D02*X108629D01*
X108529D02*X108479Y17050D01*
Y17150D01*
X108359Y17050D02*X108309Y17000D01*
X108359Y17050D02*Y17350D01*
X108309Y17400D01*
X108209D02*X108309D01*
X108209D02*X108159Y17350D01*
Y17050D02*Y17350D01*
X108209Y17000D02*X108159Y17050D01*
X108209Y17000D02*X108309D01*
X108359Y17100D02*X108159Y17300D01*
X108039Y17350D02*X107989Y17400D01*
X107889D02*X107989D01*
X107889D02*X107839Y17350D01*
Y17050D02*Y17350D01*
X107889Y17000D02*X107839Y17050D01*
X107889Y17000D02*X107989D01*
X108039Y17050D02*X107989Y17000D01*
X107839Y17200D02*X107989D01*
X107800Y5150D02*X108000D01*
X107900Y4750D02*Y5150D01*
X107629Y4750D02*Y5150D01*
X107479D02*X107679D01*
X107479D02*X107429Y5100D01*
Y5000D02*Y5100D01*
X107479Y4950D02*X107429Y5000D01*
X107479Y4950D02*X107629D01*
X107159Y5150D02*X107109Y5100D01*
X107159Y5150D02*X107259D01*
X107309Y5100D02*X107259Y5150D01*
X107309Y4800D02*Y5100D01*
Y4800D02*X107259Y4750D01*
X107159Y4950D02*X107109Y4900D01*
X107159Y4950D02*X107309D01*
X107159Y4750D02*X107259D01*
X107159D02*X107109Y4800D01*
Y4900D01*
X106989Y4800D02*X106939Y4750D01*
X106989Y4800D02*Y5100D01*
X106939Y5150D01*
X106839D02*X106939D01*
X106839D02*X106789Y5100D01*
Y4800D02*Y5100D01*
X106839Y4750D02*X106789Y4800D01*
X106839Y4750D02*X106939D01*
X106989Y4850D02*X106789Y5050D01*
X106519Y4750D02*X106619D01*
X106569D02*Y5150D01*
X106669Y5050D02*X106569Y5150D01*
X110300Y10350D02*X110450D01*
X110500Y10400D02*X110450Y10350D01*
X110500Y10400D02*Y10700D01*
X110450Y10750D01*
X110300D02*X110450D01*
X110179Y10400D02*Y10700D01*
X110129Y10750D01*
X110029D02*X110129D01*
X110029D02*X109979Y10700D01*
Y10400D02*Y10700D01*
X110029Y10350D02*X109979Y10400D01*
X110029Y10350D02*X110129D01*
X110179Y10400D02*X110129Y10350D01*
X109859D02*Y10750D01*
Y10700D02*Y10750D01*
Y10700D02*X109609Y10450D01*
Y10350D02*Y10750D01*
X109489Y10350D02*Y10750D01*
Y10700D02*Y10750D01*
Y10700D02*X109239Y10450D01*
Y10350D02*Y10750D01*
X108969D02*X108919Y10700D01*
X108969Y10750D02*X109069D01*
X109119Y10700D02*X109069Y10750D01*
X109119Y10400D02*Y10700D01*
Y10400D02*X109069Y10350D01*
X108969Y10550D02*X108919Y10500D01*
X108969Y10550D02*X109119D01*
X108969Y10350D02*X109069D01*
X108969D02*X108919Y10400D01*
Y10500D01*
X108799Y10400D02*X108749Y10350D01*
X108799Y10400D02*Y10700D01*
X108749Y10750D01*
X108649D02*X108749D01*
X108649D02*X108599Y10700D01*
Y10400D02*Y10700D01*
X108649Y10350D02*X108599Y10400D01*
X108649Y10350D02*X108749D01*
X108799Y10450D02*X108599Y10650D01*
X108329Y10350D02*X108429D01*
X108379D02*Y10750D01*
X108479Y10650D02*X108379Y10750D01*
X107800Y8150D02*X108000D01*
X107900Y7750D02*Y8150D01*
X107629Y7750D02*Y8150D01*
X107479D02*X107679D01*
X107479D02*X107429Y8100D01*
Y8000D02*Y8100D01*
X107479Y7950D02*X107429Y8000D01*
X107479Y7950D02*X107629D01*
X107159Y8150D02*X107109Y8100D01*
X107159Y8150D02*X107259D01*
X107309Y8100D02*X107259Y8150D01*
X107309Y7800D02*Y8100D01*
Y7800D02*X107259Y7750D01*
X107159Y7950D02*X107109Y7900D01*
X107159Y7950D02*X107309D01*
X107159Y7750D02*X107259D01*
X107159D02*X107109Y7800D01*
Y7900D01*
X106989Y7800D02*X106939Y7750D01*
X106989Y7800D02*Y8100D01*
X106939Y8150D01*
X106839D02*X106939D01*
X106839D02*X106789Y8100D01*
Y7800D02*Y8100D01*
X106839Y7750D02*X106789Y7800D01*
X106839Y7750D02*X106939D01*
X106989Y7850D02*X106789Y8050D01*
X106669Y8100D02*X106619Y8150D01*
X106469D02*X106619D01*
X106469D02*X106419Y8100D01*
Y8000D02*Y8100D01*
X106669Y7750D02*X106419Y8000D01*
Y7750D02*X106669D01*
X106700Y10000D02*Y10400D01*
X106550D02*X106500Y10350D01*
Y10050D02*Y10350D01*
X106550Y10000D02*X106500Y10050D01*
X106550Y10000D02*X106750D01*
X106550Y10400D02*X106750D01*
X106229D02*X106179Y10350D01*
X106229Y10400D02*X106329D01*
X106379Y10350D02*X106329Y10400D01*
X106379Y10050D02*Y10350D01*
Y10050D02*X106329Y10000D01*
X106229Y10200D02*X106179Y10150D01*
X106229Y10200D02*X106379D01*
X106229Y10000D02*X106329D01*
X106229D02*X106179Y10050D01*
Y10150D01*
X106059Y10050D02*X106009Y10000D01*
X106059Y10050D02*Y10350D01*
X106009Y10400D01*
X105909D02*X106009D01*
X105909D02*X105859Y10350D01*
Y10050D02*Y10350D01*
X105909Y10000D02*X105859Y10050D01*
X105909Y10000D02*X106009D01*
X106059Y10100D02*X105859Y10300D01*
X105589Y10000D02*X105689D01*
X105639D02*Y10400D01*
X105739Y10300D02*X105639Y10400D01*
X98050Y22900D02*X98250D01*
X98050D02*X98000Y22850D01*
Y22750D02*Y22850D01*
X98050Y22700D02*X98000Y22750D01*
X98050Y22700D02*X98200D01*
Y22500D02*Y22900D01*
Y22700D02*X98000Y22500D01*
X97879D02*X97629Y22750D01*
Y22900D01*
X97879D01*
X97509Y22550D02*X97459Y22500D01*
X97509Y22550D02*Y22850D01*
X97459Y22900D01*
X97359D02*X97459D01*
X97359D02*X97309Y22850D01*
Y22550D02*Y22850D01*
X97359Y22500D02*X97309Y22550D01*
X97359Y22500D02*X97459D01*
X97509Y22600D02*X97309Y22800D01*
X97039Y22500D02*X97139D01*
X97089D02*Y22900D01*
X97189Y22800D02*X97089Y22900D01*
X103300Y10650D02*X103500D01*
X103400Y10250D02*Y10650D01*
X103129Y10250D02*Y10650D01*
X102979D02*X103179D01*
X102979D02*X102929Y10600D01*
Y10500D02*Y10600D01*
X102979Y10450D02*X102929Y10500D01*
X102979Y10450D02*X103129D01*
X102659Y10250D02*X102759D01*
X102709D02*Y10650D01*
X102809Y10550D02*X102709Y10650D01*
X102539Y10300D02*X102489Y10250D01*
X102539Y10300D02*Y10600D01*
X102489Y10650D01*
X102389D02*X102489D01*
X102389D02*X102339Y10600D01*
Y10300D02*Y10600D01*
X102389Y10250D02*X102339Y10300D01*
X102389Y10250D02*X102489D01*
X102539Y10350D02*X102339Y10550D01*
X102219Y10600D02*X102169Y10650D01*
X102069D02*X102169D01*
X102069D02*X102019Y10600D01*
Y10300D02*Y10600D01*
X102069Y10250D02*X102019Y10300D01*
X102069Y10250D02*X102169D01*
X102219Y10300D02*X102169Y10250D01*
X102019Y10450D02*X102169D01*
X98300Y25650D02*X98500D01*
X98400Y25250D02*Y25650D01*
X98129Y25250D02*Y25650D01*
X97979D02*X98179D01*
X97979D02*X97929Y25600D01*
Y25500D02*Y25600D01*
X97979Y25450D02*X97929Y25500D01*
X97979Y25450D02*X98129D01*
X97809Y25250D02*X97559Y25500D01*
Y25650D01*
X97809D01*
X97439Y25300D02*X97389Y25250D01*
X97439Y25300D02*Y25600D01*
X97389Y25650D01*
X97289D02*X97389D01*
X97289D02*X97239Y25600D01*
Y25300D02*Y25600D01*
X97289Y25250D02*X97239Y25300D01*
X97289Y25250D02*X97389D01*
X97439Y25350D02*X97239Y25550D01*
X96969Y25250D02*X97069D01*
X97019D02*Y25650D01*
X97119Y25550D02*X97019Y25650D01*
X103000Y9000D02*Y9400D01*
X102750Y9000D02*Y9400D01*
Y9200D02*X103000D01*
X102629Y9050D02*X102579Y9000D01*
X102629Y9050D02*Y9150D01*
X102579Y9200D01*
X102479D02*X102579D01*
X102479D02*X102429Y9150D01*
Y9050D02*Y9150D01*
X102479Y9000D02*X102429Y9050D01*
X102479Y9000D02*X102579D01*
X102629Y9250D02*X102579Y9200D01*
X102629Y9250D02*Y9350D01*
X102579Y9400D01*
X102479D02*X102579D01*
X102479D02*X102429Y9350D01*
Y9250D02*Y9350D01*
X102479Y9200D02*X102429Y9250D01*
X102309Y9050D02*X102259Y9000D01*
X102309Y9050D02*Y9350D01*
X102259Y9400D01*
X102159D02*X102259D01*
X102159D02*X102109Y9350D01*
Y9050D02*Y9350D01*
X102159Y9000D02*X102109Y9050D01*
X102159Y9000D02*X102259D01*
X102309Y9100D02*X102109Y9300D01*
X101839Y9000D02*X101939D01*
X101889D02*Y9400D01*
X101989Y9300D02*X101889Y9400D01*
X97000Y17550D02*Y17900D01*
Y17550D02*X96950Y17500D01*
X96850D02*X96950D01*
X96850D02*X96800Y17550D01*
Y17900D01*
X96529Y17500D02*X96629D01*
X96579D02*Y17900D01*
X96679Y17800D02*X96579Y17900D01*
X96409Y17550D02*X96359Y17500D01*
X96409Y17550D02*Y17850D01*
X96359Y17900D01*
X96259D02*X96359D01*
X96259D02*X96209Y17850D01*
Y17550D02*Y17850D01*
X96259Y17500D02*X96209Y17550D01*
X96259Y17500D02*X96359D01*
X96409Y17600D02*X96209Y17800D01*
X96089Y17850D02*X96039Y17900D01*
X95939D02*X96039D01*
X95939D02*X95889Y17850D01*
Y17550D02*Y17850D01*
X95939Y17500D02*X95889Y17550D01*
X95939Y17500D02*X96039D01*
X96089Y17550D02*X96039Y17500D01*
X95889Y17700D02*X96039D01*
X94550Y10000D02*X94700D01*
X94750Y10050D02*X94700Y10000D01*
X94750Y10050D02*Y10350D01*
X94700Y10400D01*
X94550D02*X94700D01*
X94279Y10000D02*X94379D01*
X94329D02*Y10400D01*
X94429Y10300D02*X94329Y10400D01*
X94159Y10050D02*X94109Y10000D01*
X94159Y10050D02*Y10350D01*
X94109Y10400D01*
X94009D02*X94109D01*
X94009D02*X93959Y10350D01*
Y10050D02*Y10350D01*
X94009Y10000D02*X93959Y10050D01*
X94009Y10000D02*X94109D01*
X94159Y10100D02*X93959Y10300D01*
X93839Y10350D02*X93789Y10400D01*
X93689D02*X93789D01*
X93689D02*X93639Y10350D01*
Y10050D02*Y10350D01*
X93689Y10000D02*X93639Y10050D01*
X93689Y10000D02*X93789D01*
X93839Y10050D02*X93789Y10000D01*
X93639Y10200D02*X93789D01*
X94550Y9650D02*X94750D01*
X94550D02*X94500Y9600D01*
Y9500D02*Y9600D01*
X94550Y9450D02*X94500Y9500D01*
X94550Y9450D02*X94700D01*
Y9250D02*Y9650D01*
Y9450D02*X94500Y9250D01*
X94229D02*X94329D01*
X94279D02*Y9650D01*
X94379Y9550D02*X94279Y9650D01*
X94109Y9300D02*X94059Y9250D01*
X94109Y9300D02*Y9600D01*
X94059Y9650D01*
X93959D02*X94059D01*
X93959D02*X93909Y9600D01*
Y9300D02*Y9600D01*
X93959Y9250D02*X93909Y9300D01*
X93959Y9250D02*X94059D01*
X94109Y9350D02*X93909Y9550D01*
X93789Y9600D02*X93739Y9650D01*
X93639D02*X93739D01*
X93639D02*X93589Y9600D01*
Y9300D02*Y9600D01*
X93639Y9250D02*X93589Y9300D01*
X93639Y9250D02*X93739D01*
X93789Y9300D02*X93739Y9250D01*
X93589Y9450D02*X93739D01*
X83900Y17650D02*X84000D01*
X83950Y17250D02*Y17650D01*
X83900Y17250D02*X84000D01*
X83579D02*X83729D01*
X83779Y17300D02*X83729Y17250D01*
X83779Y17300D02*Y17600D01*
X83729Y17650D01*
X83579D02*X83729D01*
X83259D02*X83209Y17600D01*
X83259Y17650D02*X83409D01*
X83459Y17600D02*X83409Y17650D01*
X83459Y17500D02*Y17600D01*
Y17500D02*X83409Y17450D01*
X83259D02*X83409D01*
X83259D02*X83209Y17400D01*
Y17300D02*Y17400D01*
X83259Y17250D02*X83209Y17300D01*
X83259Y17250D02*X83409D01*
X83459Y17300D02*X83409Y17250D01*
X83039D02*Y17650D01*
X82889D02*X83089D01*
X82889D02*X82839Y17600D01*
Y17500D02*Y17600D01*
X82889Y17450D02*X82839Y17500D01*
X82889Y17450D02*X83039D01*
X82719D02*X82519Y17650D01*
X82469Y17450D02*X82719D01*
X82519Y17250D02*Y17650D01*
X82349Y17300D02*X82299Y17250D01*
X82349Y17300D02*Y17600D01*
X82299Y17650D01*
X82199D02*X82299D01*
X82199D02*X82149Y17600D01*
Y17300D02*Y17600D01*
X82199Y17250D02*X82149Y17300D01*
X82199Y17250D02*X82299D01*
X82349Y17350D02*X82149Y17550D01*
X81879Y17250D02*X81979D01*
X81929D02*Y17650D01*
X82029Y17550D02*X81929Y17650D01*
X86050Y16150D02*X86250D01*
X86050D02*X86000Y16100D01*
Y16000D02*Y16100D01*
X86050Y15950D02*X86000Y16000D01*
X86050Y15950D02*X86200D01*
Y15750D02*Y16150D01*
Y15950D02*X86000Y15750D01*
X85879Y15950D02*X85679Y16150D01*
X85629Y15950D02*X85879D01*
X85679Y15750D02*Y16150D01*
X85509Y15800D02*X85459Y15750D01*
X85509Y15800D02*Y16100D01*
X85459Y16150D01*
X85359D02*X85459D01*
X85359D02*X85309Y16100D01*
Y15800D02*Y16100D01*
X85359Y15750D02*X85309Y15800D01*
X85359Y15750D02*X85459D01*
X85509Y15850D02*X85309Y16050D01*
X85189Y16100D02*X85139Y16150D01*
X84989D02*X85139D01*
X84989D02*X84939Y16100D01*
Y16000D02*Y16100D01*
X85189Y15750D02*X84939Y16000D01*
Y15750D02*X85189D01*
X82800Y10400D02*X83000D01*
X82800D02*X82750Y10350D01*
Y10250D02*Y10350D01*
X82800Y10200D02*X82750Y10250D01*
X82800Y10200D02*X82950D01*
Y10000D02*Y10400D01*
Y10200D02*X82750Y10000D01*
X82629Y10200D02*X82429Y10400D01*
X82379Y10200D02*X82629D01*
X82429Y10000D02*Y10400D01*
X82259Y10050D02*X82209Y10000D01*
X82259Y10050D02*Y10350D01*
X82209Y10400D01*
X82109D02*X82209D01*
X82109D02*X82059Y10350D01*
Y10050D02*Y10350D01*
X82109Y10000D02*X82059Y10050D01*
X82109Y10000D02*X82209D01*
X82259Y10100D02*X82059Y10300D01*
X81789Y10000D02*X81889D01*
X81839D02*Y10400D01*
X81939Y10300D02*X81839Y10400D01*
X79750Y16550D02*Y16900D01*
Y16550D02*X79700Y16500D01*
X79600D02*X79700D01*
X79600D02*X79550Y16550D01*
Y16900D01*
X79229D02*X79429D01*
Y16700D02*Y16900D01*
Y16700D02*X79379Y16750D01*
X79279D02*X79379D01*
X79279D02*X79229Y16700D01*
Y16550D02*Y16700D01*
X79279Y16500D02*X79229Y16550D01*
X79279Y16500D02*X79379D01*
X79429Y16550D02*X79379Y16500D01*
X79109Y16550D02*X79059Y16500D01*
X79109Y16550D02*Y16850D01*
X79059Y16900D01*
X78959D02*X79059D01*
X78959D02*X78909Y16850D01*
Y16550D02*Y16850D01*
X78959Y16500D02*X78909Y16550D01*
X78959Y16500D02*X79059D01*
X79109Y16600D02*X78909Y16800D01*
X78639Y16500D02*X78739D01*
X78689D02*Y16900D01*
X78789Y16800D02*X78689Y16900D01*
X82050Y7650D02*X82250D01*
X82150Y7250D02*Y7650D01*
X81879Y7250D02*Y7650D01*
X81729D02*X81929D01*
X81729D02*X81679Y7600D01*
Y7500D02*Y7600D01*
X81729Y7450D02*X81679Y7500D01*
X81729Y7450D02*X81879D01*
X81559D02*X81359Y7650D01*
X81309Y7450D02*X81559D01*
X81359Y7250D02*Y7650D01*
X81189Y7300D02*X81139Y7250D01*
X81189Y7300D02*Y7600D01*
X81139Y7650D01*
X81039D02*X81139D01*
X81039D02*X80989Y7600D01*
Y7300D02*Y7600D01*
X81039Y7250D02*X80989Y7300D01*
X81039Y7250D02*X81139D01*
X81189Y7350D02*X80989Y7550D01*
X80719Y7250D02*X80819D01*
X80769D02*Y7650D01*
X80869Y7550D02*X80769Y7650D01*
X79050Y8400D02*X79250D01*
X79150Y8000D02*Y8400D01*
X78879Y8000D02*Y8400D01*
X78729D02*X78929D01*
X78729D02*X78679Y8350D01*
Y8250D02*Y8350D01*
X78729Y8200D02*X78679Y8250D01*
X78729Y8200D02*X78879D01*
X78409Y8400D02*X78359Y8350D01*
X78409Y8400D02*X78509D01*
X78559Y8350D02*X78509Y8400D01*
X78559Y8050D02*Y8350D01*
Y8050D02*X78509Y8000D01*
X78409Y8200D02*X78359Y8150D01*
X78409Y8200D02*X78559D01*
X78409Y8000D02*X78509D01*
X78409D02*X78359Y8050D01*
Y8150D01*
X78239Y8050D02*X78189Y8000D01*
X78239Y8050D02*Y8350D01*
X78189Y8400D01*
X78089D02*X78189D01*
X78089D02*X78039Y8350D01*
Y8050D02*Y8350D01*
X78089Y8000D02*X78039Y8050D01*
X78089Y8000D02*X78189D01*
X78239Y8100D02*X78039Y8300D01*
X77919Y8350D02*X77869Y8400D01*
X77769D02*X77869D01*
X77769D02*X77719Y8350D01*
Y8050D02*Y8350D01*
X77769Y8000D02*X77719Y8050D01*
X77769Y8000D02*X77869D01*
X77919Y8050D02*X77869Y8000D01*
X77719Y8200D02*X77869D01*
X76800Y8150D02*X77000D01*
X76800D02*X76750Y8100D01*
Y8000D02*Y8100D01*
X76800Y7950D02*X76750Y8000D01*
X76800Y7950D02*X76950D01*
Y7750D02*Y8150D01*
Y7950D02*X76750Y7750D01*
X76629Y8100D02*X76579Y8150D01*
X76429D02*X76579D01*
X76429D02*X76379Y8100D01*
Y8000D02*Y8100D01*
X76629Y7750D02*X76379Y8000D01*
Y7750D02*X76629D01*
X76259Y7800D02*X76209Y7750D01*
X76259Y7800D02*Y8100D01*
X76209Y8150D01*
X76109D02*X76209D01*
X76109D02*X76059Y8100D01*
Y7800D02*Y8100D01*
X76109Y7750D02*X76059Y7800D01*
X76109Y7750D02*X76209D01*
X76259Y7850D02*X76059Y8050D01*
X75939Y8100D02*X75889Y8150D01*
X75739D02*X75889D01*
X75739D02*X75689Y8100D01*
Y8000D02*Y8100D01*
X75939Y7750D02*X75689Y8000D01*
Y7750D02*X75939D01*
X70500Y16300D02*Y16650D01*
Y16300D02*X70450Y16250D01*
X70350D02*X70450D01*
X70350D02*X70300Y16300D01*
Y16650D01*
X70179Y16600D02*X70129Y16650D01*
X69979D02*X70129D01*
X69979D02*X69929Y16600D01*
Y16500D02*Y16600D01*
X70179Y16250D02*X69929Y16500D01*
Y16250D02*X70179D01*
X69809Y16300D02*X69759Y16250D01*
X69809Y16300D02*Y16600D01*
X69759Y16650D01*
X69659D02*X69759D01*
X69659D02*X69609Y16600D01*
Y16300D02*Y16600D01*
X69659Y16250D02*X69609Y16300D01*
X69659Y16250D02*X69759D01*
X69809Y16350D02*X69609Y16550D01*
X69339Y16250D02*X69439D01*
X69389D02*Y16650D01*
X69489Y16550D02*X69389Y16650D01*
X76300Y11000D02*X76450D01*
X76500Y11050D02*X76450Y11000D01*
X76500Y11050D02*Y11350D01*
X76450Y11400D01*
X76300D02*X76450D01*
X75979D02*X76179D01*
Y11200D02*Y11400D01*
Y11200D02*X76129Y11250D01*
X76029D02*X76129D01*
X76029D02*X75979Y11200D01*
Y11050D02*Y11200D01*
X76029Y11000D02*X75979Y11050D01*
X76029Y11000D02*X76129D01*
X76179Y11050D02*X76129Y11000D01*
X75859Y11050D02*X75809Y11000D01*
X75859Y11050D02*Y11350D01*
X75809Y11400D01*
X75709D02*X75809D01*
X75709D02*X75659Y11350D01*
Y11050D02*Y11350D01*
X75709Y11000D02*X75659Y11050D01*
X75709Y11000D02*X75809D01*
X75859Y11100D02*X75659Y11300D01*
X75389Y11000D02*X75489D01*
X75439D02*Y11400D01*
X75539Y11300D02*X75439Y11400D01*
X74800Y9150D02*X75000D01*
X74800D02*X74750Y9100D01*
Y9000D02*Y9100D01*
X74800Y8950D02*X74750Y9000D01*
X74800Y8950D02*X74950D01*
Y8750D02*Y9150D01*
Y8950D02*X74750Y8750D01*
X74629Y9100D02*X74579Y9150D01*
X74479D02*X74579D01*
X74479D02*X74429Y9100D01*
Y8800D02*Y9100D01*
X74479Y8750D02*X74429Y8800D01*
X74479Y8750D02*X74579D01*
X74629Y8800D02*X74579Y8750D01*
X74429Y8950D02*X74579D01*
X74309Y8800D02*X74259Y8750D01*
X74309Y8800D02*Y9100D01*
X74259Y9150D01*
X74159D02*X74259D01*
X74159D02*X74109Y9100D01*
Y8800D02*Y9100D01*
X74159Y8750D02*X74109Y8800D01*
X74159Y8750D02*X74259D01*
X74309Y8850D02*X74109Y9050D01*
X73989Y9100D02*X73939Y9150D01*
X73789D02*X73939D01*
X73789D02*X73739Y9100D01*
Y9000D02*Y9100D01*
X73989Y8750D02*X73739Y9000D01*
Y8750D02*X73989D01*
X61800Y11150D02*X62000D01*
X61900Y10750D02*Y11150D01*
X61629Y10750D02*Y11150D01*
X61479D02*X61679D01*
X61479D02*X61429Y11100D01*
Y11000D02*Y11100D01*
X61479Y10950D02*X61429Y11000D01*
X61479Y10950D02*X61629D01*
X61159Y10750D02*X61259D01*
X61209D02*Y11150D01*
X61309Y11050D02*X61209Y11150D01*
X61039Y10800D02*X60989Y10750D01*
X61039Y10800D02*Y11100D01*
X60989Y11150D01*
X60889D02*X60989D01*
X60889D02*X60839Y11100D01*
Y10800D02*Y11100D01*
X60889Y10750D02*X60839Y10800D01*
X60889Y10750D02*X60989D01*
X61039Y10850D02*X60839Y11050D01*
X60719Y11100D02*X60669Y11150D01*
X60519D02*X60669D01*
X60519D02*X60469Y11100D01*
Y11000D02*Y11100D01*
X60719Y10750D02*X60469Y11000D01*
Y10750D02*X60719D01*
X55550Y9750D02*X55700D01*
X55750Y9800D02*X55700Y9750D01*
X55750Y9800D02*Y10100D01*
X55700Y10150D01*
X55550D02*X55700D01*
X55279Y9750D02*X55379D01*
X55329D02*Y10150D01*
X55429Y10050D02*X55329Y10150D01*
X55159Y9800D02*X55109Y9750D01*
X55159Y9800D02*Y10100D01*
X55109Y10150D01*
X55009D02*X55109D01*
X55009D02*X54959Y10100D01*
Y9800D02*Y10100D01*
X55009Y9750D02*X54959Y9800D01*
X55009Y9750D02*X55109D01*
X55159Y9850D02*X54959Y10050D01*
X54839Y10100D02*X54789Y10150D01*
X54639D02*X54789D01*
X54639D02*X54589Y10100D01*
Y10000D02*Y10100D01*
X54839Y9750D02*X54589Y10000D01*
Y9750D02*X54839D01*
X93050Y22900D02*X93000Y22850D01*
X93050Y22900D02*X93200D01*
X93250Y22850D02*X93200Y22900D01*
X93250Y22750D02*Y22850D01*
Y22750D02*X93200Y22700D01*
X93050D02*X93200D01*
X93050D02*X93000Y22650D01*
Y22550D02*Y22650D01*
X93050Y22500D02*X93000Y22550D01*
X93050Y22500D02*X93200D01*
X93250Y22550D02*X93200Y22500D01*
X92879D02*Y22900D01*
Y22500D02*X92729Y22650D01*
X92579Y22500D01*
Y22900D01*
X92459Y22500D02*X92209Y22750D01*
Y22900D01*
X92459D01*
X92089Y22550D02*X92039Y22500D01*
X92089Y22550D02*Y22850D01*
X92039Y22900D01*
X91939D02*X92039D01*
X91939D02*X91889Y22850D01*
Y22550D02*Y22850D01*
X91939Y22500D02*X91889Y22550D01*
X91939Y22500D02*X92039D01*
X92089Y22600D02*X91889Y22800D01*
X91619Y22500D02*X91719D01*
X91669D02*Y22900D01*
X91769Y22800D02*X91669Y22900D01*
X60050D02*X60250D01*
X60050D02*X60000Y22850D01*
Y22750D02*Y22850D01*
X60050Y22700D02*X60000Y22750D01*
X60050Y22700D02*X60200D01*
Y22500D02*Y22900D01*
Y22700D02*X60000Y22500D01*
X59879D02*X59629Y22750D01*
Y22900D01*
X59879D01*
X59509Y22550D02*X59459Y22500D01*
X59509Y22550D02*Y22850D01*
X59459Y22900D01*
X59359D02*X59459D01*
X59359D02*X59309Y22850D01*
Y22550D02*Y22850D01*
X59359Y22500D02*X59309Y22550D01*
X59359Y22500D02*X59459D01*
X59509Y22600D02*X59309Y22800D01*
X59189Y22850D02*X59139Y22900D01*
X58989D02*X59139D01*
X58989D02*X58939Y22850D01*
Y22750D02*Y22850D01*
X59189Y22500D02*X58939Y22750D01*
Y22500D02*X59189D01*
X55550Y22900D02*X55500Y22850D01*
X55550Y22900D02*X55700D01*
X55750Y22850D02*X55700Y22900D01*
X55750Y22750D02*Y22850D01*
Y22750D02*X55700Y22700D01*
X55550D02*X55700D01*
X55550D02*X55500Y22650D01*
Y22550D02*Y22650D01*
X55550Y22500D02*X55500Y22550D01*
X55550Y22500D02*X55700D01*
X55750Y22550D02*X55700Y22500D01*
X55379D02*Y22900D01*
Y22500D02*X55229Y22650D01*
X55079Y22500D01*
Y22900D01*
X54959Y22500D02*X54709Y22750D01*
Y22900D01*
X54959D01*
X54589Y22550D02*X54539Y22500D01*
X54589Y22550D02*Y22850D01*
X54539Y22900D01*
X54439D02*X54539D01*
X54439D02*X54389Y22850D01*
Y22550D02*Y22850D01*
X54439Y22500D02*X54389Y22550D01*
X54439Y22500D02*X54539D01*
X54589Y22600D02*X54389Y22800D01*
X54269Y22850D02*X54219Y22900D01*
X54069D02*X54219D01*
X54069D02*X54019Y22850D01*
Y22750D02*Y22850D01*
X54269Y22500D02*X54019Y22750D01*
Y22500D02*X54269D01*
X72300Y3400D02*X72500D01*
X72400Y3000D02*Y3400D01*
X72129Y3000D02*Y3400D01*
X71979D02*X72179D01*
X71979D02*X71929Y3350D01*
Y3250D02*Y3350D01*
X71979Y3200D02*X71929Y3250D01*
X71979Y3200D02*X72129D01*
X71809Y3350D02*X71759Y3400D01*
X71659D02*X71759D01*
X71659D02*X71609Y3350D01*
Y3050D02*Y3350D01*
X71659Y3000D02*X71609Y3050D01*
X71659Y3000D02*X71759D01*
X71809Y3050D02*X71759Y3000D01*
X71609Y3200D02*X71759D01*
X71489Y3050D02*X71439Y3000D01*
X71489Y3050D02*Y3350D01*
X71439Y3400D01*
X71339D02*X71439D01*
X71339D02*X71289Y3350D01*
Y3050D02*Y3350D01*
X71339Y3000D02*X71289Y3050D01*
X71339Y3000D02*X71439D01*
X71489Y3100D02*X71289Y3300D01*
X71169Y3350D02*X71119Y3400D01*
X70969D02*X71119D01*
X70969D02*X70919Y3350D01*
Y3250D02*Y3350D01*
X71169Y3000D02*X70919Y3250D01*
Y3000D02*X71169D01*
X72300Y9150D02*X72500D01*
X72300D02*X72250Y9100D01*
Y9000D02*Y9100D01*
X72300Y8950D02*X72250Y9000D01*
X72300Y8950D02*X72450D01*
Y8750D02*Y9150D01*
Y8950D02*X72250Y8750D01*
X72129Y9100D02*X72079Y9150D01*
X71979D02*X72079D01*
X71979D02*X71929Y9100D01*
Y8800D02*Y9100D01*
X71979Y8750D02*X71929Y8800D01*
X71979Y8750D02*X72079D01*
X72129Y8800D02*X72079Y8750D01*
X71929Y8950D02*X72079D01*
X71809Y8800D02*X71759Y8750D01*
X71809Y8800D02*Y9100D01*
X71759Y9150D01*
X71659D02*X71759D01*
X71659D02*X71609Y9100D01*
Y8800D02*Y9100D01*
X71659Y8750D02*X71609Y8800D01*
X71659Y8750D02*X71759D01*
X71809Y8850D02*X71609Y9050D01*
X71339Y8750D02*X71439D01*
X71389D02*Y9150D01*
X71489Y9050D02*X71389Y9150D01*
X72300Y7650D02*X72500D01*
X72400Y7250D02*Y7650D01*
X72129Y7250D02*Y7650D01*
X71979D02*X72179D01*
X71979D02*X71929Y7600D01*
Y7500D02*Y7600D01*
X71979Y7450D02*X71929Y7500D01*
X71979Y7450D02*X72129D01*
X71809Y7600D02*X71759Y7650D01*
X71659D02*X71759D01*
X71659D02*X71609Y7600D01*
Y7300D02*Y7600D01*
X71659Y7250D02*X71609Y7300D01*
X71659Y7250D02*X71759D01*
X71809Y7300D02*X71759Y7250D01*
X71609Y7450D02*X71759D01*
X71489Y7300D02*X71439Y7250D01*
X71489Y7300D02*Y7600D01*
X71439Y7650D01*
X71339D02*X71439D01*
X71339D02*X71289Y7600D01*
Y7300D02*Y7600D01*
X71339Y7250D02*X71289Y7300D01*
X71339Y7250D02*X71439D01*
X71489Y7350D02*X71289Y7550D01*
X71019Y7250D02*X71119D01*
X71069D02*Y7650D01*
X71169Y7550D02*X71069Y7650D01*
X67550Y10000D02*X67700D01*
X67750Y10050D02*X67700Y10000D01*
X67750Y10050D02*Y10350D01*
X67700Y10400D01*
X67550D02*X67700D01*
X67429Y10350D02*X67379Y10400D01*
X67229D02*X67379D01*
X67229D02*X67179Y10350D01*
Y10250D02*Y10350D01*
X67429Y10000D02*X67179Y10250D01*
Y10000D02*X67429D01*
X67059Y10050D02*X67009Y10000D01*
X67059Y10050D02*Y10350D01*
X67009Y10400D01*
X66909D02*X67009D01*
X66909D02*X66859Y10350D01*
Y10050D02*Y10350D01*
X66909Y10000D02*X66859Y10050D01*
X66909Y10000D02*X67009D01*
X67059Y10100D02*X66859Y10300D01*
X66739Y10350D02*X66689Y10400D01*
X66589D02*X66689D01*
X66589D02*X66539Y10350D01*
Y10050D02*Y10350D01*
X66589Y10000D02*X66539Y10050D01*
X66589Y10000D02*X66689D01*
X66739Y10050D02*X66689Y10000D01*
X66539Y10200D02*X66689D01*
X70050Y10000D02*X70200D01*
X70250Y10050D02*X70200Y10000D01*
X70250Y10050D02*Y10350D01*
X70200Y10400D01*
X70050D02*X70200D01*
X69929Y10350D02*X69879Y10400D01*
X69729D02*X69879D01*
X69729D02*X69679Y10350D01*
Y10250D02*Y10350D01*
X69929Y10000D02*X69679Y10250D01*
Y10000D02*X69929D01*
X69559Y10050D02*X69509Y10000D01*
X69559Y10050D02*Y10350D01*
X69509Y10400D01*
X69409D02*X69509D01*
X69409D02*X69359Y10350D01*
Y10050D02*Y10350D01*
X69409Y10000D02*X69359Y10050D01*
X69409Y10000D02*X69509D01*
X69559Y10100D02*X69359Y10300D01*
X69239Y10350D02*X69189Y10400D01*
X69039D02*X69189D01*
X69039D02*X68989Y10350D01*
Y10250D02*Y10350D01*
X69239Y10000D02*X68989Y10250D01*
Y10000D02*X69239D01*
X58800Y7900D02*X59000D01*
X58800D02*X58750Y7850D01*
Y7750D02*Y7850D01*
X58800Y7700D02*X58750Y7750D01*
X58800Y7700D02*X58950D01*
Y7500D02*Y7900D01*
Y7700D02*X58750Y7500D01*
X58479D02*X58579D01*
X58529D02*Y7900D01*
X58629Y7800D02*X58529Y7900D01*
X58359Y7550D02*X58309Y7500D01*
X58359Y7550D02*Y7850D01*
X58309Y7900D01*
X58209D02*X58309D01*
X58209D02*X58159Y7850D01*
Y7550D02*Y7850D01*
X58209Y7500D02*X58159Y7550D01*
X58209Y7500D02*X58309D01*
X58359Y7600D02*X58159Y7800D01*
X58039Y7850D02*X57989Y7900D01*
X57839D02*X57989D01*
X57839D02*X57789Y7850D01*
Y7750D02*Y7850D01*
X58039Y7500D02*X57789Y7750D01*
Y7500D02*X58039D01*
X63550Y13400D02*X63750D01*
X63650Y13000D02*Y13400D01*
X63379Y13000D02*Y13400D01*
X63229D02*X63429D01*
X63229D02*X63179Y13350D01*
Y13250D02*Y13350D01*
X63229Y13200D02*X63179Y13250D01*
X63229Y13200D02*X63379D01*
X63059Y13350D02*X63009Y13400D01*
X62859D02*X63009D01*
X62859D02*X62809Y13350D01*
Y13250D02*Y13350D01*
X63059Y13000D02*X62809Y13250D01*
Y13000D02*X63059D01*
X62689Y13050D02*X62639Y13000D01*
X62689Y13050D02*Y13350D01*
X62639Y13400D01*
X62539D02*X62639D01*
X62539D02*X62489Y13350D01*
Y13050D02*Y13350D01*
X62539Y13000D02*X62489Y13050D01*
X62539Y13000D02*X62639D01*
X62689Y13100D02*X62489Y13300D01*
X62369Y13350D02*X62319Y13400D01*
X62219D02*X62319D01*
X62219D02*X62169Y13350D01*
Y13050D02*Y13350D01*
X62219Y13000D02*X62169Y13050D01*
X62219Y13000D02*X62319D01*
X62369Y13050D02*X62319Y13000D01*
X62169Y13200D02*X62319D01*
X63550Y12150D02*X63750D01*
X63650Y11750D02*Y12150D01*
X63379Y11750D02*Y12150D01*
X63229D02*X63429D01*
X63229D02*X63179Y12100D01*
Y12000D02*Y12100D01*
X63229Y11950D02*X63179Y12000D01*
X63229Y11950D02*X63379D01*
X63059Y12100D02*X63009Y12150D01*
X62859D02*X63009D01*
X62859D02*X62809Y12100D01*
Y12000D02*Y12100D01*
X63059Y11750D02*X62809Y12000D01*
Y11750D02*X63059D01*
X62689Y11800D02*X62639Y11750D01*
X62689Y11800D02*Y12100D01*
X62639Y12150D01*
X62539D02*X62639D01*
X62539D02*X62489Y12100D01*
Y11800D02*Y12100D01*
X62539Y11750D02*X62489Y11800D01*
X62539Y11750D02*X62639D01*
X62689Y11850D02*X62489Y12050D01*
X62369Y12100D02*X62319Y12150D01*
X62169D02*X62319D01*
X62169D02*X62119Y12100D01*
Y12000D02*Y12100D01*
X62369Y11750D02*X62119Y12000D01*
Y11750D02*X62369D01*
X63550Y14650D02*X63750D01*
X63650Y14250D02*Y14650D01*
X63379Y14250D02*Y14650D01*
X63229D02*X63429D01*
X63229D02*X63179Y14600D01*
Y14500D02*Y14600D01*
X63229Y14450D02*X63179Y14500D01*
X63229Y14450D02*X63379D01*
X63059Y14600D02*X63009Y14650D01*
X62859D02*X63009D01*
X62859D02*X62809Y14600D01*
Y14500D02*Y14600D01*
X63059Y14250D02*X62809Y14500D01*
Y14250D02*X63059D01*
X62689Y14300D02*X62639Y14250D01*
X62689Y14300D02*Y14600D01*
X62639Y14650D01*
X62539D02*X62639D01*
X62539D02*X62489Y14600D01*
Y14300D02*Y14600D01*
X62539Y14250D02*X62489Y14300D01*
X62539Y14250D02*X62639D01*
X62689Y14350D02*X62489Y14550D01*
X62369Y14450D02*X62169Y14650D01*
X62119Y14450D02*X62369D01*
X62169Y14250D02*Y14650D01*
X60300Y25900D02*X60500D01*
X60400Y25500D02*Y25900D01*
X60129Y25500D02*Y25900D01*
X59979D02*X60179D01*
X59979D02*X59929Y25850D01*
Y25750D02*Y25850D01*
X59979Y25700D02*X59929Y25750D01*
X59979Y25700D02*X60129D01*
X59809Y25500D02*X59559Y25750D01*
Y25900D01*
X59809D01*
X59439Y25550D02*X59389Y25500D01*
X59439Y25550D02*Y25850D01*
X59389Y25900D01*
X59289D02*X59389D01*
X59289D02*X59239Y25850D01*
Y25550D02*Y25850D01*
X59289Y25500D02*X59239Y25550D01*
X59289Y25500D02*X59389D01*
X59439Y25600D02*X59239Y25800D01*
X59119Y25850D02*X59069Y25900D01*
X58919D02*X59069D01*
X58919D02*X58869Y25850D01*
Y25750D02*Y25850D01*
X59119Y25500D02*X58869Y25750D01*
Y25500D02*X59119D01*
X58500Y17050D02*Y17400D01*
Y17050D02*X58450Y17000D01*
X58350D02*X58450D01*
X58350D02*X58300Y17050D01*
Y17400D01*
X58029Y17000D02*X58129D01*
X58079D02*Y17400D01*
X58179Y17300D02*X58079Y17400D01*
X57909Y17050D02*X57859Y17000D01*
X57909Y17050D02*Y17350D01*
X57859Y17400D01*
X57759D02*X57859D01*
X57759D02*X57709Y17350D01*
Y17050D02*Y17350D01*
X57759Y17000D02*X57709Y17050D01*
X57759Y17000D02*X57859D01*
X57909Y17100D02*X57709Y17300D01*
X57589Y17350D02*X57539Y17400D01*
X57389D02*X57539D01*
X57389D02*X57339Y17350D01*
Y17250D02*Y17350D01*
X57589Y17000D02*X57339Y17250D01*
Y17000D02*X57589D01*
X46300Y4400D02*X46500D01*
X46400Y4000D02*Y4400D01*
X46129Y4000D02*Y4400D01*
X45979D02*X46179D01*
X45979D02*X45929Y4350D01*
Y4250D02*Y4350D01*
X45979Y4200D02*X45929Y4250D01*
X45979Y4200D02*X46129D01*
X45809Y4350D02*X45759Y4400D01*
X45609D02*X45759D01*
X45609D02*X45559Y4350D01*
Y4250D02*Y4350D01*
X45809Y4000D02*X45559Y4250D01*
Y4000D02*X45809D01*
X45439Y4050D02*X45389Y4000D01*
X45439Y4050D02*Y4350D01*
X45389Y4400D01*
X45289D02*X45389D01*
X45289D02*X45239Y4350D01*
Y4050D02*Y4350D01*
X45289Y4000D02*X45239Y4050D01*
X45289Y4000D02*X45389D01*
X45439Y4100D02*X45239Y4300D01*
X44919Y4400D02*X45119D01*
Y4200D02*Y4400D01*
Y4200D02*X45069Y4250D01*
X44969D02*X45069D01*
X44969D02*X44919Y4200D01*
Y4050D02*Y4200D01*
X44969Y4000D02*X44919Y4050D01*
X44969Y4000D02*X45069D01*
X45119Y4050D02*X45069Y4000D01*
X47050Y17500D02*X47200D01*
X47250Y17550D02*X47200Y17500D01*
X47250Y17550D02*Y17850D01*
X47200Y17900D01*
X47050D02*X47200D01*
X46929Y17850D02*X46879Y17900D01*
X46729D02*X46879D01*
X46729D02*X46679Y17850D01*
Y17750D02*Y17850D01*
X46929Y17500D02*X46679Y17750D01*
Y17500D02*X46929D01*
X46559Y17550D02*X46509Y17500D01*
X46559Y17550D02*Y17850D01*
X46509Y17900D01*
X46409D02*X46509D01*
X46409D02*X46359Y17850D01*
Y17550D02*Y17850D01*
X46409Y17500D02*X46359Y17550D01*
X46409Y17500D02*X46509D01*
X46559Y17600D02*X46359Y17800D01*
X46089Y17500D02*X46189D01*
X46139D02*Y17900D01*
X46239Y17800D02*X46139Y17900D01*
X39750Y16800D02*Y17150D01*
Y16800D02*X39700Y16750D01*
X39600D02*X39700D01*
X39600D02*X39550Y16800D01*
Y17150D01*
X39429Y17100D02*X39379Y17150D01*
X39229D02*X39379D01*
X39229D02*X39179Y17100D01*
Y17000D02*Y17100D01*
X39429Y16750D02*X39179Y17000D01*
Y16750D02*X39429D01*
X39059Y16800D02*X39009Y16750D01*
X39059Y16800D02*Y17100D01*
X39009Y17150D01*
X38909D02*X39009D01*
X38909D02*X38859Y17100D01*
Y16800D02*Y17100D01*
X38909Y16750D02*X38859Y16800D01*
X38909Y16750D02*X39009D01*
X39059Y16850D02*X38859Y17050D01*
X38739Y17100D02*X38689Y17150D01*
X38539D02*X38689D01*
X38539D02*X38489Y17100D01*
Y17000D02*Y17100D01*
X38739Y16750D02*X38489Y17000D01*
Y16750D02*X38739D01*
X42550Y4400D02*X42750D01*
X42550D02*X42500Y4350D01*
Y4250D02*Y4350D01*
X42550Y4200D02*X42500Y4250D01*
X42550Y4200D02*X42700D01*
Y4000D02*Y4400D01*
Y4200D02*X42500Y4000D01*
X42379Y4350D02*X42329Y4400D01*
X42179D02*X42329D01*
X42179D02*X42129Y4350D01*
Y4250D02*Y4350D01*
X42379Y4000D02*X42129Y4250D01*
Y4000D02*X42379D01*
X42009Y4050D02*X41959Y4000D01*
X42009Y4050D02*Y4350D01*
X41959Y4400D01*
X41859D02*X41959D01*
X41859D02*X41809Y4350D01*
Y4050D02*Y4350D01*
X41859Y4000D02*X41809Y4050D01*
X41859Y4000D02*X41959D01*
X42009Y4100D02*X41809Y4300D01*
X41689Y4350D02*X41639Y4400D01*
X41539D02*X41639D01*
X41539D02*X41489Y4350D01*
Y4050D02*Y4350D01*
X41539Y4000D02*X41489Y4050D01*
X41539Y4000D02*X41639D01*
X41689Y4050D02*X41639Y4000D01*
X41489Y4200D02*X41639D01*
X37050Y15900D02*X37250D01*
X37050D02*X37000Y15850D01*
Y15750D02*Y15850D01*
X37050Y15700D02*X37000Y15750D01*
X37050Y15700D02*X37200D01*
Y15500D02*Y15900D01*
Y15700D02*X37000Y15500D01*
X36879Y15850D02*X36829Y15900D01*
X36679D02*X36829D01*
X36679D02*X36629Y15850D01*
Y15750D02*Y15850D01*
X36879Y15500D02*X36629Y15750D01*
Y15500D02*X36879D01*
X36509Y15550D02*X36459Y15500D01*
X36509Y15550D02*Y15850D01*
X36459Y15900D01*
X36359D02*X36459D01*
X36359D02*X36309Y15850D01*
Y15550D02*Y15850D01*
X36359Y15500D02*X36309Y15550D01*
X36359Y15500D02*X36459D01*
X36509Y15600D02*X36309Y15800D01*
X36039Y15500D02*X36139D01*
X36089D02*Y15900D01*
X36189Y15800D02*X36089Y15900D01*
X35300Y16150D02*X35500D01*
X35400Y15750D02*Y16150D01*
X35129Y15750D02*Y16150D01*
X34979D02*X35179D01*
X34979D02*X34929Y16100D01*
Y16000D02*Y16100D01*
X34979Y15950D02*X34929Y16000D01*
X34979Y15950D02*X35129D01*
X34809Y15750D02*X34559Y16000D01*
Y16150D01*
X34809D01*
X34439Y15800D02*X34389Y15750D01*
X34439Y15800D02*Y16100D01*
X34389Y16150D01*
X34289D02*X34389D01*
X34289D02*X34239Y16100D01*
Y15800D02*Y16100D01*
X34289Y15750D02*X34239Y15800D01*
X34289Y15750D02*X34389D01*
X34439Y15850D02*X34239Y16050D01*
X34119Y15950D02*X33919Y16150D01*
X33869Y15950D02*X34119D01*
X33919Y15750D02*Y16150D01*
X38800Y3650D02*X39000D01*
X38900Y3250D02*Y3650D01*
X38629Y3250D02*Y3650D01*
X38479D02*X38679D01*
X38479D02*X38429Y3600D01*
Y3500D02*Y3600D01*
X38479Y3450D02*X38429Y3500D01*
X38479Y3450D02*X38629D01*
X38309Y3600D02*X38259Y3650D01*
X38109D02*X38259D01*
X38109D02*X38059Y3600D01*
Y3500D02*Y3600D01*
X38309Y3250D02*X38059Y3500D01*
Y3250D02*X38309D01*
X37939Y3300D02*X37889Y3250D01*
X37939Y3300D02*Y3600D01*
X37889Y3650D01*
X37789D02*X37889D01*
X37789D02*X37739Y3600D01*
Y3300D02*Y3600D01*
X37789Y3250D02*X37739Y3300D01*
X37789Y3250D02*X37889D01*
X37939Y3350D02*X37739Y3550D01*
X37469Y3250D02*X37569D01*
X37519D02*Y3650D01*
X37619Y3550D02*X37519Y3650D01*
X23550Y10400D02*X23750D01*
X23550D02*X23500Y10350D01*
Y10250D02*Y10350D01*
X23550Y10200D02*X23500Y10250D01*
X23550Y10200D02*X23700D01*
Y10000D02*Y10400D01*
Y10200D02*X23500Y10000D01*
X23229D02*X23329D01*
X23279D02*Y10400D01*
X23379Y10300D02*X23279Y10400D01*
X23109Y10050D02*X23059Y10000D01*
X23109Y10050D02*Y10350D01*
X23059Y10400D01*
X22959D02*X23059D01*
X22959D02*X22909Y10350D01*
Y10050D02*Y10350D01*
X22959Y10000D02*X22909Y10050D01*
X22959Y10000D02*X23059D01*
X23109Y10100D02*X22909Y10300D01*
X22639Y10000D02*X22739D01*
X22689D02*Y10400D01*
X22789Y10300D02*X22689Y10400D01*
X22800Y22900D02*X23000D01*
X22800D02*X22750Y22850D01*
Y22750D02*Y22850D01*
X22800Y22700D02*X22750Y22750D01*
X22800Y22700D02*X22950D01*
Y22500D02*Y22900D01*
Y22700D02*X22750Y22500D01*
X22629D02*X22379Y22750D01*
Y22900D01*
X22629D01*
X22259Y22550D02*X22209Y22500D01*
X22259Y22550D02*Y22850D01*
X22209Y22900D01*
X22109D02*X22209D01*
X22109D02*X22059Y22850D01*
Y22550D02*Y22850D01*
X22109Y22500D02*X22059Y22550D01*
X22109Y22500D02*X22209D01*
X22259Y22600D02*X22059Y22800D01*
X21939Y22850D02*X21889Y22900D01*
X21789D02*X21889D01*
X21789D02*X21739Y22850D01*
Y22550D02*Y22850D01*
X21789Y22500D02*X21739Y22550D01*
X21789Y22500D02*X21889D01*
X21939Y22550D02*X21889Y22500D01*
X21739Y22700D02*X21889D01*
X24550Y14900D02*X24750D01*
X24650Y14500D02*Y14900D01*
X24379Y14500D02*Y14900D01*
X24229D02*X24429D01*
X24229D02*X24179Y14850D01*
Y14750D02*Y14850D01*
X24229Y14700D02*X24179Y14750D01*
X24229Y14700D02*X24379D01*
X23909Y14500D02*X24009D01*
X23959D02*Y14900D01*
X24059Y14800D02*X23959Y14900D01*
X23789Y14550D02*X23739Y14500D01*
X23789Y14550D02*Y14850D01*
X23739Y14900D01*
X23639D02*X23739D01*
X23639D02*X23589Y14850D01*
Y14550D02*Y14850D01*
X23639Y14500D02*X23589Y14550D01*
X23639Y14500D02*X23739D01*
X23789Y14600D02*X23589Y14800D01*
X23469Y14500D02*X23219Y14750D01*
Y14900D01*
X23469D01*
X23550Y11900D02*X23750D01*
X23650Y11500D02*Y11900D01*
X23379Y11500D02*Y11900D01*
X23229D02*X23429D01*
X23229D02*X23179Y11850D01*
Y11750D02*Y11850D01*
X23229Y11700D02*X23179Y11750D01*
X23229Y11700D02*X23379D01*
X22909Y11500D02*X23009D01*
X22959D02*Y11900D01*
X23059Y11800D02*X22959Y11900D01*
X22789Y11550D02*X22739Y11500D01*
X22789Y11550D02*Y11850D01*
X22739Y11900D01*
X22639D02*X22739D01*
X22639D02*X22589Y11850D01*
Y11550D02*Y11850D01*
X22639Y11500D02*X22589Y11550D01*
X22639Y11500D02*X22739D01*
X22789Y11600D02*X22589Y11800D01*
X22319Y11500D02*X22419D01*
X22369D02*Y11900D01*
X22469Y11800D02*X22369Y11900D01*
X21000Y18050D02*Y18400D01*
Y18050D02*X20950Y18000D01*
X20850D02*X20950D01*
X20850D02*X20800Y18050D01*
Y18400D01*
X20529Y18000D02*X20629D01*
X20579D02*Y18400D01*
X20679Y18300D02*X20579Y18400D01*
X20409Y18050D02*X20359Y18000D01*
X20409Y18050D02*Y18350D01*
X20359Y18400D01*
X20259D02*X20359D01*
X20259D02*X20209Y18350D01*
Y18050D02*Y18350D01*
X20259Y18000D02*X20209Y18050D01*
X20259Y18000D02*X20359D01*
X20409Y18100D02*X20209Y18300D01*
X19939Y18000D02*X20039D01*
X19989D02*Y18400D01*
X20089Y18300D02*X19989Y18400D01*
X31300Y15650D02*X31500D01*
X31300D02*X31250Y15600D01*
Y15500D02*Y15600D01*
X31300Y15450D02*X31250Y15500D01*
X31300Y15450D02*X31450D01*
Y15250D02*Y15650D01*
Y15450D02*X31250Y15250D01*
X31129D02*X30879Y15500D01*
Y15650D01*
X31129D01*
X30759Y15300D02*X30709Y15250D01*
X30759Y15300D02*Y15600D01*
X30709Y15650D01*
X30609D02*X30709D01*
X30609D02*X30559Y15600D01*
Y15300D02*Y15600D01*
X30609Y15250D02*X30559Y15300D01*
X30609Y15250D02*X30709D01*
X30759Y15350D02*X30559Y15550D01*
X30439Y15450D02*X30239Y15650D01*
X30189Y15450D02*X30439D01*
X30239Y15250D02*Y15650D01*
X19550Y10750D02*X19700D01*
X19750Y10800D02*X19700Y10750D01*
X19750Y10800D02*Y11100D01*
X19700Y11150D01*
X19550D02*X19700D01*
X19279Y10750D02*X19379D01*
X19329D02*Y11150D01*
X19429Y11050D02*X19329Y11150D01*
X19159Y10800D02*X19109Y10750D01*
X19159Y10800D02*Y11100D01*
X19109Y11150D01*
X19009D02*X19109D01*
X19009D02*X18959Y11100D01*
Y10800D02*Y11100D01*
X19009Y10750D02*X18959Y10800D01*
X19009Y10750D02*X19109D01*
X19159Y10850D02*X18959Y11050D01*
X18689Y10750D02*X18789D01*
X18739D02*Y11150D01*
X18839Y11050D02*X18739Y11150D01*
X20050Y22900D02*X20000Y22850D01*
X20050Y22900D02*X20200D01*
X20250Y22850D02*X20200Y22900D01*
X20250Y22750D02*Y22850D01*
Y22750D02*X20200Y22700D01*
X20050D02*X20200D01*
X20050D02*X20000Y22650D01*
Y22550D02*Y22650D01*
X20050Y22500D02*X20000Y22550D01*
X20050Y22500D02*X20200D01*
X20250Y22550D02*X20200Y22500D01*
X19879D02*Y22900D01*
Y22500D02*X19729Y22650D01*
X19579Y22500D01*
Y22900D01*
X19459Y22500D02*X19209Y22750D01*
Y22900D01*
X19459D01*
X19089Y22550D02*X19039Y22500D01*
X19089Y22550D02*Y22850D01*
X19039Y22900D01*
X18939D02*X19039D01*
X18939D02*X18889Y22850D01*
Y22550D02*Y22850D01*
X18939Y22500D02*X18889Y22550D01*
X18939Y22500D02*X19039D01*
X19089Y22600D02*X18889Y22800D01*
X18769Y22850D02*X18719Y22900D01*
X18619D02*X18719D01*
X18619D02*X18569Y22850D01*
Y22550D02*Y22850D01*
X18619Y22500D02*X18569Y22550D01*
X18619Y22500D02*X18719D01*
X18769Y22550D02*X18719Y22500D01*
X18569Y22700D02*X18719D01*
X11550Y13150D02*X11750D01*
X11650Y12750D02*Y13150D01*
X11379Y12750D02*Y13150D01*
X11229D02*X11429D01*
X11229D02*X11179Y13100D01*
Y13000D02*Y13100D01*
X11229Y12950D02*X11179Y13000D01*
X11229Y12950D02*X11379D01*
X10909Y12750D02*X11009D01*
X10959D02*Y13150D01*
X11059Y13050D02*X10959Y13150D01*
X10789Y12800D02*X10739Y12750D01*
X10789Y12800D02*Y13100D01*
X10739Y13150D01*
X10639D02*X10739D01*
X10639D02*X10589Y13100D01*
Y12800D02*Y13100D01*
X10639Y12750D02*X10589Y12800D01*
X10639Y12750D02*X10739D01*
X10789Y12850D02*X10589Y13050D01*
X10269Y13150D02*X10469D01*
Y12950D02*Y13150D01*
Y12950D02*X10419Y13000D01*
X10319D02*X10419D01*
X10319D02*X10269Y12950D01*
Y12800D02*Y12950D01*
X10319Y12750D02*X10269Y12800D01*
X10319Y12750D02*X10419D01*
X10469Y12800D02*X10419Y12750D01*
X11550Y14400D02*X11750D01*
X11650Y14000D02*Y14400D01*
X11379Y14000D02*Y14400D01*
X11229D02*X11429D01*
X11229D02*X11179Y14350D01*
Y14250D02*Y14350D01*
X11229Y14200D02*X11179Y14250D01*
X11229Y14200D02*X11379D01*
X10909Y14000D02*X11009D01*
X10959D02*Y14400D01*
X11059Y14300D02*X10959Y14400D01*
X10789Y14050D02*X10739Y14000D01*
X10789Y14050D02*Y14350D01*
X10739Y14400D01*
X10639D02*X10739D01*
X10639D02*X10589Y14350D01*
Y14050D02*Y14350D01*
X10639Y14000D02*X10589Y14050D01*
X10639Y14000D02*X10739D01*
X10789Y14100D02*X10589Y14300D01*
X10319Y14400D02*X10269Y14350D01*
X10319Y14400D02*X10419D01*
X10469Y14350D02*X10419Y14400D01*
X10469Y14050D02*Y14350D01*
Y14050D02*X10419Y14000D01*
X10319Y14200D02*X10269Y14150D01*
X10319Y14200D02*X10469D01*
X10319Y14000D02*X10419D01*
X10319D02*X10269Y14050D01*
Y14150D01*
X11750Y7000D02*Y7400D01*
X11500Y7000D02*Y7400D01*
Y7200D02*X11750D01*
X11379Y7050D02*X11329Y7000D01*
X11379Y7050D02*Y7150D01*
X11329Y7200D01*
X11229D02*X11329D01*
X11229D02*X11179Y7150D01*
Y7050D02*Y7150D01*
X11229Y7000D02*X11179Y7050D01*
X11229Y7000D02*X11329D01*
X11379Y7250D02*X11329Y7200D01*
X11379Y7250D02*Y7350D01*
X11329Y7400D01*
X11229D02*X11329D01*
X11229D02*X11179Y7350D01*
Y7250D02*Y7350D01*
X11229Y7200D02*X11179Y7250D01*
X11059Y7050D02*X11009Y7000D01*
X11059Y7050D02*Y7350D01*
X11009Y7400D01*
X10909D02*X11009D01*
X10909D02*X10859Y7350D01*
Y7050D02*Y7350D01*
X10909Y7000D02*X10859Y7050D01*
X10909Y7000D02*X11009D01*
X11059Y7100D02*X10859Y7300D01*
X10739Y7350D02*X10689Y7400D01*
X10539D02*X10689D01*
X10539D02*X10489Y7350D01*
Y7250D02*Y7350D01*
X10739Y7000D02*X10489Y7250D01*
Y7000D02*X10739D01*
X11550Y11900D02*X11750D01*
X11650Y11500D02*Y11900D01*
X11379Y11500D02*Y11900D01*
X11229D02*X11429D01*
X11229D02*X11179Y11850D01*
Y11750D02*Y11850D01*
X11229Y11700D02*X11179Y11750D01*
X11229Y11700D02*X11379D01*
X10909Y11500D02*X11009D01*
X10959D02*Y11900D01*
X11059Y11800D02*X10959Y11900D01*
X10789Y11550D02*X10739Y11500D01*
X10789Y11550D02*Y11850D01*
X10739Y11900D01*
X10639D02*X10739D01*
X10639D02*X10589Y11850D01*
Y11550D02*Y11850D01*
X10639Y11500D02*X10589Y11550D01*
X10639Y11500D02*X10739D01*
X10789Y11600D02*X10589Y11800D01*
X10469Y11700D02*X10269Y11900D01*
X10219Y11700D02*X10469D01*
X10269Y11500D02*Y11900D01*
X23050Y25650D02*X23250D01*
X23150Y25250D02*Y25650D01*
X22879Y25250D02*Y25650D01*
X22729D02*X22929D01*
X22729D02*X22679Y25600D01*
Y25500D02*Y25600D01*
X22729Y25450D02*X22679Y25500D01*
X22729Y25450D02*X22879D01*
X22559Y25250D02*X22309Y25500D01*
Y25650D01*
X22559D01*
X22189Y25300D02*X22139Y25250D01*
X22189Y25300D02*Y25600D01*
X22139Y25650D01*
X22039D02*X22139D01*
X22039D02*X21989Y25600D01*
Y25300D02*Y25600D01*
X22039Y25250D02*X21989Y25300D01*
X22039Y25250D02*X22139D01*
X22189Y25350D02*X21989Y25550D01*
X21869Y25600D02*X21819Y25650D01*
X21719D02*X21819D01*
X21719D02*X21669Y25600D01*
Y25300D02*Y25600D01*
X21719Y25250D02*X21669Y25300D01*
X21719Y25250D02*X21819D01*
X21869Y25300D02*X21819Y25250D01*
X21669Y25450D02*X21819D01*
M02*
